<?xml version="1.0" standalone="no"?>
<!DOCTYPE svg PUBLIC "-//W3C//DTD SVG 1.1//EN" "http://www.w3.org/Graphics/SVG/1.1/DTD/svg11.dtd" >
<svg xmlns="http://www.w3.org/2000/svg" xmlns:xlink="http://www.w3.org/1999/xlink" version="1.1">
<metadata>
Created by FontForge 20161003 at Wed May  3 10:32:54 2017
 By www-data
Copyright (c) 2010 by Christoph Dunst. All rights reserved.
</metadata>
<defs>
<font id="NovelSansPro_ExtraBold" horiz-adv-x="838" >
  <font-face 
    font-family="NovelSansPro_ExtraBold"
    font-weight="850"
    font-stretch="normal"
    units-per-em="1000"
    panose-1="2 0 0 0 0 0 0 0 0 0"
    ascent="800"
    descent="-200"
    x-height="510"
    cap-height="710"
    bbox="-65 -336.575 1700 1115"
    underline-thickness="50"
    underline-position="-150"
    unicode-range="U+0020-FF8F"
  />
<missing-glyph horiz-adv-x="710" 
d="M715 5l-10 -10l-350 350l-350 -350l-10 10l350 350l-350 350l10 10l350 -350l350 350l10 -10l-350 -350z" />
    <glyph glyph-name="T_T" unicode="TT" horiz-adv-x="1198" 
d="M1145 710l-10 -149h-194v-561h-180v561h-353v-561h-180v561h-190v149h1107z" />
    <glyph glyph-name="f_f" unicode="ff" horiz-adv-x="746" 
d="M801 775l-13 -127q-41 8 -78 8q-77 0 -91 -58q-6 -28 -6 -80v-20h116l-6 -128h-110v-370h-170v370h-184v-370h-170v370h-79v118l79 10v20q0 85 17 133q47 138 237 138q40 0 73 -10l-13 -128q-28 5 -53 5q-72 0 -86 -58q-5 -23 -5 -80v-20h184v20q0 82 18 132
q48 139 237 139q61 0 103 -14z" />
    <glyph glyph-name="f_i" unicode="fi" horiz-adv-x="668" 
d="M526 769l-14 -128q-72 15 -137 15q-69 0 -97 -37q-19 -26 -19 -101v-20h116l-6 -128h-110v-370h-170v370h-79v118l79 10v20q0 113 41 172q70 99 242 99q88 0 154 -20zM611 0h-170v485l170 15v-500z" />
    <glyph glyph-name="f_l" unicode="fl" horiz-adv-x="668" 
d="M611 0h-170v650q-32 6 -66 6q-69 0 -97 -37q-19 -26 -19 -101v-20h116l-6 -128h-110v-370h-170v370h-79v118l79 10v20q0 113 41 172q70 99 242 99q61 0 124 -15l115 9v-783z" />
    <glyph glyph-name="f_b" unicode="fb" horiz-adv-x="998" 
d="M960 271q0 -129 -77 -205t-228 -76q-41 0 -105.5 9t-114.5 25q6 48 6 94v532q-32 6 -66 6q-69 0 -97 -37q-19 -26 -19 -101v-20h116l-6 -128h-110v-370h-170v370h-79v118l79 10v20q0 113 41 172q70 99 242 99q61 0 124 -15l115 9v-243q0 -50 -6 -88q54 68 148 68
q90 0 148.5 -66.5t58.5 -182.5zM787 247q0 65 -25.5 101t-66.5 36q-44 0 -84 -31v-184q0 -24 -2 -40q38 -11 73 -11q49 0 77 34t28 95z" />
    <glyph glyph-name="f_h" unicode="fh" horiz-adv-x="989" 
d="M934 0h-170v256q0 43 -4 66q-9 55 -62 55q-43 0 -87 -32v-345h-170v650q-32 6 -66 6q-69 0 -97 -37q-19 -26 -19 -101v-20h116l-6 -128h-110v-370h-170v370h-79v118l79 10v20q0 113 41 172q70 99 242 99q61 0 124 -15l115 9v-243q0 -58 -5 -88q56 68 156 68
q119 0 157 -107q15 -42 15 -151v-262z" />
    <glyph glyph-name="f_j" unicode="fj" horiz-adv-x="668" 
d="M526 769l-14 -128q-72 15 -137 15q-69 0 -97 -37q-19 -26 -19 -101v-20h116l-6 -128h-110v-370h-170v370h-79v118l79 10v20q0 113 41 172q70 99 242 99q88 0 154 -20zM611 500v-425q0 -113 -41.5 -188t-144.5 -145l-93 102q68 61 88.5 109.5t20.5 140.5v391z" />
    <glyph glyph-name="f_k" unicode="fk" horiz-adv-x="995" 
d="M611 0h-170v650q-32 6 -66 6q-69 0 -97 -37q-19 -26 -19 -101v-20h116l-6 -128h-110v-370h-170v370h-79v118l79 10v20q0 113 41 172q70 99 242 99q61 0 124 -15l115 9v-783zM990 0h-205l-165 273l162 237h193l-166 -229z" />
    <glyph glyph-name="f_t" unicode="ft" horiz-adv-x="764" 
d="M735 142l-2 -123q-61 -27 -123 -27q-38 0 -67.5 8t-55.5 27.5t-40 58t-14 94.5v190h-174v-370h-170v370h-79v118l79 10v20q0 85 17 133q47 138 237 138q40 0 73 -10l-13 -128q-28 5 -53 5q-72 0 -86 -58q-5 -23 -5 -80v-20h187l15 118l142 2v-120h119l-6 -128h-113v-171
q0 -38 15 -53.5t46 -15.5q30 0 71 12z" />
    <glyph glyph-name="f_f_i" unicode="ffi" horiz-adv-x="1022" 
d="M880 769l-14 -128q-72 15 -137 15q-69 0 -97 -37q-19 -26 -19 -101v-20h116l-6 -128h-110v-370h-170v370h-184v-370h-170v370h-79v118l79 10v20q0 85 17 133q47 138 237 138q40 0 73 -10l-13 -128q-28 5 -53 5q-72 0 -86 -58q-5 -23 -5 -80v-20h184v20q0 113 41 172
q70 99 242 99q88 0 154 -20zM965 0h-170v485l170 15v-500z" />
    <glyph glyph-name="f_f_l" unicode="ffl" horiz-adv-x="1022" 
d="M965 0h-170v650q-32 6 -66 6q-69 0 -97 -37q-19 -26 -19 -101v-20h116l-6 -128h-110v-370h-170v370h-184v-370h-170v370h-79v118l79 10v20q0 85 17 133q47 138 237 138q40 0 73 -10l-13 -128q-28 5 -53 5q-72 0 -86 -58q-5 -23 -5 -80v-20h184v20q0 113 41 172
q70 99 242 99q61 0 124 -15l115 9v-783z" />
    <glyph glyph-name="f_f_b" unicode="ffb" horiz-adv-x="1352" 
d="M1314 271q0 -129 -77 -205t-228 -76q-41 0 -105.5 9t-114.5 25q6 48 6 94v532q-32 6 -66 6q-69 0 -97 -37q-19 -26 -19 -101v-20h116l-6 -128h-110v-370h-170v370h-184v-370h-170v370h-79v118l79 10v20q0 85 17 133q47 138 237 138q40 0 73 -10l-13 -128q-28 5 -53 5
q-72 0 -86 -58q-5 -23 -5 -80v-20h184v20q0 113 41 172q70 99 242 99q61 0 124 -15l115 9v-243q0 -50 -6 -88q54 68 148 68q90 0 148.5 -66.5t58.5 -182.5zM1141 247q0 65 -25.5 101t-66.5 36q-44 0 -84 -31v-184q0 -24 -2 -40q38 -11 73 -11q49 0 77 34t28 95z" />
    <glyph glyph-name="f_f_h" unicode="ffh" horiz-adv-x="1343" 
d="M1288 0h-170v256q0 43 -4 66q-9 55 -62 55q-43 0 -87 -32v-345h-170v650q-32 6 -66 6q-69 0 -97 -37q-19 -26 -19 -101v-20h116l-6 -128h-110v-370h-170v370h-184v-370h-170v370h-79v118l79 10v20q0 85 17 133q47 138 237 138q40 0 73 -10l-13 -128q-28 5 -53 5
q-72 0 -86 -58q-5 -23 -5 -80v-20h184v20q0 113 41 172q70 99 242 99q61 0 124 -15l115 9v-243q0 -58 -5 -88q56 68 156 68q119 0 157 -107q15 -42 15 -151v-262z" />
    <glyph glyph-name="f_f_j" unicode="ffj" horiz-adv-x="1022" 
d="M880 769l-14 -128q-72 15 -137 15q-69 0 -97 -37q-19 -26 -19 -101v-20h116l-6 -128h-110v-370h-170v370h-184v-370h-170v370h-79v118l79 10v20q0 85 17 133q47 138 237 138q40 0 73 -10l-13 -128q-28 5 -53 5q-72 0 -86 -58q-5 -23 -5 -80v-20h184v20q0 113 41 172
q70 99 242 99q88 0 154 -20zM965 500v-425q0 -113 -41.5 -188t-144.5 -145l-93 102q68 61 88.5 109.5t20.5 140.5v391z" />
    <glyph glyph-name="f_f_k" unicode="ffk" horiz-adv-x="1349" 
d="M965 0h-170v650q-32 6 -66 6q-69 0 -97 -37q-19 -26 -19 -101v-20h116l-6 -128h-110v-370h-170v370h-184v-370h-170v370h-79v118l79 10v20q0 85 17 133q47 138 237 138q40 0 73 -10l-13 -128q-28 5 -53 5q-72 0 -86 -58q-5 -23 -5 -80v-20h184v20q0 113 41 172
q70 99 242 99q61 0 124 -15l115 9v-783zM1344 0h-205l-165 273l162 237h193l-166 -229z" />
    <glyph glyph-name="f_f_t" unicode="fft" horiz-adv-x="1118" 
d="M1089 142l-2 -123q-61 -27 -123 -27q-38 0 -67.5 8t-55.5 27.5t-40 58t-14 94.5v190h-174v-370h-170v370h-184v-370h-170v370h-79v118l79 10v20q0 85 17 133q47 138 237 138q40 0 73 -10l-13 -128q-28 5 -53 5q-72 0 -86 -58q-5 -23 -5 -80v-20h184v20q0 85 17 133
q47 138 237 138q40 0 73 -10l-13 -128q-28 5 -53 5q-72 0 -86 -58q-5 -23 -5 -80v-20h187l15 118l142 2v-120h119l-6 -128h-113v-171q0 -38 15 -53.5t46 -15.5q30 0 71 12z" />
    <glyph glyph-name="longs_b" unicode="&#x17f;b" horiz-adv-x="983" 
d="M945 271q0 -129 -77 -205t-228 -76q-41 0 -105.5 9t-114.5 25q6 48 6 94v534q-24 4 -51 4q-69 0 -97 -37q-19 -26 -19 -101v-518h-170v370h-79v118l79 10v20q0 113 41 172q70 99 242 99q49 0 109 -15l115 9v-243q0 -50 -6 -88q54 68 148 68q90 0 148.5 -66.5t58.5 -182.5
zM772 247q0 65 -25.5 101t-66.5 36q-44 0 -84 -31v-184q0 -24 -2 -40q38 -11 73 -11q49 0 77 34t28 95z" />
    <glyph glyph-name="longs_h" unicode="&#x17f;h" horiz-adv-x="974" 
d="M919 0h-170v256q0 43 -4 66q-9 55 -62 55q-43 0 -87 -32v-345h-170v652q-24 4 -51 4q-69 0 -97 -37q-19 -26 -19 -101v-518h-170v370h-79v118l79 10v20q0 113 41 172q70 99 242 99q49 0 109 -15l115 9v-243q0 -58 -5 -88q56 68 156 68q119 0 157 -107q15 -42 15 -151
v-262z" />
    <glyph glyph-name="longs_l" unicode="&#x17f;l" horiz-adv-x="653" 
d="M596 0h-170v652q-24 4 -51 4q-69 0 -97 -37q-19 -26 -19 -101v-518h-170v370h-79v118l79 10v20q0 113 41 172q70 99 242 99q49 0 109 -15l115 9v-783z" />
    <glyph glyph-name="longs_t" unicode="&#x17f;t" horiz-adv-x="756" 
d="M416 779l-13 -128q-28 5 -53 5q-72 0 -86 -58q-5 -23 -5 -80v-518h-170v370h-79v118l79 10v20q0 85 17 133q47 138 237 138q40 0 73 -10zM727 142l-2 -123q-61 -27 -123 -27q-38 0 -67.5 8t-55.5 27.5t-40 58t-14 94.5v190h-71v116l84 12l15 118l142 2v-120h119l-6 -128
h-113v-171q0 -38 15 -53.5t46 -15.5q30 0 71 12z" />
    <glyph glyph-name="longs_i" unicode="&#x17f;i" horiz-adv-x="653" 
d="M526 769l-14 -128q-72 15 -137 15q-69 0 -97 -37q-19 -26 -19 -101v-518h-170v370h-79v118l79 10v20q0 113 41 172q70 99 242 99q88 0 154 -20zM596 0h-170v485l170 15v-500z" />
    <glyph glyph-name="longs_j" unicode="&#x17f;j" horiz-adv-x="653" 
d="M526 769l-14 -128q-72 15 -137 15q-69 0 -97 -37q-19 -26 -19 -101v-518h-170v370h-79v118l79 10v20q0 113 41 172q70 99 242 99q88 0 154 -20zM596 500v-425q0 -113 -41.5 -188t-144.5 -145l-93 102q68 61 88.5 109.5t20.5 140.5v391z" />
    <glyph glyph-name=".notdef" horiz-adv-x="710" 
d="M715 5l-10 -10l-350 350l-350 -350l-10 10l350 350l-350 350l10 10l350 -350l350 350l10 -10l-350 -350z" />
    <glyph glyph-name=".null" horiz-adv-x="0" 
 />
    <glyph glyph-name="nonmarkingreturn" horiz-adv-x="333" 
 />
    <glyph glyph-name="space" unicode=" " horiz-adv-x="175" 
 />
    <glyph glyph-name="space" unicode="&#xa0;" horiz-adv-x="175" 
 />
    <glyph glyph-name="exclam" unicode="!" horiz-adv-x="319" 
d="M251 710l-1 -110q-2 -198 -22 -348h-137q-20 150 -22 348l-1 110h183zM254 83q0 -40 -26 -66.5t-69 -26.5q-42 0 -68 27t-26 69q0 40 26 66.5t69 26.5q42 0 68 -27t26 -69z" />
    <glyph glyph-name="quotedbl" unicode="&#x22;" horiz-adv-x="420" 
d="M173 710l-2 -90q-1 -36 -4 -73.5t-6 -57.5l-3 -20h-98q-11 71 -13 151l-2 90h128zM375 710l-2 -90q-1 -36 -4 -73.5t-6 -57.5l-3 -20h-98q-11 71 -13 151l-2 90h128z" />
    <glyph glyph-name="numbersign" unicode="#" horiz-adv-x="580" 
d="M562 497l-15 -113h-75l-17 -151h75l-15 -113h-75l-14 -120h-122l14 120h-103l-14 -120h-122l14 120h-75l15 113h75l17 151h-75l15 113h74l15 120h122l-15 -120h103l15 120h122l-15 -120h76zM350 384h-103l-17 -151h103z" />
    <glyph glyph-name="dollar" unicode="$" horiz-adv-x="580" 
d="M536 219q0 -34 -12 -66.5t-38 -65t-75 -55t-114 -29.5l-5 -103l-70 3l4 100q-94 7 -167 36l-3 140q105 -33 177 -38l7 149q-106 45 -146.5 94t-39.5 113q1 80 57 139t174 73l6 104l70 -3l-6 -100q72 -1 151 -20l-13 -135q-83 20 -145 22l-8 -153q114 -45 155 -94.5
t41 -110.5zM278 572q-48 -13 -48 -60q0 -38 42 -58zM354 197q0 38 -46 64l-5 -119q51 7 51 55z" />
    <glyph glyph-name="percent" unicode="%" horiz-adv-x="897" 
d="M383 540q0 -91 -52 -140.5t-127 -49.5q-74 0 -124 50.5t-50 130.5q0 91 52 140t127 49q74 0 124 -50t50 -130zM266 531q0 38 -17.5 62.5t-44.5 24.5q-25 0 -41 -19t-16 -59q0 -39 17.5 -63.5t44.5 -24.5q25 0 41 19.5t16 59.5zM671 706l-338 -727l-102 43l338 724z
M867 180q0 -91 -52 -140.5t-127 -49.5q-74 0 -124 50.5t-50 130.5q0 91 52 140t127 49q74 0 124 -50t50 -130zM750 171q0 38 -17.5 62.5t-44.5 24.5q-25 0 -41 -19t-16 -59q0 -39 17.5 -63.5t44.5 -24.5q25 0 41 19.5t16 59.5z" />
    <glyph glyph-name="ampersand" unicode="&#x26;" horiz-adv-x="865" 
d="M815 79l-129 -100q-60 34 -122 77q-103 -66 -216 -66q-129 0 -206 66t-77 159q0 113 115 178q-69 75 -69 144q0 80 62.5 131.5t159.5 51.5q98 0 151.5 -50t53.5 -120q0 -118 -130 -175q70 -63 150 -123q50 60 50 174q0 43 -7 84h149q13 -36 13 -82q0 -160 -82 -261
q32 -24 134 -88zM397 543q0 24 -19 40.5t-47 16.5q-29 0 -47.5 -15t-18.5 -43q0 -38 56 -90q76 36 76 91zM445 149q-62 49 -185 160q-32 -29 -32 -72q0 -47 33.5 -80t91.5 -33q49 0 92 25z" />
    <glyph glyph-name="quotesingle" unicode="'" horiz-adv-x="218" 
d="M173 710l-2 -90q-1 -36 -4 -73.5t-6 -57.5l-3 -20h-98q-11 71 -13 151l-2 90h128z" />
    <glyph glyph-name="parenleft" unicode="(" horiz-adv-x="515" 
d="M505 -251l-108 -60q-148 81 -232.5 228t-84.5 353q0 207 84 353.5t232 227.5l108 -60q-275 -167 -275 -521t276 -521z" />
    <glyph glyph-name="parenright" unicode=")" horiz-adv-x="515" 
d="M435 270q0 -207 -84 -353.5t-232 -227.5l-108 60q275 167 275 521t-276 521l108 60q148 -81 232.5 -228t84.5 -353z" />
    <glyph glyph-name="asterisk" unicode="*" horiz-adv-x="484" 
d="M389 374l-31 21q-44 31 -87 76q18 -54 23 -113l3 -37h-110l3 37q4 50 22 113q-42 -46 -86 -76l-31 -21l-55 95l34 16q44 20 111 37q-64 14 -111 37l-34 16l55 95l31 -21q38 -27 86 -77q-18 64 -22 114l-3 37h110l-3 -37q-5 -53 -23 -113q45 47 87 76l31 21l55 -95
l-34 -16q-51 -23 -111 -37q67 -17 111 -37l34 -16z" />
    <glyph glyph-name="plus" unicode="+" horiz-adv-x="580" 
d="M529 227h-181v-165h-119v165h-179v118h179v165h119v-165h181v-118z" />
    <glyph glyph-name="comma" unicode="," horiz-adv-x="287" 
d="M247 76q0 -107 -150 -238l-87 58q49 56 67.5 96.5t15 57.5t-16.5 34q-8 10 -17 18t-14 10l-5 3q10 40 38 60.5t59 20.5q32 0 60 -18q50 -32 50 -102z" />
    <glyph glyph-name="hyphen" unicode="-" horiz-adv-x="350" 
d="M320 208h-290v134h290v-134z" />
    <glyph glyph-name="hyphen" unicode="&#x2010;" horiz-adv-x="350" 
d="M320 208h-290v134h290v-134z" />
    <glyph glyph-name="hyphen" unicode="&#xad;" horiz-adv-x="350" 
d="M320 208h-290v134h290v-134z" />
    <glyph glyph-name="period" unicode="." horiz-adv-x="276" 
d="M236 86q0 -42 -27 -69t-72 -27q-43 0 -70 28t-27 72q0 42 27 69t72 27q43 0 70 -28t27 -72z" />
    <glyph glyph-name="slash" unicode="/" horiz-adv-x="483" 
d="M503 822l-407 -1087l-116 46l407 1087z" />
    <glyph glyph-name="zero" unicode="0" horiz-adv-x="580" 
d="M561 359q0 -185 -76 -277t-200 -92q-125 0 -195 88.5t-70 272.5q0 185 76 277t200 92q125 0 195 -88.5t70 -272.5zM390 351q0 115 -23.5 171t-74.5 56q-49 0 -75 -46.5t-26 -172.5q0 -115 23.5 -171t74.5 -56q49 0 75 46.5t26 172.5z" />
    <glyph glyph-name="one" unicode="1" horiz-adv-x="580" 
d="M522 0h-450v130l146 7v430l-163 -13l-10 130l186 26h157v-573l134 -7v-130z" />
    <glyph glyph-name="two" unicode="2" horiz-adv-x="580" 
d="M543 146l-12 -146h-471v132l124 119q92 88 120 138.5t28 90.5q0 44 -32.5 70.5t-82.5 26.5q-66 0 -144 -34l-11 134q89 43 192 43q119 0 189 -68.5t70 -157.5q0 -146 -169 -293l-63 -55h262z" />
    <glyph glyph-name="three" unicode="3" horiz-adv-x="580" 
d="M531 205q0 -85 -72.5 -150t-206.5 -65q-108 0 -189 47v142q98 -52 181 -52q56 0 82.5 20.5t26.5 52.5q0 34 -37.5 61t-123.5 34v117q150 20 150 99q0 31 -25.5 52.5t-74.5 21.5q-69 0 -152 -40l-12 133q90 42 195 42q117 0 178.5 -55t61.5 -134q0 -43 -26 -87.5
t-89 -72.5q71 -24 102 -69.5t31 -96.5z" />
    <glyph glyph-name="four" unicode="4" horiz-adv-x="580" 
d="M571 278l-12 -140h-69v-138h-170v138h-300v125l292 447h178v-432h81zM323 495l-138 -217h135v147z" />
    <glyph glyph-name="five" unicode="5" horiz-adv-x="580" 
d="M530 726l-17 -154l-253 -10l-16 -97q82 -8 141 -32.5t89.5 -59.5t44 -71.5t13.5 -76.5q0 -95 -70.5 -165t-193.5 -70q-102 0 -194 48v143q104 -48 167 -48q52 0 78 25t26 60q0 16 -5 30t-23 32t-47 31t-83 22.5t-125 10.5l63 361z" />
    <glyph glyph-name="six" unicode="6" horiz-adv-x="580" 
d="M552 228q0 -100 -68.5 -169t-171.5 -69q-57 0 -106 19.5t-89.5 59t-63.5 106t-23 152.5q0 181 99.5 286t271.5 105q73 0 123 -10v-135q-46 5 -101 5q-81 0 -138.5 -36t-70.5 -113q47 22 102 22q99 0 167.5 -62t68.5 -161zM377 215q0 42 -29.5 68t-72.5 26q-41 0 -71 -13
q-1 -90 30.5 -127.5t68.5 -37.5q36 0 55 22.5t19 61.5z" />
    <glyph glyph-name="seven" unicode="7" horiz-adv-x="580" 
d="M533 710v-151l-303 -579l-151 65l266 505h-295l6 160h477z" />
    <glyph glyph-name="eight" unicode="8" horiz-adv-x="580" 
d="M557 204q0 -38 -16 -74.5t-48 -68.5t-87 -51.5t-124 -19.5q-115 0 -187.5 56t-72.5 137q0 102 115 168q-105 68 -105 168q0 85 69.5 143t195.5 58q112 0 176 -50.5t64 -127.5q0 -44 -29 -86.5t-84 -73.5q133 -70 133 -178zM374 529q0 30 -23 49.5t-61 19.5t-59 -18.5
t-21 -45.5q0 -26 21.5 -48t76.5 -49q66 38 66 92zM375 185q0 29 -28 54.5t-96 56.5q-64 -38 -64 -95q0 -37 27.5 -62t72.5 -25q41 0 64.5 21t23.5 50z" />
    <glyph glyph-name="nine" unicode="9" horiz-adv-x="580" 
d="M550 383q0 -181 -99.5 -286t-271.5 -105q-73 0 -123 10v135q46 -5 101 -5q81 0 138.5 36t70.5 113q-47 -22 -102 -22q-99 0 -167.5 62t-68.5 161q0 100 68.5 169t171.5 69q57 0 106 -19.5t89.5 -59t63.5 -106t23 -152.5zM376 414q1 90 -30.5 127.5t-68.5 37.5
q-36 0 -55 -22.5t-19 -61.5q0 -42 29.5 -68t72.5 -26q41 0 71 13z" />
    <glyph glyph-name="colon" unicode=":" horiz-adv-x="276" 
d="M236 377q0 -42 -27 -69t-72 -27q-43 0 -70 28t-27 72q0 42 27 69t72 27q43 0 70 -28t27 -72zM236 86q0 -42 -27 -69t-72 -27q-43 0 -70 28t-27 72q0 42 27 69t72 27q43 0 70 -28t27 -72z" />
    <glyph glyph-name="semicolon" unicode=";" horiz-adv-x="287" 
d="M240 377q0 -42 -27 -69t-72 -27q-43 0 -70 28t-27 72q0 42 27 69t72 27q43 0 70 -28t27 -72zM247 76q0 -107 -150 -238l-87 58q49 56 67.5 96.5t15 57.5t-16.5 34q-8 10 -17 18t-14 10l-5 3q10 40 38 60.5t59 20.5q32 0 60 -18q50 -32 50 -102z" />
    <glyph glyph-name="less" unicode="&#x3c;" horiz-adv-x="580" 
d="M540 425l-325 -163l325 -162v-134l-500 249v90l500 249v-129z" />
    <glyph glyph-name="equal" unicode="=" horiz-adv-x="580" 
d="M51 96v120h478v-120h-478zM51 336v117h478v-117h-478z" />
    <glyph glyph-name="greater" unicode="&#x3e;" horiz-adv-x="580" 
d="M40 107l325 162l-325 163v132l500 -249v-90l-500 -249v131z" />
    <glyph glyph-name="question" unicode="?" horiz-adv-x="431" 
d="M403 554q0 -95 -74 -153l-23 -18q-41 -32 -41 -71q0 -16 5 -41l-137 -36q-42 66 -42 114q0 63 71 118l23 18q35 28 35 50q0 20 -18.5 32t-48.5 12q-48 0 -94 -14l-17 135q77 20 154 20q101 0 154 -51.5t53 -114.5zM287 83q0 -40 -26 -66.5t-69 -26.5q-42 0 -68 27t-26 69
q0 40 26 66.5t69 26.5q42 0 68 -27t26 -69z" />
    <glyph glyph-name="at" unicode="@" horiz-adv-x="1080" 
d="M1005 307q0 -158 -75 -248t-184 -90q-90 0 -128 75q-69 -60 -150 -60q-63 0 -103.5 36t-40.5 99q0 32 12 58t40 50.5t82.5 38.5t131.5 15v4q0 26 -6 39q-16 31 -64 31q-72 0 -151 -34l-12 106q34 20 86.5 33t96.5 13q67 0 107 -15.5t65 -49.5q30 -43 30 -142v-108
q0 -77 36 -77q13 0 27 10t28 32.5t23.5 66t9.5 102.5q0 147 -86 231t-225 84q-70 0 -129 -18t-108 -56.5t-76.5 -106.5t-27.5 -160q0 -202 97.5 -300.5t274.5 -98.5q44 0 182 24l11 -112q-113 -29 -214 -29q-222 0 -356 128.5t-134 367.5q0 119 39 212t106.5 149t153 84.5
t184.5 28.5q211 0 329 -113.5t118 -299.5zM590 113v75q-126 4 -126 -53q0 -18 14 -30t44 -12t68 20z" />
    <glyph glyph-name="A" unicode="A" horiz-adv-x="773" 
d="M743 0h-201l-45 133h-248l-41 -133h-178l244 707l208 6zM451 268l-55 164q-23 65 -29 88q-14 -54 -24 -88l-52 -164h160z" />
    <glyph glyph-name="B" unicode="B" horiz-adv-x="678" 
d="M624 210q0 -114 -112 -175q-65 -35 -198 -35h-234v710h186q94 0 152 -16t100 -51q61 -52 61 -130q0 -50 -25.5 -88.5t-74.5 -57.5q77 -17 111 -62.5t34 -94.5zM407 496q0 24 -15 45t-41 31q-33 13 -81 13h-10v-172h40q41 0 63 10q44 20 44 73zM440 208q0 37 -34.5 61.5
t-110.5 24.5h-35v-159h65q54 0 79 14q36 19 36 59z" />
    <glyph glyph-name="C" unicode="C" horiz-adv-x="719" 
d="M649 178l-7 -149q-108 -39 -206 -39q-135 0 -226 50q-80 44 -125 126.5t-45 187.5q0 191 137 291q101 75 265 75q99 0 193 -30l-15 -146q-100 27 -180 27q-98 0 -153 -48q-62 -54 -62 -155t60 -164t161 -63q75 0 203 37z" />
    <glyph glyph-name="D" unicode="D" horiz-adv-x="786" 
d="M746 360q0 -188 -147 -290q-102 -71 -264 -71q-137 0 -255 1v710q75 1 210 1q206 0 326 -86q130 -92 130 -265zM561 348q0 107 -79 165q-69 51 -191 51q-17 0 -31 -1v-416q40 -1 71 -1q105 0 161 45q69 55 69 157z" />
    <glyph glyph-name="E" unicode="E" horiz-adv-x="589" 
d="M524 149l-10 -149h-434v710h415v-148h-235v-133h222v-144h-222v-136h264z" />
    <glyph glyph-name="F" unicode="F" horiz-adv-x="565" 
d="M495 562h-235v-161h222v-146h-222v-255h-180v710h415v-148z" />
    <glyph glyph-name="G" unicode="G" horiz-adv-x="765" 
d="M690 23q-136 -33 -246 -33q-138 0 -231 51q-81 44 -127 127t-46 190q0 188 137 288q100 74 268 74q113 0 215 -32l-16 -146q-108 29 -199 29q-103 0 -158 -47q-62 -54 -62 -156q0 -103 60 -166.5t169 -63.5q18 0 55 5v198h180v-228z" />
    <glyph glyph-name="H" unicode="H" horiz-adv-x="806" 
d="M726 0h-180v276h-286v-276h-180v710h180v-278h286v278h180v-710z" />
    <glyph glyph-name="I" unicode="I" horiz-adv-x="340" 
d="M260 0h-180v710h180v-710z" />
    <glyph glyph-name="J" unicode="J" horiz-adv-x="346" 
d="M266 710v-626q0 -140 -58 -218t-177 -125l-68 122q74 44 98.5 86.5t24.5 130.5v630h180z" />
    <glyph glyph-name="K" unicode="K" horiz-adv-x="786" 
d="M260 0h-180v710h180v-710zM761 0h-231l-201 284q-38 53 -53 70l274 356h208l-274 -336z" />
    <glyph glyph-name="L" unicode="L" horiz-adv-x="565" 
d="M524 149l-10 -149h-434v710h180v-561h264z" />
    <glyph glyph-name="M" unicode="M" horiz-adv-x="1049" 
d="M974 0h-183l-18 389q-2 34 -2 104l-33 -102l-131 -391h-186l-131 392q-19 56 -32 100q2 -57 0 -102l-15 -390h-168l27 710h256l163 -489l164 489h257z" />
    <glyph glyph-name="N" unicode="N" horiz-adv-x="837" 
d="M757 710v-710h-202l-307 450q3 -32 3 -104v-346h-171v710h199l309 -448q-2 42 -2 75v373h171z" />
    <glyph glyph-name="O" unicode="O" horiz-adv-x="835" 
d="M795 371q0 -105 -46.5 -193t-126.5 -136q-87 -52 -210 -52q-136 0 -233 72q-139 103 -139 300q0 108 49 187t133 124q88 47 202 47q187 0 289 -117q82 -95 82 -232zM610 360q0 89 -50 147q-54 64 -149 64q-56 0 -97 -23q-89 -51 -89 -177q0 -118 71 -186q50 -47 119 -47
h4q68 0 114 34q37 28 57 78t20 110z" />
    <glyph glyph-name="P" unicode="P" horiz-adv-x="653" 
d="M260 0h-180v710h176q99 0 163 -15.5t112 -55.5q82 -70 82 -183q0 -76 -38.5 -138t-107.5 -89q-63 -25 -145 -19v139q37 0 59 11q49 24 49 81q0 53 -31 81q-42 37 -122 37h-17v-559z" />
    <glyph glyph-name="Q" unicode="Q" horiz-adv-x="836" 
d="M795 372q0 -105 -46.5 -193t-126.5 -136q-28 -17 -56 -27q80 -55 123 -74q93 -41 210 -41l41 1l-8 -124q-48 -8 -91 -8q-167 0 -274 58q-27 15 -55.5 35t-46.5 35t-57 48t-59 50q-96 12 -170 67q-139 103 -139 300q0 108 49 187t133 124q88 47 202 47q187 0 289 -117
q82 -95 82 -232zM610 361q0 89 -50 147q-54 64 -149 64q-56 0 -97 -23q-89 -51 -89 -177q0 -118 71 -186q50 -47 119 -47h4q68 0 114 34q37 28 57 78t20 110z" />
    <glyph glyph-name="R" unicode="R" horiz-adv-x="760" 
d="M748 116l-24 -126q-83 -5 -128 4t-93 46t-112 121l-58 75h-73v-236h-180v710h190q176 0 263 -65q83 -62 83 -172q0 -123 -104 -176l65 -76q52 -61 82.5 -79t88.5 -26zM431 459q0 58 -49 89q-33 21 -107 21h-15v-205q45 -2 65 -2q36 0 57 10q49 24 49 87z" />
    <glyph glyph-name="S" unicode="S" horiz-adv-x="588" 
d="M543 213q0 -39 -14 -75.5t-45 -71t-89.5 -55.5t-137.5 -21q-111 0 -202 37l-3 148q127 -39 198 -39q93 0 93 57q0 13 -3.5 22.5t-20 23.5t-46.5 28l-43 19q-101 44 -139.5 95.5t-37.5 117.5q1 90 71 155.5t203 65.5q104 0 182 -27l-14 -139q-85 24 -151 24
q-52 0 -75.5 -18t-23.5 -45q0 -20 17 -37.5t73 -42.5l43 -19q96 -43 130.5 -91t34.5 -112z" />
    <glyph glyph-name="T" unicode="T" horiz-adv-x="639" 
d="M609 710l-10 -149h-194v-561h-180v561h-190v149h574z" />
    <glyph glyph-name="U" unicode="U" horiz-adv-x="800" 
d="M722 710v-359q0 -102 -21 -169t-71 -114q-86 -79 -233 -79q-181 0 -261 105q-33 43 -45.5 102t-12.5 149v365h180v-376q0 -104 38 -148q38 -43 118 -43q58 0 91 30q45 42 45 151v386h172z" />
    <glyph glyph-name="V" unicode="V" horiz-adv-x="760" 
d="M740 710l-255 -707l-207 -6l-258 713h199l169 -506l174 506h178z" />
    <glyph glyph-name="W" unicode="W" horiz-adv-x="1137" 
d="M1098 710l-208 -707l-218 -6l-106 316l-102 -310l-218 -6l-221 713h192l158 -536l114 359l-59 177h185l168 -523l140 523h175z" />
    <glyph glyph-name="X" unicode="X" horiz-adv-x="753" 
d="M738 0h-233l-145 219l-133 -219h-194l228 353l-246 357h223l155 -228l139 228h194l-233 -362z" />
    <glyph glyph-name="Y" unicode="Y" horiz-adv-x="745" 
d="M457 0h-180v277l-267 433h211l159 -271l164 271h191l-278 -432v-278z" />
    <glyph glyph-name="Z" unicode="Z" horiz-adv-x="648" 
d="M598 146l-10 -146h-540v112l290 449h-271v149h504v-112l-293 -452h320z" />
    <glyph glyph-name="bracketleft" unicode="[" horiz-adv-x="391" 
d="M371 -192l-4 -111h-287v1143h291l-4 -111h-151v-921h155z" />
    <glyph glyph-name="backslash" unicode="\" horiz-adv-x="483" 
d="M387 -265l-407 1087l116 46l407 -1087z" />
    <glyph glyph-name="bracketright" unicode="]" horiz-adv-x="391" 
d="M311 -303h-291l4 111h151v921h-155l4 111h287v-1143z" />
    <glyph glyph-name="asciicircum" unicode="^" horiz-adv-x="472" 
d="M468 233h-135l-98 216l-96 -216h-135l188 402h91z" />
    <glyph glyph-name="underscore" unicode="_" horiz-adv-x="500" 
d="M0 -139v137h500v-137h-500z" />
    <glyph glyph-name="grave" unicode="`" horiz-adv-x="399" 
d="M349 667l-41 -102l-258 115l39 123z" />
    <glyph glyph-name="a" unicode="a" horiz-adv-x="561" 
d="M546 95l-6 -98q-45 -7 -84 -7q-26 0 -42.5 2t-39 15.5t-35.5 39.5q-65 -58 -153 -58q-69 0 -112.5 38.5t-43.5 107.5q0 34 13 62.5t43 55t89 42t142 16.5v5q0 28 -6 41q-15 34 -70 34q-78 0 -164 -37l-12 115q38 23 94 36.5t104 13.5q73 0 116 -17t70 -54q33 -46 33 -153
v-131q0 -19 1 -26t6 -19.5t19 -17.5t38 -6zM317 129v80q-136 5 -136 -56q0 -20 15 -33t47 -13q33 0 74 22z" />
    <glyph glyph-name="b" unicode="b" horiz-adv-x="614" 
d="M576 271q0 -129 -77 -205t-228 -76q-41 0 -105.5 9t-114.5 25q6 48 6 94v650l170 15v-243q0 -50 -6 -88q54 68 148 68q90 0 148.5 -66.5t58.5 -182.5zM403 247q0 65 -25.5 101t-66.5 36q-44 0 -84 -31v-184q0 -24 -2 -40q38 -11 73 -11q49 0 77 34t28 95z" />
    <glyph glyph-name="c" unicode="c" horiz-adv-x="483" 
d="M438 154l-3 -135q-60 -29 -145 -29q-48 0 -91.5 14.5t-80.5 44t-58.5 82t-21.5 120.5q0 74 23.5 129t63 84t82 42.5t89.5 13.5q81 0 133 -21l-14 -133q-53 16 -94 16q-108 0 -108 -114q0 -138 113 -138q45 0 112 24z" />
    <glyph glyph-name="d" unicode="d" horiz-adv-x="615" 
d="M558 7l-152 -13l-10 61q-64 -65 -151 -65q-90 0 -148.5 67.5t-58.5 188.5t75 197t206 76q40 0 69 -6v255l170 15v-776zM388 159v223q-39 9 -67 9q-52 0 -81 -33t-29 -90q0 -69 25.5 -105.5t66.5 -36.5q43 0 85 33z" />
    <glyph glyph-name="e" unicode="e" horiz-adv-x="557" 
d="M507 145l-5 -120q-82 -35 -179 -35q-78 0 -135 21.5t-89 60t-46.5 84.5t-14.5 101q0 117 71 190t189 73q115 0 170 -82.5t28 -221.5h-291q7 -96 144 -96q73 0 158 25zM345 319q3 40 -14.5 63t-52.5 23q-31 0 -52 -22t-21 -67z" />
    <glyph glyph-name="f" unicode="f" horiz-adv-x="392" 
d="M447 775l-13 -127q-41 8 -78 8q-77 0 -91 -58q-6 -28 -6 -80v-20h116l-6 -128h-110v-370h-170v370h-79v118l79 10v20q0 82 18 132q48 139 237 139q61 0 103 -14z" />
    <glyph glyph-name="g" unicode="g" horiz-adv-x="564" 
d="M554 494l-5 -106h-77q16 -25 16 -61q0 -88 -62 -144t-177 -56l-22 1q-3 -8 -3 -16q0 -38 96 -41l52 -2q105 -4 146 -43q31 -29 31 -83q0 -30 -18 -65t-54 -71t-103 -59.5t-153 -23.5q-119 0 -175.5 45t-56.5 98q0 39 27.5 71t89.5 44q-28 27 -28 63q0 64 68 99
q-115 48 -115 181q0 92 65.5 145t165.5 53q78 0 131 -29h161zM334 326q0 43 -20.5 69t-50.5 26q-32 0 -54 -25t-22 -72q0 -43 18 -68t46 -25q36 0 59.5 27.5t23.5 67.5zM395 -106q0 8 -5 13q-11 11 -68 13l-41 2q-82 4 -122 22q-25 -18 -25 -46q0 -25 28 -45.5t91 -20.5
q44 0 78 11.5t49 25.5t15 25z" />
    <glyph glyph-name="h" unicode="h" horiz-adv-x="605" 
d="M550 0h-170v256q0 43 -4 66q-9 55 -62 55q-43 0 -87 -32v-345h-170v768l170 15v-243q0 -58 -5 -88q56 68 156 68q119 0 157 -107q15 -42 15 -151v-262z" />
    <glyph glyph-name="i" unicode="i" horiz-adv-x="284" 
d="M227 0h-170v485l170 15v-500zM240 677q0 -41 -27.5 -67t-71.5 -26q-47 0 -73 26.5t-26 66.5t27.5 66.5t71.5 26.5q46 0 72.5 -26.5t26.5 -66.5z" />
    <glyph glyph-name="j" unicode="j" horiz-adv-x="284" 
d="M227 500v-425q0 -113 -41.5 -188t-144.5 -145l-93 102q68 61 88.5 109.5t20.5 140.5v391zM240 677q0 -41 -27.5 -67t-71.5 -26q-47 0 -73 26.5t-26 66.5t27.5 66.5t71.5 26.5q46 0 72.5 -26.5t26.5 -66.5z" />
    <glyph glyph-name="k" unicode="k" horiz-adv-x="611" 
d="M227 0h-170v768l170 15v-783zM606 0h-205l-165 273l162 237h193l-166 -229z" />
    <glyph glyph-name="l" unicode="l" horiz-adv-x="284" 
d="M227 0h-170v768l170 15v-783z" />
    <glyph glyph-name="m" unicode="m" horiz-adv-x="928" 
d="M873 0h-170v256q0 43 -4 66q-9 55 -62 55q-43 0 -89 -33q2 -26 2 -82v-262h-170v256q0 43 -4 66q-9 55 -62 55q-43 0 -87 -32v-345h-170v503l152 13l5 -73q60 77 164 77q100 0 144 -82q65 82 173 82q125 0 163 -107q15 -42 15 -151v-262z" />
    <glyph glyph-name="n" unicode="n" horiz-adv-x="605" 
d="M550 0h-170v256q0 43 -4 66q-9 55 -62 55q-43 0 -87 -32v-345h-170v503l152 13l5 -73q60 77 164 77q119 0 157 -107q15 -42 15 -151v-262z" />
    <glyph glyph-name="o" unicode="o" horiz-adv-x="613" 
d="M575 267q0 -72 -23.5 -127.5t-63 -87t-86.5 -47t-100 -15.5q-43 0 -86.5 13.5t-84.5 41.5t-67 81t-26 123q0 134 80.5 202.5t196.5 68.5q115 0 187.5 -64t72.5 -189zM402 247q0 72 -27.5 107.5t-71.5 35.5q-14 0 -27.5 -4.5t-29.5 -16.5t-25.5 -40.5t-9.5 -70.5
q0 -70 29 -104t68 -34h4q39 0 64.5 30.5t25.5 96.5z" />
    <glyph glyph-name="p" unicode="p" horiz-adv-x="614" 
d="M576 271q0 -129 -77 -205t-228 -76q-25 0 -44 4v-244h-170v753l152 13l5 -72q59 76 155 76q90 0 148.5 -66.5t58.5 -182.5zM403 247q0 65 -25.5 101t-66.5 36q-44 0 -84 -31v-224q35 -11 71 -11q49 0 77 34t28 95z" />
    <glyph glyph-name="q" unicode="q" horiz-adv-x="615" 
d="M558 -250h-170v216q0 50 5 88q-61 -64 -148 -64q-90 0 -148.5 67.5t-58.5 188.5q0 124 81.5 199.5t230.5 75.5q99 0 208 -28v-743zM388 159v223q-31 10 -59 10q-55 0 -86.5 -32t-31.5 -96q0 -66 25.5 -102t66.5 -36q43 0 85 33z" />
    <glyph glyph-name="r" unicode="r" horiz-adv-x="423" 
d="M400 512l-9 -147q-25 4 -50 4q-69 0 -114 -48v-321h-170v503l152 13l5 -89q20 38 46 59.5t47 26.5t49 5q24 0 44 -6z" />
    <glyph glyph-name="s" unicode="s" horiz-adv-x="465" 
d="M425 163q0 -67 -55.5 -119.5t-167.5 -52.5q-84 0 -151 28l-2 124q78 -26 139 -26q63 0 63 32q0 12 -10.5 21t-44.5 22l-35 13q-116 43 -116 147q0 66 56.5 117t157.5 51q85 0 142 -23l-11 -119q-67 18 -120 18q-29 0 -43.5 -9t-14.5 -22q0 -12 12 -21t48 -22l35 -13
q118 -44 118 -146z" />
    <glyph glyph-name="t" unicode="t" horiz-adv-x="412" 
d="M383 142l-2 -123q-61 -27 -123 -27q-38 0 -67.5 8t-55.5 27.5t-40 58t-14 94.5v190h-71v116l84 12l15 118l142 2v-120h119l-6 -128h-113v-171q0 -38 15 -53.5t46 -15.5q30 0 71 12z" />
    <glyph glyph-name="u" unicode="u" horiz-adv-x="605" 
d="M548 8l-152 -13l-5 73q-60 -77 -164 -77q-119 0 -157 107q-15 42 -15 151v252l170 15v-261q0 -43 4 -66q9 -55 62 -55q43 0 87 32v335l170 15v-508z" />
    <glyph glyph-name="v" unicode="v" horiz-adv-x="583" 
d="M573 510l-181 -507l-213 -6l-174 513h177l83 -266q12 -39 26 -95q13 52 27 94l89 267h166z" />
    <glyph glyph-name="w" unicode="w" horiz-adv-x="895" 
d="M880 510l-156 -507l-205 -6l-75 291l-88 -285l-205 -6l-141 513h177l62 -266q12 -54 18 -91q12 48 26 91l78 266h164l68 -266q5 -22 9.5 -42.5t7 -32.5t2.5 -13q15 61 23 87l74 267h161z" />
    <glyph glyph-name="x" unicode="x" horiz-adv-x="585" 
d="M570 0h-208l-81 140l-89 -140h-187l169 252l-165 258h201l86 -152l91 152h183l-168 -257z" />
    <glyph glyph-name="y" unicode="y" horiz-adv-x="599" 
d="M564 510q-18 -192 -73 -360q-66 -197 -181 -293q-89 -74 -235 -116l-61 136q131 42 187 97q-48 110 -97 244t-74 213l-25 79h191q63 -239 118 -391q20 42 37 101q33 114 47 290h166z" />
    <glyph glyph-name="z" unicode="z" horiz-adv-x="490" 
d="M450 127l-14 -127h-401v113l195 272h-176v125h384v-114l-192 -269h204z" />
    <glyph glyph-name="braceleft" unicode="{" horiz-adv-x="481" 
d="M461 -194v-105q-160 -8 -227 40.5t-67 187.5v127q0 77 -26 108t-101 40l3 113q74 10 99 37t25 94v155q0 139 69.5 190.5t224.5 43.5v-105q-84 0 -115.5 -27t-31.5 -95v-139q0 -95 -24 -136t-91 -63q66 -17 90.5 -58t24.5 -138v-127q0 -81 30.5 -112.5t116.5 -30.5z" />
    <glyph glyph-name="bar" unicode="|" horiz-adv-x="201" 
d="M154 770v-1020h-107v1020h107z" />
    <glyph glyph-name="braceright" unicode="}" horiz-adv-x="481" 
d="M441 334l-3 -113q-74 -10 -99 -37t-25 -94v-155q0 -139 -69.5 -190.5t-224.5 -43.5v105q84 0 115.5 27t31.5 95v139q0 95 24 136t91 63q-66 17 -90.5 58t-24.5 138v127q0 81 -30.5 112.5t-116.5 30.5v105q160 8 227 -40.5t67 -187.5v-127q0 -77 26 -108t101 -40z" />
    <glyph glyph-name="asciitilde" unicode="~" horiz-adv-x="542" 
d="M510 406q-34 -113 -74 -151.5t-87 -38.5q-29 0 -75 18l-18 7q-36 14 -55 14q-40 0 -71 -82l-98 35q34 113 74 151.5t87 38.5q29 0 75 -18l18 -7q33 -13 55 -13q41 0 72 81z" />
    <glyph glyph-name="exclamdown" unicode="&#xa1;" horiz-adv-x="319" 
d="M68 -199l1 110q2 198 22 348h137q20 -150 22 -348l1 -110h-183zM65 428q0 40 26 66.5t69 26.5q42 0 68 -27t26 -69q0 -40 -26 -66.5t-69 -26.5q-42 0 -68 27t-26 69z" />
    <glyph glyph-name="cent" unicode="&#xa2;" horiz-adv-x="580" 
d="M472 154l-3 -135q-47 -22 -107 -27l-4 -109l-68 2l4 105q-48 2 -90 18t-76.5 47t-55 82.5t-20.5 117.5q0 74 24 129.5t64 85.5t83.5 44t90.5 14l4 108l68 -2l-4 -109q53 -7 83 -19l-16 -132q-47 13 -73 14l-9 -258q47 3 105 24zM309 388q-35 -4 -58.5 -32t-23.5 -84
q0 -110 72 -135z" />
    <glyph glyph-name="sterling" unicode="&#xa3;" horiz-adv-x="580" 
d="M546 137l-14 -137h-382q-54 0 -105 -8l-5 115q51 31 70.5 58.5t19.5 63.5q0 21 -10 77h-90v77h73q-8 43 -8 83q0 126 84 189t216 63q68 0 134 -21l-17 -127q-70 14 -118 14q-51 0 -85.5 -30t-34.5 -96q0 -28 9 -75h183v-77h-167q7 -35 7 -57q0 -77 -55 -120q41 8 102 8
h193z" />
    <glyph glyph-name="currency" unicode="&#xa4;" horiz-adv-x="508" 
d="M449 143l-70 -69l-59 57q-31 -17 -75 -17t-77 17l-58 -57l-69 69l58 58q-18 35 -18 76t18 76l-58 58l69 69l58 -58q34 19 77 19q41 0 75 -19l59 58l70 -69l-59 -58q18 -38 18 -76q0 -44 -18 -76zM309 277q0 26 -19 45.5t-45 19.5q-27 0 -46.5 -19.5t-19.5 -45.5
q0 -27 19.5 -46t46.5 -19q26 0 45 19t19 46z" />
    <glyph glyph-name="yen" unicode="&#xa5;" horiz-adv-x="580" 
d="M593 710l-199 -369h167v-65h-186v-83h186v-65h-186v-128h-180v128h-180v65h180v83h-180v65h161l-188 369h201l110 -236l113 236h181z" />
    <glyph glyph-name="brokenbar" unicode="&#xa6;" horiz-adv-x="201" 
d="M154 770v-439h-107v439h107zM154 189v-439h-107v439h107z" />
    <glyph glyph-name="section" unicode="&#xa7;" horiz-adv-x="717" 
d="M660 98q0 -78 -48.5 -143.5t-127.5 -106.5q-94 -49 -217 -49q-77 0 -139 19l17 139q51 -13 87 -13q27 0 45 8q35 16 35 51q0 49 -68 129l-26 30q-78 90 -105 146.5t-27 110.5q0 78 48.5 143.5t127.5 106.5q94 49 217 49q77 0 139 -19l-17 -139q-51 13 -87 13
q-27 0 -45 -8q-35 -16 -35 -51q0 -51 68 -129l26 -30q77 -92 104.5 -148t27.5 -109zM520 83q0 71 -107 198l-25 30q-84 100 -84 166q0 53 36 85q-55 -13 -84.5 -48.5t-29.5 -79.5q0 -71 107 -198l25 -30q84 -100 84 -166q0 -53 -36 -85q55 13 84.5 48.5t29.5 79.5z" />
    <glyph glyph-name="dieresis" unicode="&#xa8;" horiz-adv-x="470" 
d="M211 685q0 -41 -22.5 -63t-59.5 -22q-36 0 -57.5 24t-21.5 61t21.5 59.5t60.5 22.5q38 0 58.5 -22.5t20.5 -59.5zM420 685q0 -41 -22 -63t-60 -22q-36 0 -57.5 24t-21.5 61t21.5 59.5t60.5 22.5q38 0 58.5 -22.5t20.5 -59.5z" />
    <glyph glyph-name="copyright" unicode="&#xa9;" horiz-adv-x="875" 
d="M586 259l-4 -96q-66 -23 -116 -23q-97 0 -151 32q-95 55 -95 180q0 101 68 156t168 55q66 0 120 -15l-9 -98q-58 14 -99 14q-49 0 -82 -26.5t-33 -78.5q0 -58 32 -88.5t91 -30.5q44 0 110 19zM729 347q0 137 -77.5 214.5t-220.5 77.5q-125 0 -204 -74.5t-79 -205.5
q0 -138 77.5 -214.5t220.5 -76.5q126 0 204.5 74t78.5 205zM835 355q0 -115 -57 -202.5t-148.5 -131t-200.5 -43.5q-166 0 -277.5 100.5t-111.5 274.5q0 115 58 201.5t150 129.5t200 43q166 0 276.5 -99t110.5 -273z" />
    <glyph glyph-name="ordfeminine" unicode="&#xaa;" horiz-adv-x="393" 
d="M364 457l-6 -64q-27 -5 -48 -5q-31 0 -48.5 8t-27.5 29q-42 -37 -102 -37q-45 0 -73.5 23t-28.5 65q0 109 189 109v5q0 23 -10.5 33t-42.5 10q-54 0 -111 -25l-8 79q70 33 144 33q136 0 136 -122v-106q0 -16 7 -24.5t30 -10.5zM219 476v47q-91 5 -91 -33q0 -27 42 -27
q25 0 49 13z" />
    <glyph glyph-name="guillemotleft" unicode="&#xab;" horiz-adv-x="611" 
d="M10 262l204 253l107 -88l-131 -160l140 -180l-118 -87zM303 262l184 227l96 -79l-118 -144l126 -162l-106 -78z" />
    <glyph glyph-name="logicalnot" unicode="&#xac;" horiz-adv-x="580" 
d="M529 141h-123v121h-356v118h479v-239z" />
    <glyph glyph-name="registered" unicode="&#xae;" horiz-adv-x="741" 
d="M701 414q0 -147 -96 -232.5t-240 -85.5t-234.5 85.5t-90.5 229.5q0 147 96 232t240 85t234.5 -85t90.5 -229zM610 406q0 115 -59.5 179.5t-180.5 64.5q-111 0 -175 -59t-64 -172q0 -115 59.5 -180t180.5 -65q111 0 175 59t64 173zM542 308l-10 -62q-54 -2 -83.5 12.5
t-71.5 69.5l-28 36h-28v-112h-93v337h106q65 0 111.5 -26t46.5 -87q0 -59 -50 -83l31 -36q23 -27 36 -36.5t33 -12.5zM397 470q0 52 -68 52h-8v-98h29q47 0 47 46z" />
    <glyph glyph-name="macron" unicode="&#xaf;" horiz-adv-x="380" 
d="M330 610h-280v116h280v-116z" />
    <glyph glyph-name="macron" unicode="&#x2c9;" horiz-adv-x="380" 
d="M330 610h-280v116h280v-116z" />
    <glyph glyph-name="degree" unicode="&#xb0;" horiz-adv-x="429" 
d="M399 533q0 -82 -55 -133.5t-134 -51.5q-78 0 -129 51t-51 134t55 135t134 52q78 0 129 -51.5t51 -135.5zM281 532q0 34 -20 55t-47 21t-46.5 -20t-19.5 -54q0 -33 19.5 -54t46.5 -21q28 0 47.5 20t19.5 53z" />
    <glyph glyph-name="plusminus" unicode="&#xb1;" horiz-adv-x="580" 
d="M529 381h-181v-165h-119v165h-179v118h179v165h119v-165h181v-118zM529 12h-479v118h479v-118z" />
    <glyph glyph-name="two.sup" unicode="&#xb2;" horiz-adv-x="390" 
d="M355 498l-9 -98h-302v83l79 77q56 55 73.5 83.5t17.5 49.5q0 24 -20 38.5t-50 14.5q-44 0 -96 -21l-8 90q60 27 127 27q78 0 123 -42.5t45 -98.5q0 -86 -106 -178l-29 -25h155z" />
    <glyph glyph-name="two.sup" unicode="&#x2072;" horiz-adv-x="390" 
d="M355 498l-9 -98h-302v83l79 77q56 55 73.5 83.5t17.5 49.5q0 24 -20 38.5t-50 14.5q-44 0 -96 -21l-8 90q60 27 127 27q78 0 123 -42.5t45 -98.5q0 -86 -106 -178l-29 -25h155z" />
    <glyph glyph-name="three.sup" unicode="&#xb3;" horiz-adv-x="390" 
d="M347 528q0 -53 -47 -93.5t-134 -40.5q-69 0 -123 30v95q67 -33 118 -33q66 0 66 39q0 44 -102 52v80q95 11 95 55q0 16 -15 27.5t-45 11.5q-45 0 -99 -25l-9 89q62 27 128 27q76 0 115.5 -34.5t39.5 -83.5q0 -63 -65 -96q77 -30 77 -100z" />
    <glyph glyph-name="three.sup" unicode="&#x2073;" horiz-adv-x="390" 
d="M347 528q0 -53 -47 -93.5t-134 -40.5q-69 0 -123 30v95q67 -33 118 -33q66 0 66 39q0 44 -102 52v80q95 11 95 55q0 16 -15 27.5t-45 11.5q-45 0 -99 -25l-9 89q62 27 128 27q76 0 115.5 -34.5t39.5 -83.5q0 -63 -65 -96q77 -30 77 -100z" />
    <glyph glyph-name="acute" unicode="&#xb4;" horiz-adv-x="399" 
d="M349 680l-258 -115l-41 102l260 136z" />
    <glyph glyph-name="paragraph" unicode="&#xb6;" horiz-adv-x="679" 
d="M639 166q0 -373 -419 -373q-101 0 -168 23l-12 151q74 -24 126 -24q117 0 117 150v155q-80 -2 -138 24q-53 22 -84 74.5t-31 122.5q0 80 37 139t102 83q53 19 145 19h109v-621q0 -93 -48 -138q55 9 89.5 53.5t34.5 125.5v580h140v-544z" />
    <glyph glyph-name="periodcentered" unicode="&#xb7;" horiz-adv-x="276" 
d="M236 317q0 -42 -27 -69t-72 -27q-43 0 -70 28t-27 72q0 42 27 69t72 27q43 0 70 -28t27 -72z" />
    <glyph glyph-name="periodcentered" unicode="&#x2219;" horiz-adv-x="276" 
d="M236 317q0 -42 -27 -69t-72 -27q-43 0 -70 28t-27 72q0 42 27 69t72 27q43 0 70 -28t27 -72z" />
    <glyph glyph-name="cedilla" unicode="&#xb8;" horiz-adv-x="316" 
d="M266 -156q0 -45 -35.5 -77t-92.5 -32q-52 0 -88 18v81q35 -12 66 -12q38 0 38 28q0 38 -91 44l16 68q100 1 143.5 -35t43.5 -83z" />
    <glyph glyph-name="one.sup" unicode="&#xb9;" horiz-adv-x="307" 
d="M237 400h-114v340l-91 -7l-7 94l111 13h101v-440z" />
    <glyph glyph-name="one.sup" unicode="&#x2071;" horiz-adv-x="307" 
d="M237 400h-114v340l-91 -7l-7 94l111 13h101v-440z" />
    <glyph glyph-name="ordmasculine" unicode="&#xba;" horiz-adv-x="409" 
d="M381 561q0 -86 -52.5 -128.5t-126.5 -42.5q-29 0 -57.5 8.5t-55.5 25.5t-44 50t-17 77q0 84 53 126.5t129 42.5t123.5 -40t47.5 -119zM268 550q0 43 -18.5 64.5t-47.5 21.5q-61 0 -61 -80q0 -43 19.5 -63t45.5 -20h2q26 0 43 18t17 59z" />
    <glyph glyph-name="guillemotright" unicode="&#xbb;" horiz-adv-x="611" 
d="M601 253l-204 -253l-107 88l131 160l-140 180l118 87zM308 253l-184 -227l-96 79l118 144l-126 162l106 78z" />
    <glyph glyph-name="onequarter" unicode="&#xbc;" horiz-adv-x="840" 
d="M235 300h-114v340l-91 -7l-7 94l111 13h101v-440zM799 177l-7 -94h-43v-83h-113v83h-192v82l187 271h118v-259h50zM637 295l-80 -118h79v89zM603 731l-356 -774l-61 29l356 774z" />
    <glyph glyph-name="onehalf" unicode="&#xbd;" horiz-adv-x="840" 
d="M235 300h-114v340l-91 -7l-7 94l111 13h101v-440zM854 98l-9 -98h-302v83l79 77q56 55 73.5 83.5t17.5 49.5q0 24 -20 38.5t-50 14.5q-43 0 -96 -21l-8 90q60 27 127 27q78 0 123 -42.5t45 -98.5q0 -86 -106 -178l-29 -25h155zM605 731l-356 -774l-61 29l356 774z" />
    <glyph glyph-name="threequarters" unicode="&#xbe;" horiz-adv-x="840" 
d="M329 428q0 -53 -47 -93.5t-134 -40.5q-69 0 -123 30v95q67 -33 118 -33q66 0 66 39q0 44 -102 52v80q95 11 95 55q0 16 -15 27.5t-45 11.5q-45 0 -99 -25l-9 89q62 27 128 27q76 0 115.5 -34.5t39.5 -83.5q0 -63 -65 -96q77 -30 77 -100zM799 177l-7 -94h-43v-83h-113v83
h-192v82l187 271h118v-259h50zM637 295l-80 -118h79v89zM627 731l-356 -774l-61 29l356 774z" />
    <glyph glyph-name="questiondown" unicode="&#xbf;" horiz-adv-x="436" 
d="M28 -48q0 95 74 153l23 18q41 32 41 71q0 16 -5 41l137 36q42 -66 42 -114q0 -63 -71 -118l-23 -18q-35 -28 -35 -50q0 -20 18.5 -32t48.5 -12q48 0 94 14l17 -135q-77 -20 -154 -20q-101 0 -154 51.5t-53 114.5zM144 423q0 40 26 66.5t69 26.5q42 0 68 -27t26 -69
q0 -40 -26 -66.5t-69 -26.5q-42 0 -68 27t-26 69z" />
    <glyph glyph-name="Agrave" unicode="&#xc0;" horiz-adv-x="773" 
d="M743 0h-201l-45 133h-248l-41 -133h-178l244 707l208 6zM520 872l-26 -107l-272 78l22 127zM451 268l-55 164q-23 65 -29 88q-14 -54 -24 -88l-52 -164h160z" />
    <glyph glyph-name="Aacute" unicode="&#xc1;" horiz-adv-x="773" 
d="M743 0h-201l-45 133h-248l-41 -133h-178l244 707l208 6zM547 843l-272 -78l-26 107l276 98zM451 268l-55 164q-23 65 -29 88q-14 -54 -24 -88l-52 -164h160z" />
    <glyph glyph-name="Acircumflex" unicode="&#xc2;" horiz-adv-x="773" 
d="M743 0h-201l-45 133h-248l-41 -133h-178l244 707l208 6zM577 852l-81 -92l-121 91l-112 -90l-74 80l191 151zM451 268l-55 164q-23 65 -29 88q-14 -54 -24 -88l-52 -164h160z" />
    <glyph glyph-name="Atilde" unicode="&#xc3;" horiz-adv-x="773" 
d="M743 0h-201l-45 133h-248l-41 -133h-178l244 707l208 6zM580 937q-13 -50 -30 -82.5t-37 -47t-36 -19t-37 -4.5q-29 0 -72 16l-8 3q-26 10 -43 10q-10 0 -17.5 -2.5t-18 -16t-19.5 -37.5l-91 23q13 50 30 82.5t37 47t36 19t37 4.5q29 0 72 -16l8 -3q26 -10 43 -10
q10 0 17.5 2.5t18 16t19.5 37.5zM451 268l-55 164q-23 65 -29 88q-14 -54 -24 -88l-52 -164h160z" />
    <glyph glyph-name="Adieresis" unicode="&#xc4;" horiz-adv-x="773" 
d="M743 0h-201l-45 133h-248l-41 -133h-178l244 707l208 6zM565 867q0 -41 -22.5 -63t-59.5 -22q-36 0 -57.5 24t-21.5 61t21.5 59.5t60.5 22.5q38 0 58.5 -22.5t20.5 -59.5zM356 867q0 -41 -22 -63t-60 -22q-36 0 -57.5 24t-21.5 61t21.5 59.5t60.5 22.5q38 0 58.5 -22.5
t20.5 -59.5zM451 268l-55 164q-23 65 -29 88q-14 -54 -24 -88l-52 -164h160z" />
    <glyph glyph-name="Aring" unicode="&#xc5;" horiz-adv-x="773" 
d="M743 0h-201l-45 133h-248l-41 -133h-178l244 707l208 6zM543 865q0 -62 -48 -99.5t-118 -37.5q-74 0 -117 34.5t-43 96.5t48 99.5t118 37.5q74 0 117 -34.5t43 -96.5zM451 268l-55 164q-23 65 -29 88q-14 -54 -24 -88l-52 -164h160zM432 860q0 60 -54 60q-22 0 -36 -15
t-14 -41q0 -60 54 -60q22 0 36 15t14 41z" />
    <glyph glyph-name="AE" unicode="&#xc6;" horiz-adv-x="999" 
d="M934 149l-10 -149h-434v133h-214l-68 -133h-198l390 710h505v-148h-235v-133h222v-144h-222v-136h264zM490 268v294q-14 -37 -41 -90l-104 -204h145z" />
    <glyph glyph-name="Ccedilla" unicode="&#xc7;" horiz-adv-x="719" 
d="M649 178l-7 -149q-108 -39 -206 -39q-135 0 -226 50q-80 44 -125 126.5t-45 187.5q0 191 137 291q101 75 265 75q99 0 193 -30l-15 -146q-100 27 -180 27q-98 0 -153 -48q-62 -54 -62 -155t60 -164t161 -63q75 0 203 37zM514 -153q0 -53 -36.5 -87.5t-99.5 -34.5
q-44 0 -73 13l-1 95q34 -11 59 -11q39 0 39 27q0 8 -7 16t-31 16.5t-62 10.5l19 74q102 2 147.5 -35.5t45.5 -83.5z" />
    <glyph glyph-name="Egrave" unicode="&#xc8;" horiz-adv-x="589" 
d="M524 149l-10 -149h-434v710h415v-148h-235v-133h222v-144h-222v-136h264zM394 872l-26 -107l-272 78l22 127z" />
    <glyph glyph-name="Eacute" unicode="&#xc9;" horiz-adv-x="589" 
d="M524 149l-10 -149h-434v710h415v-148h-235v-133h222v-144h-222v-136h264zM476 843l-272 -78l-26 107l276 98z" />
    <glyph glyph-name="Ecircumflex" unicode="&#xca;" horiz-adv-x="589" 
d="M524 149l-10 -149h-434v710h415v-148h-235v-133h222v-144h-222v-136h264zM491 852l-81 -92l-121 91l-112 -90l-74 80l191 151z" />
    <glyph glyph-name="Edieresis" unicode="&#xcb;" horiz-adv-x="589" 
d="M524 149l-10 -149h-434v710h415v-148h-235v-133h222v-144h-222v-136h264zM270 867q0 -41 -22 -63t-60 -22q-36 0 -57.5 24t-21.5 61t21.5 59.5t60.5 22.5q38 0 58.5 -22.5t20.5 -59.5zM479 867q0 -41 -22.5 -63t-59.5 -22q-36 0 -57.5 24t-21.5 61t21.5 59.5t60.5 22.5
q38 0 58.5 -22.5t20.5 -59.5z" />
    <glyph glyph-name="Igrave" unicode="&#xcc;" horiz-adv-x="340" 
d="M260 0h-180v710h180v-710zM310 872l-26 -107l-272 78l22 127z" />
    <glyph glyph-name="Iacute" unicode="&#xcd;" horiz-adv-x="340" 
d="M260 0h-180v710h180v-710zM337 843l-272 -78l-26 107l276 98z" />
    <glyph glyph-name="Icircumflex" unicode="&#xce;" horiz-adv-x="340" 
d="M260 0h-180v710h180v-710zM367 852l-81 -92l-121 91l-112 -90l-74 80l191 151z" />
    <glyph glyph-name="Idieresis" unicode="&#xcf;" horiz-adv-x="340" 
d="M260 0h-180v710h180v-710zM146 867q0 -41 -22 -63t-60 -22q-36 0 -57.5 24t-21.5 61t21.5 59.5t60.5 22.5q38 0 58.5 -22.5t20.5 -59.5zM355 867q0 -41 -22.5 -63t-59.5 -22q-36 0 -57.5 24t-21.5 61t21.5 59.5t60.5 22.5q38 0 58.5 -22.5t20.5 -59.5z" />
    <glyph glyph-name="Eth" unicode="&#xd0;" horiz-adv-x="786" 
d="M746 360q0 -188 -147 -290q-102 -71 -264 -71q-137 0 -255 1v298h-80v108h80v304q75 1 210 1q206 0 326 -86q130 -92 130 -265zM561 348q0 107 -79 165q-69 51 -191 51q-17 0 -31 -1v-157h158v-108h-158v-151q40 -1 71 -1q105 0 161 45q69 55 69 157z" />
    <glyph glyph-name="Ntilde" unicode="&#xd1;" horiz-adv-x="837" 
d="M757 710v-710h-202l-307 450q3 -32 3 -104v-346h-171v710h199l309 -448q-2 42 -2 75v373h171zM618 937q-13 -50 -30 -82.5t-37 -47t-36 -19t-37 -4.5q-29 0 -72 16l-8 3q-26 10 -43 10q-10 0 -17.5 -2.5t-18 -16t-19.5 -37.5l-91 23q13 50 30 82.5t37 47t36 19t37 4.5
q29 0 72 -16l8 -3q26 -10 43 -10q10 0 17.5 2.5t18 16t19.5 37.5z" />
    <glyph glyph-name="Ograve" unicode="&#xd2;" horiz-adv-x="835" 
d="M795 371q0 -105 -46.5 -193t-126.5 -136q-87 -52 -210 -52q-136 0 -233 72q-139 103 -139 300q0 108 49 187t133 124q88 47 202 47q187 0 289 -117q82 -95 82 -232zM610 360q0 89 -50 147q-54 64 -149 64q-56 0 -97 -23q-89 -51 -89 -177q0 -118 71 -186q50 -47 119 -47
h4q68 0 114 34q37 28 57 78t20 110zM557 872l-26 -107l-272 78l22 127z" />
    <glyph glyph-name="Oacute" unicode="&#xd3;" horiz-adv-x="835" 
d="M795 371q0 -105 -46.5 -193t-126.5 -136q-87 -52 -210 -52q-136 0 -233 72q-139 103 -139 300q0 108 49 187t133 124q88 47 202 47q187 0 289 -117q82 -95 82 -232zM610 360q0 89 -50 147q-54 64 -149 64q-56 0 -97 -23q-89 -51 -89 -177q0 -118 71 -186q50 -47 119 -47
h4q68 0 114 34q37 28 57 78t20 110zM584 843l-272 -78l-26 107l276 98z" />
    <glyph glyph-name="Ocircumflex" unicode="&#xd4;" horiz-adv-x="835" 
d="M795 371q0 -105 -46.5 -193t-126.5 -136q-87 -52 -210 -52q-136 0 -233 72q-139 103 -139 300q0 108 49 187t133 124q88 47 202 47q187 0 289 -117q82 -95 82 -232zM610 360q0 89 -50 147q-54 64 -149 64q-56 0 -97 -23q-89 -51 -89 -177q0 -118 71 -186q50 -47 119 -47
h4q68 0 114 34q37 28 57 78t20 110zM614 852l-81 -92l-121 91l-112 -90l-74 80l191 151z" />
    <glyph glyph-name="Otilde" unicode="&#xd5;" horiz-adv-x="835" 
d="M795 371q0 -105 -46.5 -193t-126.5 -136q-87 -52 -210 -52q-136 0 -233 72q-139 103 -139 300q0 108 49 187t133 124q88 47 202 47q187 0 289 -117q82 -95 82 -232zM610 360q0 89 -50 147q-54 64 -149 64q-56 0 -97 -23q-89 -51 -89 -177q0 -118 71 -186q50 -47 119 -47
h4q68 0 114 34q37 28 57 78t20 110zM617 937q-13 -50 -30 -82.5t-37 -47t-36 -19t-37 -4.5q-29 0 -72 16l-8 3q-26 10 -43 10q-10 0 -17.5 -2.5t-18 -16t-19.5 -37.5l-91 23q13 50 30 82.5t37 47t36 19t37 4.5q29 0 72 -16l8 -3q26 -10 43 -10q10 0 17.5 2.5t18 16
t19.5 37.5z" />
    <glyph glyph-name="Odieresis" unicode="&#xd6;" horiz-adv-x="835" 
d="M795 371q0 -105 -46.5 -193t-126.5 -136q-87 -52 -210 -52q-136 0 -233 72q-139 103 -139 300q0 108 49 187t133 124q88 47 202 47q187 0 289 -117q82 -95 82 -232zM610 360q0 89 -50 147q-54 64 -149 64q-56 0 -97 -23q-89 -51 -89 -177q0 -118 71 -186q50 -47 119 -47
h4q68 0 114 34q37 28 57 78t20 110zM393 867q0 -41 -22.5 -63t-59.5 -22q-36 0 -57.5 24t-21.5 61t21.5 59.5t60.5 22.5q38 0 58.5 -22.5t20.5 -59.5zM602 867q0 -41 -22 -63t-60 -22q-36 0 -57.5 24t-21.5 61t21.5 59.5t60.5 22.5q38 0 58.5 -22.5t20.5 -59.5z" />
    <glyph glyph-name="multiply" unicode="&#xd7;" horiz-adv-x="580" 
d="M448 36l-158 157l-157 -157l-83 83l157 157l-157 158l83 83l157 -158l158 158l83 -83l-158 -158l158 -157z" />
    <glyph glyph-name="Oslash" unicode="&#xd8;" horiz-adv-x="835" 
d="M795 371q1 -104 -45.5 -192t-127.5 -137q-87 -52 -210 -52q-80 0 -145 24l-67 -108l-102 60l67 106q-125 103 -125 290q0 108 49 187t133 124q88 47 202 47q77 0 137 -20l71 115l101 -60l-67 -107q126 -96 129 -277zM476 563q-30 10 -65 10q-55 0 -98 -24
q-88 -50 -88 -178q0 -82 37 -146zM610 360q0 82 -40 138l-220 -349q32 -13 65 -13h4q68 0 114 34q37 28 57 79t20 111z" />
    <glyph glyph-name="Ugrave" unicode="&#xd9;" horiz-adv-x="800" 
d="M722 710v-359q0 -102 -21 -169t-71 -114q-86 -79 -233 -79q-181 0 -261 105q-33 43 -45.5 102t-12.5 149v365h180v-376q0 -104 38 -148q38 -43 118 -43q58 0 91 30q45 42 45 151v386h172zM540 872l-26 -107l-272 78l22 127z" />
    <glyph glyph-name="Uacute" unicode="&#xda;" horiz-adv-x="800" 
d="M722 710v-359q0 -102 -21 -169t-71 -114q-86 -79 -233 -79q-181 0 -261 105q-33 43 -45.5 102t-12.5 149v365h180v-376q0 -104 38 -148q38 -43 118 -43q58 0 91 30q45 42 45 151v386h172zM567 843l-272 -78l-26 107l276 98z" />
    <glyph glyph-name="Ucircumflex" unicode="&#xdb;" horiz-adv-x="800" 
d="M722 710v-359q0 -102 -21 -169t-71 -114q-86 -79 -233 -79q-181 0 -261 105q-33 43 -45.5 102t-12.5 149v365h180v-376q0 -104 38 -148q38 -43 118 -43q58 0 91 30q45 42 45 151v386h172zM597 852l-81 -92l-121 91l-112 -90l-74 80l191 151z" />
    <glyph glyph-name="Udieresis" unicode="&#xdc;" horiz-adv-x="800" 
d="M722 710v-359q0 -102 -21 -169t-71 -114q-86 -79 -233 -79q-181 0 -261 105q-33 43 -45.5 102t-12.5 149v365h180v-376q0 -104 38 -148q38 -43 118 -43q58 0 91 30q45 42 45 151v386h172zM376 867q0 -41 -22 -63t-60 -22q-36 0 -57.5 24t-21.5 61t21.5 59.5t60.5 22.5
q38 0 58.5 -22.5t20.5 -59.5zM585 867q0 -41 -22.5 -63t-59.5 -22q-36 0 -57.5 24t-21.5 61t21.5 59.5t60.5 22.5q38 0 58.5 -22.5t20.5 -59.5z" />
    <glyph glyph-name="Yacute" unicode="&#xdd;" horiz-adv-x="745" 
d="M457 0h-180v277l-267 433h211l159 -271l164 271h191l-278 -432v-278zM530 843l-272 -78l-26 107l276 98z" />
    <glyph glyph-name="Thorn" unicode="&#xde;" horiz-adv-x="653" 
d="M613 356q0 -76 -38.5 -138t-107.5 -89q-63 -25 -145 -19v139q37 0 59 11q49 24 49 81q0 53 -33 83q-40 35 -120 35h-17v-459h-180v710h180v-100h15q86 0 146.5 -15t107.5 -54q84 -72 84 -185z" />
    <glyph glyph-name="germandbls" unicode="&#xdf;" horiz-adv-x="757" 
d="M721 163q0 -67 -55.5 -119t-167.5 -52q-84 0 -151 28l-2 124q78 -26 139 -26q63 0 63 32q0 11 -11 20.5t-44 23.5l-23 10q-107 47 -107 138q0 39 20 74.5t44 58t44 53t20 59.5q0 31 -26.5 53.5t-77.5 22.5q-52 0 -82 -25t-39 -60q-6 -23 -6 -78v-500h-170v370h-79v118
l79 10v2q0 79 18 129q26 76 94 118t198 42q125 0 193.5 -50t68.5 -124q0 -39 -13.5 -71.5t-32 -54.5t-37.5 -40.5t-32.5 -37t-13.5 -36.5q0 -33 48 -54l23 -10q118 -51 118 -148z" />
    <glyph glyph-name="agrave" unicode="&#xe0;" horiz-adv-x="561" 
d="M546 95l-6 -98q-45 -7 -84 -7q-26 0 -42.5 2t-39 15.5t-35.5 39.5q-65 -58 -153 -58q-69 0 -112.5 38.5t-43.5 107.5q0 34 13 62.5t43 55t89 42t142 16.5v5q0 28 -6 41q-15 34 -70 34q-78 0 -164 -37l-12 115q38 23 94 36.5t104 13.5q73 0 116 -17t70 -54q33 -46 33 -153
v-131q0 -19 1 -26t6 -19.5t19 -17.5t38 -6zM317 129v80q-136 5 -136 -56q0 -20 15 -33t47 -13q33 0 74 22zM376 667l-41 -102l-258 115l39 123z" />
    <glyph glyph-name="aacute" unicode="&#xe1;" horiz-adv-x="561" 
d="M546 95l-6 -98q-45 -7 -84 -7q-26 0 -42.5 2t-39 15.5t-35.5 39.5q-65 -58 -153 -58q-69 0 -112.5 38.5t-43.5 107.5q0 34 13 62.5t43 55t89 42t142 16.5v5q0 28 -6 41q-15 34 -70 34q-78 0 -164 -37l-12 115q38 23 94 36.5t104 13.5q73 0 116 -17t70 -54q33 -46 33 -153
v-131q0 -19 1 -26t6 -19.5t19 -17.5t38 -6zM317 129v80q-136 5 -136 -56q0 -20 15 -33t47 -13q33 0 74 22zM433 680l-258 -115l-41 102l260 136z" />
    <glyph glyph-name="acircumflex" unicode="&#xe2;" horiz-adv-x="561" 
d="M546 95l-6 -98q-45 -7 -84 -7q-26 0 -42.5 2t-39 15.5t-35.5 39.5q-65 -58 -153 -58q-69 0 -112.5 38.5t-43.5 107.5q0 34 13 62.5t43 55t89 42t142 16.5v5q0 28 -6 41q-15 34 -70 34q-78 0 -164 -37l-12 115q38 23 94 36.5t104 13.5q73 0 116 -17t70 -54q33 -46 33 -153
v-131q0 -19 1 -26t6 -19.5t19 -17.5t38 -6zM317 129v80q-136 5 -136 -56q0 -20 15 -33t47 -13q33 0 74 22zM446 655l-89 -84l-107 90l-104 -90l-75 78l191 162z" />
    <glyph glyph-name="atilde" unicode="&#xe3;" horiz-adv-x="561" 
d="M546 95l-6 -98q-45 -7 -84 -7q-26 0 -42.5 2t-39 15.5t-35.5 39.5q-65 -58 -153 -58q-69 0 -112.5 38.5t-43.5 107.5q0 34 13 62.5t43 55t89 42t142 16.5v5q0 28 -6 41q-15 34 -70 34q-78 0 -164 -37l-12 115q38 23 94 36.5t104 13.5q73 0 116 -17t70 -54q33 -46 33 -153
v-131q0 -19 1 -26t6 -19.5t19 -17.5t38 -6zM317 129v80q-136 5 -136 -56q0 -20 15 -33t47 -13q33 0 74 22zM454 768q-13 -50 -30 -82.5t-37 -47t-36 -19t-37 -4.5q-29 0 -72 16l-8 3q-26 10 -43 10q-10 0 -17.5 -2.5t-18 -16t-19.5 -37.5l-91 23q13 50 30 82.5t37 47t36 19
t37 4.5q29 0 72 -16l8 -3q26 -10 43 -10q10 0 17.5 2.5t18 16t19.5 37.5z" />
    <glyph glyph-name="adieresis" unicode="&#xe4;" horiz-adv-x="561" 
d="M546 95l-6 -98q-45 -7 -84 -7q-26 0 -42.5 2t-39 15.5t-35.5 39.5q-65 -58 -153 -58q-69 0 -112.5 38.5t-43.5 107.5q0 34 13 62.5t43 55t89 42t142 16.5v5q0 28 -6 41q-15 34 -70 34q-78 0 -164 -37l-12 115q38 23 94 36.5t104 13.5q73 0 116 -17t70 -54q33 -46 33 -153
v-131q0 -19 1 -26t6 -19.5t19 -17.5t38 -6zM317 129v80q-136 5 -136 -56q0 -20 15 -33t47 -13q33 0 74 22zM228 685q0 -41 -22 -63t-60 -22q-36 0 -57.5 24t-21.5 61t21.5 59.5t60.5 22.5q38 0 58.5 -22.5t20.5 -59.5zM437 685q0 -41 -22.5 -63t-59.5 -22q-36 0 -57.5 24
t-21.5 61t21.5 59.5t60.5 22.5q38 0 58.5 -22.5t20.5 -59.5z" />
    <glyph glyph-name="aring" unicode="&#xe5;" horiz-adv-x="561" 
d="M546 95l-6 -98q-45 -7 -84 -7q-26 0 -42.5 2t-39 15.5t-35.5 39.5q-65 -58 -153 -58q-69 0 -112.5 38.5t-43.5 107.5q0 34 13 62.5t43 55t89 42t142 16.5v5q0 28 -6 41q-15 34 -70 34q-78 0 -164 -37l-12 115q38 23 94 36.5t104 13.5q73 0 116 -17t70 -54q33 -46 33 -153
v-131q0 -19 1 -26t6 -19.5t19 -17.5t38 -6zM317 129v80q-136 5 -136 -56q0 -20 15 -33t47 -13q33 0 74 22zM412 698q0 -63 -47 -104t-116 -41q-72 0 -114.5 38t-42.5 101t47 104t116 41q72 0 114.5 -38t42.5 -101zM301 693q0 66 -51 66q-19 0 -33 -15.5t-14 -46.5
q0 -66 51 -66q19 0 33 15.5t14 46.5z" />
    <glyph glyph-name="ae" unicode="&#xe6;" horiz-adv-x="833" 
d="M783 145l-5 -120q-82 -35 -179 -35q-141 0 -211 68q-95 -69 -202 -69q-69 0 -112.5 38.5t-43.5 107.5q0 34 13 62.5t43 55t89 42t142 16.5v5q0 28 -6 41q-15 34 -70 34q-78 0 -164 -37l-12 115q38 23 94 36.5t104 13.5q61 0 97 -10.5t60 -37.5q59 49 154 49
q115 0 170 -82.5t28 -221.5h-291q7 -96 144 -96q73 0 158 25zM334 141q-12 29 -17 68q-136 5 -136 -56q0 -20 15 -33t47 -13q45 0 91 34zM621 319q3 40 -14.5 63t-52.5 23q-31 0 -52 -22t-21 -67z" />
    <glyph glyph-name="ccedilla" unicode="&#xe7;" horiz-adv-x="483" 
d="M438 154l-3 -135q-60 -29 -145 -29q-48 0 -91.5 14.5t-80.5 44t-58.5 82t-21.5 120.5q0 74 23.5 129t63 84t82 42.5t89.5 13.5q81 0 133 -21l-14 -133q-53 16 -94 16q-108 0 -108 -114q0 -138 113 -138q45 0 112 24zM398 -156q0 -45 -35.5 -77t-92.5 -32q-52 0 -88 18v81
q35 -12 66 -12q38 0 38 28q0 38 -91 44l16 68q100 1 143.5 -35t43.5 -83z" />
    <glyph glyph-name="egrave" unicode="&#xe8;" horiz-adv-x="557" 
d="M507 145l-5 -120q-82 -35 -179 -35q-78 0 -135 21.5t-89 60t-46.5 84.5t-14.5 101q0 117 71 190t189 73q115 0 170 -82.5t28 -221.5h-291q7 -96 144 -96q73 0 158 25zM345 319q3 40 -14.5 63t-52.5 23q-31 0 -52 -22t-21 -67zM418 667l-41 -102l-258 115l39 123z" />
    <glyph glyph-name="eacute" unicode="&#xe9;" horiz-adv-x="557" 
d="M507 145l-5 -120q-82 -35 -179 -35q-78 0 -135 21.5t-89 60t-46.5 84.5t-14.5 101q0 117 71 190t189 73q115 0 170 -82.5t28 -221.5h-291q7 -96 144 -96q73 0 158 25zM345 319q3 40 -14.5 63t-52.5 23q-31 0 -52 -22t-21 -67zM455 680l-258 -115l-41 102l260 136z" />
    <glyph glyph-name="ecircumflex" unicode="&#xea;" horiz-adv-x="557" 
d="M507 145l-5 -120q-82 -35 -179 -35q-78 0 -135 21.5t-89 60t-46.5 84.5t-14.5 101q0 117 71 190t189 73q115 0 170 -82.5t28 -221.5h-291q7 -96 144 -96q73 0 158 25zM345 319q3 40 -14.5 63t-52.5 23q-31 0 -52 -22t-21 -67zM478 655l-89 -84l-107 90l-104 -90l-75 78
l191 162z" />
    <glyph glyph-name="edieresis" unicode="&#xeb;" horiz-adv-x="557" 
d="M507 145l-5 -120q-82 -35 -179 -35q-78 0 -135 21.5t-89 60t-46.5 84.5t-14.5 101q0 117 71 190t189 73q115 0 170 -82.5t28 -221.5h-291q7 -96 144 -96q73 0 158 25zM345 319q3 40 -14.5 63t-52.5 23q-31 0 -52 -22t-21 -67zM260 685q0 -41 -22 -63t-60 -22
q-36 0 -57.5 24t-21.5 61t21.5 59.5t60.5 22.5q38 0 58.5 -22.5t20.5 -59.5zM469 685q0 -41 -22.5 -63t-59.5 -22q-36 0 -57.5 24t-21.5 61t21.5 59.5t60.5 22.5q38 0 58.5 -22.5t20.5 -59.5z" />
    <glyph glyph-name="igrave" unicode="&#xec;" horiz-adv-x="284" 
d="M285 636l-61 -91l-229 166l64 112zM227 0h-170v485l170 15v-500z" />
    <glyph glyph-name="iacute" unicode="&#xed;" horiz-adv-x="284" 
d="M291 711l-229 -166l-61 91l226 187zM227 0h-170v485l170 15v-500z" />
    <glyph glyph-name="icircumflex" unicode="&#xee;" horiz-adv-x="284" 
d="M227 0h-170v485l170 15v-500zM336 655l-89 -84l-107 90l-104 -90l-75 78l191 162z" />
    <glyph glyph-name="idieresis" unicode="&#xef;" horiz-adv-x="284" 
d="M227 0h-170v485l170 15v-500zM118 685q0 -41 -22 -63t-60 -22q-36 0 -57.5 24t-21.5 61t21.5 59.5t60.5 22.5q38 0 58.5 -22.5t20.5 -59.5zM327 685q0 -41 -22.5 -63t-59.5 -22q-36 0 -57.5 24t-21.5 61t21.5 59.5t60.5 22.5q38 0 58.5 -22.5t20.5 -59.5z" />
    <glyph glyph-name="eth" unicode="&#xf0;" horiz-adv-x="606" 
d="M483 728l-59 -42q66 -57 103 -141t37 -183q0 -187 -80.5 -281t-211.5 -94q-115 0 -176.5 66.5t-61.5 166.5q0 72 30.5 130t84.5 93q61 40 151 40q30 0 71 -8q-22 82 -70 124l-101 -71l-62 73l71 50q-54 18 -126 21l18 117q137 3 238 -47l83 58zM389 333q0 22 -1 35
q-33 8 -61 8q-48 0 -79 -25q-46 -40 -46 -114q0 -63 28 -94.5t61 -31.5q35 0 56 25q42 49 42 197z" />
    <glyph glyph-name="ntilde" unicode="&#xf1;" horiz-adv-x="605" 
d="M550 0h-170v256q0 43 -4 66q-9 55 -62 55q-43 0 -87 -32v-345h-170v503l152 13l5 -73q60 77 164 77q119 0 157 -107q15 -42 15 -151v-262zM505 768q-13 -50 -30 -82.5t-37 -47t-36 -19t-37 -4.5q-29 0 -72 16l-8 3q-26 10 -43 10q-10 0 -17.5 -2.5t-18 -16t-19.5 -37.5
l-91 23q13 50 30 82.5t37 47t36 19t37 4.5q29 0 72 -16l8 -3q26 -10 43 -10q10 0 17.5 2.5t18 16t19.5 37.5z" />
    <glyph glyph-name="ograve" unicode="&#xf2;" horiz-adv-x="613" 
d="M575 267q0 -72 -23.5 -127.5t-63 -87t-86.5 -47t-100 -15.5q-43 0 -86.5 13.5t-84.5 41.5t-67 81t-26 123q0 134 80.5 202.5t196.5 68.5q115 0 187.5 -64t72.5 -189zM402 247q0 72 -27.5 107.5t-71.5 35.5q-14 0 -27.5 -4.5t-29.5 -16.5t-25.5 -40.5t-9.5 -70.5
q0 -70 29 -104t68 -34h4q39 0 64.5 30.5t25.5 96.5zM440 667l-41 -102l-258 115l39 123z" />
    <glyph glyph-name="oacute" unicode="&#xf3;" horiz-adv-x="613" 
d="M575 267q0 -72 -23.5 -127.5t-63 -87t-86.5 -47t-100 -15.5q-43 0 -86.5 13.5t-84.5 41.5t-67 81t-26 123q0 134 80.5 202.5t196.5 68.5q115 0 187.5 -64t72.5 -189zM402 247q0 72 -27.5 107.5t-71.5 35.5q-14 0 -27.5 -4.5t-29.5 -16.5t-25.5 -40.5t-9.5 -70.5
q0 -70 29 -104t68 -34h4q39 0 64.5 30.5t25.5 96.5zM477 680l-258 -115l-41 102l260 136z" />
    <glyph glyph-name="ocircumflex" unicode="&#xf4;" horiz-adv-x="613" 
d="M575 267q0 -72 -23.5 -127.5t-63 -87t-86.5 -47t-100 -15.5q-43 0 -86.5 13.5t-84.5 41.5t-67 81t-26 123q0 134 80.5 202.5t196.5 68.5q115 0 187.5 -64t72.5 -189zM402 247q0 72 -27.5 107.5t-71.5 35.5q-14 0 -27.5 -4.5t-29.5 -16.5t-25.5 -40.5t-9.5 -70.5
q0 -70 29 -104t68 -34h4q39 0 64.5 30.5t25.5 96.5zM500 655l-89 -84l-107 90l-104 -90l-75 78l191 162z" />
    <glyph glyph-name="otilde" unicode="&#xf5;" horiz-adv-x="613" 
d="M575 267q0 -72 -23.5 -127.5t-63 -87t-86.5 -47t-100 -15.5q-43 0 -86.5 13.5t-84.5 41.5t-67 81t-26 123q0 134 80.5 202.5t196.5 68.5q115 0 187.5 -64t72.5 -189zM402 247q0 72 -27.5 107.5t-71.5 35.5q-14 0 -27.5 -4.5t-29.5 -16.5t-25.5 -40.5t-9.5 -70.5
q0 -70 29 -104t68 -34h4q39 0 64.5 30.5t25.5 96.5zM508 768q-13 -50 -30 -82.5t-37 -47t-36 -19t-37 -4.5q-29 0 -72 16l-8 3q-26 10 -43 10q-10 0 -17.5 -2.5t-18 -16t-19.5 -37.5l-91 23q13 50 30 82.5t37 47t36 19t37 4.5q29 0 72 -16l8 -3q26 -10 43 -10q10 0 17.5 2.5
t18 16t19.5 37.5z" />
    <glyph glyph-name="odieresis" unicode="&#xf6;" horiz-adv-x="613" 
d="M575 267q0 -72 -23.5 -127.5t-63 -87t-86.5 -47t-100 -15.5q-43 0 -86.5 13.5t-84.5 41.5t-67 81t-26 123q0 134 80.5 202.5t196.5 68.5q115 0 187.5 -64t72.5 -189zM402 247q0 72 -27.5 107.5t-71.5 35.5q-14 0 -27.5 -4.5t-29.5 -16.5t-25.5 -40.5t-9.5 -70.5
q0 -70 29 -104t68 -34h4q39 0 64.5 30.5t25.5 96.5zM282 685q0 -41 -22 -63t-60 -22q-36 0 -57.5 24t-21.5 61t21.5 59.5t60.5 22.5q38 0 58.5 -22.5t20.5 -59.5zM491 685q0 -41 -22.5 -63t-59.5 -22q-36 0 -57.5 24t-21.5 61t21.5 59.5t60.5 22.5q38 0 58.5 -22.5
t20.5 -59.5z" />
    <glyph glyph-name="divide" unicode="&#xf7;" horiz-adv-x="580" 
d="M364 480q0 -32 -21 -53.5t-55 -21.5q-32 0 -53 22t-21 55q0 32 21 53.5t55 21.5q32 0 53 -22t21 -55zM364 89q0 -32 -21 -53t-55 -21q-32 0 -53 21.5t-21 55.5q0 32 21 53.5t55 21.5q32 0 53 -22t21 -56zM529 227h-479v118h479v-118z" />
    <glyph glyph-name="oslash" unicode="&#xf8;" horiz-adv-x="613" 
d="M575 267q0 -72 -23.5 -127.5t-63 -87t-86.5 -47t-100 -15.5q-60 0 -120 25l-71 -96l-74 52l70 94q-69 69 -69 184q0 134 80.5 202.5t196.5 68.5q66 0 115 -20l81 109l74 -52l-78 -105q68 -68 68 -185zM345 383q-17 9 -42 9q-14 0 -27.5 -4.5t-30 -17t-26.5 -41.5t-10 -71
q0 -26 5 -51zM404 247q0 31 -7 61l-132 -178q19 -12 43 -12h4q39 0 65.5 31.5t26.5 97.5z" />
    <glyph glyph-name="ugrave" unicode="&#xf9;" horiz-adv-x="605" 
d="M548 8l-152 -13l-5 73q-60 -77 -164 -77q-119 0 -157 107q-15 42 -15 151v252l170 15v-261q0 -43 4 -66q9 -55 62 -55q43 0 87 32v335l170 15v-508zM417 667l-41 -102l-258 115l39 123z" />
    <glyph glyph-name="uacute" unicode="&#xfa;" horiz-adv-x="605" 
d="M548 8l-152 -13l-5 73q-60 -77 -164 -77q-119 0 -157 107q-15 42 -15 151v252l170 15v-261q0 -43 4 -66q9 -55 62 -55q43 0 87 32v335l170 15v-508zM494 680l-258 -115l-41 102l260 136z" />
    <glyph glyph-name="ucircumflex" unicode="&#xfb;" horiz-adv-x="605" 
d="M548 8l-152 -13l-5 73q-60 -77 -164 -77q-119 0 -157 107q-15 42 -15 151v252l170 15v-261q0 -43 4 -66q9 -55 62 -55q43 0 87 32v335l170 15v-508zM497 655l-89 -84l-107 90l-104 -90l-75 78l191 162z" />
    <glyph glyph-name="udieresis" unicode="&#xfc;" horiz-adv-x="605" 
d="M548 8l-152 -13l-5 73q-60 -77 -164 -77q-119 0 -157 107q-15 42 -15 151v252l170 15v-261q0 -43 4 -66q9 -55 62 -55q43 0 87 32v335l170 15v-508zM279 685q0 -41 -22.5 -63t-59.5 -22q-36 0 -57.5 24t-21.5 61t21.5 59.5t60.5 22.5q38 0 58.5 -22.5t20.5 -59.5z
M488 685q0 -41 -22 -63t-60 -22q-36 0 -57.5 24t-21.5 61t21.5 59.5t60.5 22.5q38 0 58.5 -22.5t20.5 -59.5z" />
    <glyph glyph-name="yacute" unicode="&#xfd;" horiz-adv-x="599" 
d="M564 510q-18 -192 -73 -360q-66 -197 -181 -293q-89 -74 -235 -116l-61 136q131 42 187 97q-48 110 -97 244t-74 213l-25 79h191q63 -239 118 -391q20 42 37 101q33 114 47 290h166zM476 680l-258 -115l-41 102l260 136z" />
    <glyph glyph-name="thorn" unicode="&#xfe;" horiz-adv-x="614" 
d="M576 271q0 -129 -77 -205t-228 -76q-25 0 -44 4v-244h-170v1018l170 15v-247q0 -25 -3.5 -48t-6.5 -34l-3 -10q59 76 155 76q90 0 148.5 -66.5t58.5 -182.5zM403 247q0 65 -25.5 101t-66.5 36q-44 0 -84 -31v-224q35 -11 71 -11q49 0 77 34t28 95z" />
    <glyph glyph-name="ydieresis" unicode="&#xff;" horiz-adv-x="599" 
d="M564 510q-18 -192 -73 -360q-66 -197 -181 -293q-89 -74 -235 -116l-61 136q131 42 187 97q-48 110 -97 244t-74 213l-25 79h191q63 -239 118 -391q20 42 37 101q33 114 47 290h166zM271 685q0 -41 -22.5 -63t-59.5 -22q-36 0 -57.5 24t-21.5 61t21.5 59.5t60.5 22.5
q38 0 58.5 -22.5t20.5 -59.5zM480 685q0 -41 -22 -63t-60 -22q-36 0 -57.5 24t-21.5 61t21.5 59.5t60.5 22.5q38 0 58.5 -22.5t20.5 -59.5z" />
    <glyph glyph-name="uni0100" unicode="&#x100;" horiz-adv-x="773" 
d="M743 0h-201l-45 133h-248l-41 -133h-178l244 707l208 6zM522 786h-284v118h284v-118zM451 268l-55 164q-23 65 -29 88q-14 -54 -24 -88l-52 -164h160z" />
    <glyph glyph-name="uni0101" unicode="&#x101;" horiz-adv-x="561" 
d="M546 95l-6 -98q-45 -7 -84 -7q-26 0 -42.5 2t-39 15.5t-35.5 39.5q-65 -58 -153 -58q-69 0 -112.5 38.5t-43.5 107.5q0 34 13 62.5t43 55t89 42t142 16.5v5q0 28 -6 41q-15 34 -70 34q-78 0 -164 -37l-12 115q38 23 94 36.5t104 13.5q73 0 116 -17t70 -54q33 -46 33 -153
v-131q0 -19 1 -26t6 -19.5t19 -17.5t38 -6zM317 129v80q-136 5 -136 -56q0 -20 15 -33t47 -13q33 0 74 22zM392 610h-280v116h280v-116z" />
    <glyph glyph-name="uni0102" unicode="&#x102;" horiz-adv-x="773" 
d="M743 0h-201l-45 133h-248l-41 -133h-178l244 707l208 6zM448 966l116 -10q-8 -89 -60.5 -137t-129.5 -48q-97 0 -147 64q-38 49 -38 119l131 12l4 -26q12 -56 58 -56q55 0 66 82zM451 268l-55 164q-23 65 -29 88q-14 -54 -24 -88l-52 -164h160z" />
    <glyph glyph-name="uni0103" unicode="&#x103;" horiz-adv-x="561" 
d="M546 95l-6 -98q-45 -7 -84 -7q-26 0 -42.5 2t-39 15.5t-35.5 39.5q-65 -58 -153 -58q-69 0 -112.5 38.5t-43.5 107.5q0 34 13 62.5t43 55t89 42t142 16.5v5q0 28 -6 41q-15 34 -70 34q-78 0 -164 -37l-12 115q38 23 94 36.5t104 13.5q73 0 116 -17t70 -54q33 -46 33 -153
v-131q0 -19 1 -26t6 -19.5t19 -17.5t38 -6zM317 129v80q-136 5 -136 -56q0 -20 15 -33t47 -13q33 0 74 22zM328 790l115 -8q-6 -96 -58.5 -146.5t-130.5 -50.5q-97 0 -142 68q-34 52 -36 127l122 11q3 -24 4 -29q6 -32 23.5 -46.5t36.5 -14.5q58 0 66 89z" />
    <glyph glyph-name="uni0104" unicode="&#x104;" horiz-adv-x="773" 
d="M743 0h-5q-30 0 -67 -13.5t-63 -38.5q-27 -27 -27 -51q0 -15 11.5 -28t35.5 -13q22 0 59 12v-93q-48 -26 -105 -26q-62 0 -97 34t-35 78q0 66 92 139l-45 133h-248l-41 -133h-178l244 707l208 6zM451 268l-55 164l-29 88q-14 -54 -24 -88l-52 -164h160z" />
    <glyph glyph-name="uni0105" unicode="&#x105;" horiz-adv-x="561" 
d="M546 95l-6 -98q-98 -54 -98 -100q0 -15 11.5 -28t35.5 -13q22 0 59 12v-93q-48 -26 -105 -26q-62 0 -97 34t-35 78q0 80 89 135q-40 10 -61 51q-65 -58 -153 -58q-69 0 -112.5 38.5t-43.5 107.5q0 34 13 62.5t43 55t89 42t142 16.5v5q0 28 -6 41q-15 34 -70 34
q-78 0 -164 -37l-12 115q38 23 94 36.5t104 13.5q73 0 116 -17t70 -54q33 -46 33 -153v-131q0 -19 1 -26t6 -19.5t19 -17.5t38 -6zM317 129v80q-136 5 -136 -56q0 -20 15 -33t47 -13q33 0 74 22z" />
    <glyph glyph-name="uni0106" unicode="&#x106;" horiz-adv-x="719" 
d="M649 178l-7 -149q-108 -39 -206 -39q-135 0 -226 50q-80 44 -125 126.5t-45 187.5q0 191 137 291q101 75 265 75q99 0 193 -30l-15 -146q-100 27 -180 27q-98 0 -153 -48q-62 -54 -62 -155t60 -164t161 -63q75 0 203 37zM592 843l-272 -78l-26 107l276 98z" />
    <glyph glyph-name="uni0107" unicode="&#x107;" horiz-adv-x="483" 
d="M438 154l-3 -135q-60 -29 -145 -29q-48 0 -91.5 14.5t-80.5 44t-58.5 82t-21.5 120.5q0 74 23.5 129t63 84t82 42.5t89.5 13.5q81 0 133 -21l-14 -133q-53 16 -94 16q-108 0 -108 -114q0 -138 113 -138q45 0 112 24zM439 680l-258 -115l-41 102l260 136z" />
    <glyph glyph-name="uni0108" unicode="&#x108;" horiz-adv-x="719" 
d="M649 178l-7 -149q-108 -39 -206 -39q-135 0 -226 50q-80 44 -125 126.5t-45 187.5q0 191 137 291q101 75 265 75q99 0 193 -30l-15 -146q-100 27 -180 27q-98 0 -153 -48q-62 -54 -62 -155t60 -164t161 -63q75 0 203 37zM602 852l-81 -92l-121 91l-112 -90l-74 80
l191 151z" />
    <glyph glyph-name="uni0109" unicode="&#x109;" horiz-adv-x="483" 
d="M438 154l-3 -135q-60 -29 -145 -29q-48 0 -91.5 14.5t-80.5 44t-58.5 82t-21.5 120.5q0 74 23.5 129t63 84t82 42.5t89.5 13.5q81 0 133 -21l-14 -133q-53 16 -94 16q-108 0 -108 -114q0 -138 113 -138q45 0 112 24zM472 655l-89 -84l-107 90l-104 -90l-75 78l191 162z
" />
    <glyph glyph-name="uni010A" unicode="&#x10a;" horiz-adv-x="719" 
d="M649 178l-7 -149q-108 -39 -206 -39q-135 0 -226 50q-80 44 -125 126.5t-45 187.5q0 191 137 291q101 75 265 75q99 0 193 -30l-15 -146q-100 27 -180 27q-98 0 -153 -48q-62 -54 -62 -155t60 -164t161 -63q75 0 203 37zM505 858q0 -40 -27 -64t-72 -24q-48 0 -73.5 24
t-25.5 64t27 64t72 24q46 0 72.5 -24.5t26.5 -63.5z" />
    <glyph glyph-name="uni010B" unicode="&#x10b;" horiz-adv-x="483" 
d="M438 154l-3 -135q-60 -29 -145 -29q-48 0 -91.5 14.5t-80.5 44t-58.5 82t-21.5 120.5q0 74 23.5 129t63 84t82 42.5t89.5 13.5q81 0 133 -21l-14 -133q-53 16 -94 16q-108 0 -108 -114q0 -138 113 -138q45 0 112 24zM377 683q0 -41 -27.5 -67t-71.5 -26q-47 0 -73 26.5
t-26 66.5t27.5 66.5t71.5 26.5q46 0 72.5 -26.5t26.5 -66.5z" />
    <glyph glyph-name="uni010C" unicode="&#x10c;" horiz-adv-x="719" 
d="M649 178l-7 -149q-108 -39 -206 -39q-135 0 -226 50q-80 44 -125 126.5t-45 187.5q0 191 137 291q101 75 265 75q99 0 193 -30l-15 -146q-100 27 -180 27q-98 0 -153 -48q-62 -54 -62 -155t60 -164t161 -63q75 0 203 37zM594 903l-191 -151l-197 140l81 92l120 -91
l113 90z" />
    <glyph glyph-name="uni010D" unicode="&#x10d;" horiz-adv-x="483" 
d="M438 154l-3 -135q-60 -29 -145 -29q-48 0 -91.5 14.5t-80.5 44t-58.5 82t-21.5 120.5q0 74 23.5 129t63 84t82 42.5t89.5 13.5q81 0 133 -21l-14 -133q-53 16 -94 16q-108 0 -108 -114q0 -138 113 -138q45 0 112 24zM89 717l89 84l106 -91l105 91l75 -78l-191 -162z" />
    <glyph glyph-name="uni010E" unicode="&#x10e;" horiz-adv-x="786" 
d="M746 360q0 -188 -147 -290q-102 -71 -264 -71q-137 0 -255 1v710q75 1 210 1q206 0 326 -86q130 -92 130 -265zM561 348q0 107 -79 165q-69 51 -191 51q-17 0 -31 -1v-416q40 -1 71 -1q105 0 161 45q69 55 69 157zM542 903l-191 -151l-197 140l81 92l120 -91l113 90z" />
    <glyph glyph-name="uni010F" unicode="&#x10f;" horiz-adv-x="844" 
d="M558 7l-152 -13l-10 61q-64 -65 -151 -65q-90 0 -148.5 67.5t-58.5 188.5t75 197t206 76q40 0 69 -6v255l170 15v-776zM388 159v223q-39 9 -67 9q-52 0 -81 -33t-29 -90q0 -69 25.5 -105.5t66.5 -36.5q43 0 85 33zM834 651q0 -107 -150 -238l-87 58q49 56 67.5 96.5
t15 57.5t-16.5 34q-8 10 -17 18t-14 11l-5 2q10 40 38 60.5t59 20.5q32 0 60 -18q50 -32 50 -102z" />
    <glyph glyph-name="uni0110" unicode="&#x110;" horiz-adv-x="786" 
d="M746 360q0 -188 -147 -290q-102 -71 -264 -71q-137 0 -255 1v298h-80v108h80v304q75 1 210 1q206 0 326 -86q130 -92 130 -265zM561 348q0 107 -79 165q-69 51 -191 51q-17 0 -31 -1v-157h158v-108h-158v-151q40 -1 71 -1q105 0 161 45q69 55 69 157z" />
    <glyph glyph-name="uni0111" unicode="&#x111;" horiz-adv-x="615" 
d="M558 7l-152 -13l-10 61q-64 -65 -151 -65q-90 0 -148.5 67.5t-58.5 188.5t75 197t206 76q40 0 69 -6v69h-114v117h114v69l170 15v-84h62v-117h-62v-575zM388 159v223q-39 9 -67 9q-52 0 -81 -33t-29 -90q0 -69 25.5 -105.5t66.5 -36.5q43 0 85 33z" />
    <glyph glyph-name="uni0112" unicode="&#x112;" horiz-adv-x="589" 
d="M524 149l-10 -149h-434v710h415v-148h-235v-133h222v-144h-222v-136h264zM436 786h-284v118h284v-118z" />
    <glyph glyph-name="uni0113" unicode="&#x113;" horiz-adv-x="557" 
d="M507 145l-5 -120q-82 -35 -179 -35q-78 0 -135 21.5t-89 60t-46.5 84.5t-14.5 101q0 117 71 190t189 73q115 0 170 -82.5t28 -221.5h-291q7 -96 144 -96q73 0 158 25zM345 319q3 40 -14.5 63t-52.5 23q-31 0 -52 -22t-21 -67zM424 610h-280v116h280v-116z" />
    <glyph glyph-name="uni0114" unicode="&#x114;" horiz-adv-x="589" 
d="M524 149l-10 -149h-434v710h415v-148h-235v-133h222v-144h-222v-136h264zM362 966l116 -10q-8 -89 -60.5 -137t-129.5 -48q-97 0 -147 64q-38 49 -38 119l131 12l4 -26q12 -56 58 -56q55 0 66 82z" />
    <glyph glyph-name="uni0115" unicode="&#x115;" horiz-adv-x="557" 
d="M507 145l-5 -120q-82 -35 -179 -35q-78 0 -135 21.5t-89 60t-46.5 84.5t-14.5 101q0 117 71 190t189 73q115 0 170 -82.5t28 -221.5h-291q7 -96 144 -96q73 0 158 25zM345 319q3 40 -14.5 63t-52.5 23q-31 0 -52 -22t-21 -67zM360 790l115 -8q-6 -96 -58.5 -146.5
t-130.5 -50.5q-97 0 -142 68q-34 52 -36 127l122 11q3 -24 4 -29q6 -32 23.5 -46.5t36.5 -14.5q58 0 66 89z" />
    <glyph glyph-name="uni0116" unicode="&#x116;" horiz-adv-x="589" 
d="M524 149l-10 -149h-434v710h415v-148h-235v-133h222v-144h-222v-136h264zM394 858q0 -40 -27 -64t-72 -24q-48 0 -73.5 24t-25.5 64t27 64t72 24q46 0 72.5 -24.5t26.5 -63.5z" />
    <glyph glyph-name="uni0117" unicode="&#x117;" horiz-adv-x="557" 
d="M507 145l-5 -120q-82 -35 -179 -35q-78 0 -135 21.5t-89 60t-46.5 84.5t-14.5 101q0 117 71 190t189 73q115 0 170 -82.5t28 -221.5h-291q7 -96 144 -96q73 0 158 25zM345 319q3 40 -14.5 63t-52.5 23q-31 0 -52 -22t-21 -67zM383 683q0 -41 -27.5 -67t-71.5 -26
q-47 0 -73 26.5t-26 66.5t27.5 66.5t71.5 26.5q46 0 72.5 -26.5t26.5 -66.5z" />
    <glyph glyph-name="uni0118" unicode="&#x118;" horiz-adv-x="589" 
d="M524 149l-10 -149q-95 -57 -95 -103q0 -15 11.5 -28t35.5 -13q22 0 59 12v-93q-48 -26 -105 -26q-62 0 -97 34t-35 78q0 83 97 139h-305v710h415v-148h-235v-133h222v-144h-222v-136h264z" />
    <glyph glyph-name="uni0119" unicode="&#x119;" horiz-adv-x="557" 
d="M507 145l-5 -120q-79 -49 -83 -52q-46 -35 -46 -76q0 -15 11.5 -28t35.5 -13q22 0 59 12v-93q-48 -26 -105 -26q-62 0 -97 34t-35 78q0 77 84 129h-3q-78 0 -135 21.5t-89 60t-46.5 84.5t-14.5 101q0 117 71 190t189 73q115 0 170 -82.5t28 -221.5h-291q7 -96 144 -96
q73 0 158 25zM345 319q3 40 -14.5 63t-52.5 23q-31 0 -52 -22t-21 -67z" />
    <glyph glyph-name="uni011A" unicode="&#x11a;" horiz-adv-x="589" 
d="M524 149l-10 -149h-434v710h415v-148h-235v-133h222v-144h-222v-136h264zM483 903l-191 -151l-197 140l81 92l120 -91l113 90z" />
    <glyph glyph-name="uni011B" unicode="&#x11b;" horiz-adv-x="557" 
d="M507 145l-5 -120q-82 -35 -179 -35q-78 0 -135 21.5t-89 60t-46.5 84.5t-14.5 101q0 117 71 190t189 73q115 0 170 -82.5t28 -221.5h-291q7 -96 144 -96q73 0 158 25zM345 319q3 40 -14.5 63t-52.5 23q-31 0 -52 -22t-21 -67zM95 717l89 84l106 -91l105 91l75 -78
l-191 -162z" />
    <glyph glyph-name="uni011C" unicode="&#x11c;" horiz-adv-x="765" 
d="M690 23q-136 -33 -246 -33q-138 0 -231 51q-81 44 -127 127t-46 190q0 188 137 288q100 74 268 74q113 0 215 -32l-16 -146q-108 29 -199 29q-103 0 -158 -47q-62 -54 -62 -156q0 -103 60 -166.5t169 -63.5q18 0 55 5v198h180v-228zM604 852l-81 -92l-121 91l-112 -90
l-74 80l191 151z" />
    <glyph glyph-name="uni011D" unicode="&#x11d;" horiz-adv-x="564" 
d="M554 494l-5 -106h-77q16 -25 16 -61q0 -88 -62 -144t-177 -56l-22 1q-3 -8 -3 -16q0 -38 96 -41l52 -2q105 -4 146 -43q31 -29 31 -83q0 -30 -18 -65t-54 -71t-103 -59.5t-153 -23.5q-119 0 -175.5 45t-56.5 98q0 39 27.5 71t89.5 44q-28 27 -28 63q0 64 68 99
q-115 48 -115 181q0 92 65.5 145t165.5 53q78 0 131 -29h161zM334 326q0 43 -20.5 69t-50.5 26q-32 0 -54 -25t-22 -72q0 -43 18 -68t46 -25q36 0 59.5 27.5t23.5 67.5zM395 -106q0 8 -5 13q-11 11 -68 13l-41 2q-82 4 -122 22q-25 -18 -25 -46q0 -25 28 -45.5t91 -20.5
q44 0 78 11.5t49 25.5t15 25zM450 655l-89 -84l-107 90l-104 -90l-75 78l191 162z" />
    <glyph glyph-name="uni011E" unicode="&#x11e;" horiz-adv-x="765" 
d="M690 23q-136 -33 -246 -33q-138 0 -231 51q-81 44 -127 127t-46 190q0 188 137 288q100 74 268 74q113 0 215 -32l-16 -146q-108 29 -199 29q-103 0 -158 -47q-62 -54 -62 -156q0 -103 60 -166.5t169 -63.5q18 0 55 5v198h180v-228zM475 966l116 -10q-8 -89 -60.5 -137
t-129.5 -48q-97 0 -147 64q-38 49 -38 119l131 12l4 -26q12 -56 58 -56q55 0 66 82z" />
    <glyph glyph-name="uni011F" unicode="&#x11f;" horiz-adv-x="564" 
d="M554 494l-5 -106h-77q16 -25 16 -61q0 -88 -62 -144t-177 -56l-22 1q-3 -8 -3 -16q0 -38 96 -41l52 -2q105 -4 146 -43q31 -29 31 -83q0 -30 -18 -65t-54 -71t-103 -59.5t-153 -23.5q-119 0 -175.5 45t-56.5 98q0 39 27.5 71t89.5 44q-28 27 -28 63q0 64 68 99
q-115 48 -115 181q0 92 65.5 145t165.5 53q78 0 131 -29h161zM334 326q0 43 -20.5 69t-50.5 26q-32 0 -54 -25t-22 -72q0 -43 18 -68t46 -25q36 0 59.5 27.5t23.5 67.5zM395 -106q0 8 -5 13q-11 11 -68 13l-41 2q-82 4 -122 22q-25 -18 -25 -46q0 -25 28 -45.5t91 -20.5
q44 0 78 11.5t49 25.5t15 25zM332 790l115 -8q-6 -96 -58.5 -146.5t-130.5 -50.5q-97 0 -142 68q-34 52 -36 127l122 11q3 -24 4 -29q6 -32 23.5 -46.5t36.5 -14.5q58 0 66 89z" />
    <glyph glyph-name="uni0120" unicode="&#x120;" horiz-adv-x="765" 
d="M690 23q-136 -33 -246 -33q-138 0 -231 51q-81 44 -127 127t-46 190q0 188 137 288q100 74 268 74q113 0 215 -32l-16 -146q-108 29 -199 29q-103 0 -158 -47q-62 -54 -62 -156q0 -103 60 -166.5t169 -63.5q18 0 55 5v198h180v-228zM507 858q0 -40 -27 -64t-72 -24
q-48 0 -73.5 24t-25.5 64t27 64t72 24q46 0 72.5 -24.5t26.5 -63.5z" />
    <glyph glyph-name="uni0121" unicode="&#x121;" horiz-adv-x="564" 
d="M554 494l-5 -106h-77q16 -25 16 -61q0 -88 -62 -144t-177 -56l-22 1q-3 -8 -3 -16q0 -38 96 -41l52 -2q105 -4 146 -43q31 -29 31 -83q0 -30 -18 -65t-54 -71t-103 -59.5t-153 -23.5q-119 0 -175.5 45t-56.5 98q0 39 27.5 71t89.5 44q-28 27 -28 63q0 64 68 99
q-115 48 -115 181q0 92 65.5 145t165.5 53q78 0 131 -29h161zM334 326q0 43 -20.5 69t-50.5 26q-32 0 -54 -25t-22 -72q0 -43 18 -68t46 -25q36 0 59.5 27.5t23.5 67.5zM395 -106q0 8 -5 13q-11 11 -68 13l-41 2q-82 4 -122 22q-25 -18 -25 -46q0 -25 28 -45.5t91 -20.5
q44 0 78 11.5t49 25.5t15 25zM355 683q0 -41 -27.5 -67t-71.5 -26q-47 0 -73 26.5t-26 66.5t27.5 66.5t71.5 26.5q46 0 72.5 -26.5t26.5 -66.5z" />
    <glyph glyph-name="uni0122" unicode="&#x122;" horiz-adv-x="765" 
d="M690 23q-136 -33 -246 -33q-138 0 -231 51q-81 44 -127 127t-46 190q0 188 137 288q100 74 268 74q113 0 215 -32l-16 -146q-108 29 -199 29q-103 0 -158 -47q-62 -54 -62 -156q0 -103 60 -166.5t169 -63.5q18 0 55 5v198h180v-228zM510 -123q0 -71 -115 -169l-82 52
q80 76 54 118q-4 7 -12 15.5t-13 13.5l-6 5q33 51 86 51q33 0 58 -19q30 -24 30 -67z" />
    <glyph glyph-name="uni0123" unicode="&#x123;" horiz-adv-x="564" 
d="M554 494l-5 -106h-77q16 -25 16 -61q0 -88 -62 -144t-177 -56l-22 1q-3 -8 -3 -16q0 -38 96 -41l52 -2q105 -4 146 -43q31 -29 31 -83q0 -30 -18 -65t-54 -71t-103 -59.5t-153 -23.5q-119 0 -175.5 45t-56.5 98q0 39 27.5 71t89.5 44q-28 27 -28 63q0 64 68 99
q-115 48 -115 181q0 92 65.5 145t165.5 53q78 0 131 -29h161zM334 326q0 43 -20.5 69t-50.5 26q-32 0 -54 -25t-22 -72q0 -43 18 -68t46 -25q36 0 59.5 27.5t23.5 67.5zM395 -106q0 8 -5 13q-11 11 -68 13l-41 2q-82 4 -122 22q-25 -18 -25 -46q0 -25 28 -45.5t91 -20.5
q44 0 78 11.5t49 25.5t15 25zM186 661q0 75 110 165l77 -45q-76 -76 -52 -121q4 -8 10.5 -15.5t10.5 -11.5l5 -4q-31 -51 -80 -51q-32 0 -55 21q-26 23 -26 62z" />
    <glyph glyph-name="uni0124" unicode="&#x124;" horiz-adv-x="806" 
d="M726 0h-180v276h-286v-276h-180v710h180v-278h286v278h180v-710zM600 852l-81 -92l-121 91l-112 -90l-74 80l191 151z" />
    <glyph glyph-name="uni0125" unicode="&#x125;" horiz-adv-x="605" 
d="M550 0h-170v256q0 43 -4 66q-9 55 -62 55q-43 0 -87 -32v-345h-170v768l170 15v-243q0 -58 -5 -88q56 68 156 68q119 0 157 -107q15 -42 15 -151v-262zM360 892l-73 -105l-146 76l-124 -82l-69 88l200 135z" />
    <glyph glyph-name="Hbar" unicode="&#x126;" horiz-adv-x="806" 
d="M806 487h-80v-487h-180v256h-286v-256h-180v487h-80v108h80v115h180v-115h286v115h180v-115h80v-108zM546 407v80h-286v-80h286z" />
    <glyph glyph-name="hbar" unicode="&#x127;" horiz-adv-x="605" 
d="M550 0h-170v256q0 43 -4 66q-9 55 -62 55q-43 0 -87 -32v-345h-170v582h-63v117h63v69l170 15v-84h109v-117h-109v-42q0 -58 -5 -88q56 68 156 68q119 0 157 -107q15 -42 15 -151v-262z" />
    <glyph glyph-name="uni0128" unicode="&#x128;" horiz-adv-x="340" 
d="M260 0h-180v710h180v-710zM370 937q-13 -50 -30 -82.5t-37 -47t-36 -19t-37 -4.5q-29 0 -72 16l-8 3q-26 10 -43 10q-10 0 -17.5 -2.5t-18 -16t-19.5 -37.5l-91 23q13 50 30 82.5t37 47t36 19t37 4.5q29 0 72 -16l8 -3q26 -10 43 -10q10 0 17.5 2.5t18 16t19.5 37.5z" />
    <glyph glyph-name="uni0129" unicode="&#x129;" horiz-adv-x="284" 
d="M344 768q-13 -50 -30 -82.5t-37 -47t-36 -19t-37 -4.5q-29 0 -72 16l-8 3q-26 10 -43 10q-10 0 -17.5 -2.5t-18 -16t-19.5 -37.5l-91 23q13 50 30 82.5t37 47t36 19t37 4.5q29 0 72 -16l8 -3q26 -10 43 -10q10 0 17.5 2.5t18 16t19.5 37.5zM227 0h-170v485l170 15v-500z
" />
    <glyph glyph-name="uni012A" unicode="&#x12a;" horiz-adv-x="340" 
d="M260 0h-180v710h180v-710zM312 786h-284v118h284v-118z" />
    <glyph glyph-name="uni012B" unicode="&#x12b;" horiz-adv-x="284" 
d="M227 0h-170v485l170 15v-500zM282 610h-280v116h280v-116z" />
    <glyph glyph-name="uni012C" unicode="&#x12c;" horiz-adv-x="340" 
d="M260 0h-180v710h180v-710zM238 966l116 -10q-8 -89 -60.5 -137t-129.5 -48q-97 0 -147 64q-38 49 -38 119l131 12l4 -26q12 -56 58 -56q55 0 66 82z" />
    <glyph glyph-name="uni012D" unicode="&#x12d;" horiz-adv-x="284" 
d="M227 0h-170v485l170 15v-500zM218 790l115 -8q-6 -96 -58.5 -146.5t-130.5 -50.5q-97 0 -142 68q-34 52 -36 127l122 11q3 -24 4 -29q6 -32 23.5 -46.5t36.5 -14.5q58 0 66 89z" />
    <glyph glyph-name="uni012E" unicode="&#x12e;" horiz-adv-x="340" 
d="M260 710v-710q-95 -57 -95 -103q0 -15 11.5 -28t35.5 -13q22 0 59 12v-93q-48 -26 -105 -26q-62 0 -97 34t-35 78q0 83 97 139h-51v710h180z" />
    <glyph glyph-name="uni012F" unicode="&#x12f;" horiz-adv-x="284" 
d="M227 0q-95 -57 -95 -103q0 -15 11.5 -28t35.5 -13q22 0 59 12v-93q-48 -26 -105 -26q-62 0 -97 34t-35 78q0 83 97 139h-41v485l170 15v-500zM240 677q0 -41 -27.5 -67t-71.5 -26q-47 0 -73 26.5t-26 66.5t27.5 66.5t71.5 26.5q46 0 72.5 -26.5t26.5 -66.5z" />
    <glyph glyph-name="uni0130" unicode="&#x130;" horiz-adv-x="340" 
d="M260 0h-180v710h180v-710zM270 858q0 -40 -27 -64t-72 -24q-48 0 -73.5 24t-25.5 64t27 64t72 24q46 0 72.5 -24.5t26.5 -63.5z" />
    <glyph glyph-name="dotlessi" unicode="&#x131;" horiz-adv-x="284" 
d="M227 0h-170v485l170 15v-500z" />
    <glyph glyph-name="uni0134" unicode="&#x134;" horiz-adv-x="346" 
d="M266 710v-626q0 -140 -58 -218t-177 -125l-68 122q74 44 98.5 86.5t24.5 130.5v630h180zM371 852l-81 -92l-121 91l-112 -90l-74 80l191 151z" />
    <glyph glyph-name="uni0135" unicode="&#x135;" horiz-adv-x="284" 
d="M227 500v-425q0 -113 -41.5 -188t-144.5 -145l-93 102q68 61 88.5 109.5t20.5 140.5v391zM334 655l-89 -84l-107 90l-104 -90l-75 78l191 162z" />
    <glyph glyph-name="uni0136" unicode="&#x136;" horiz-adv-x="786" 
d="M260 0h-180v710h180v-710zM761 0h-231l-201 284q-38 53 -53 70l274 356h208l-274 -336zM471 -123q0 -71 -115 -169l-82 52q80 76 54 118q-4 7 -12 15.5t-14 13.5l-5 5q33 51 86 51q33 0 58 -19q30 -24 30 -67z" />
    <glyph glyph-name="uni0137" unicode="&#x137;" horiz-adv-x="611" 
d="M227 0h-170v768l170 15v-783zM606 0h-205l-165 273l162 237h193l-166 -229zM402 -118q0 -75 -110 -165l-77 45q76 76 52 121q-4 8 -10.5 15.5t-10.5 11.5l-5 4q31 51 80 51q32 0 55 -21q26 -23 26 -62z" />
    <glyph glyph-name="uni0138" unicode="&#x138;" horiz-adv-x="627" 
d="M616 0h-208l-168 263q36 65 54 94q60 100 110.5 131.5t128.5 31.5q39 0 84 -7l-19 -146q-25 6 -45 6q-67 0 -121 -69l-11 -14zM227 0h-170v504l170 17v-521z" />
    <glyph glyph-name="uni0139" unicode="&#x139;" horiz-adv-x="565" 
d="M524 149l-10 -149h-434v710h180v-561h264zM440 843l-272 -78l-26 107l276 98z" />
    <glyph glyph-name="uni013A" unicode="&#x13a;" horiz-adv-x="284" 
d="M227 0h-170v768l170 15v-783zM322 876l-272 -78l-26 107l276 98z" />
    <glyph glyph-name="uni013B" unicode="&#x13b;" horiz-adv-x="565" 
d="M524 149l-10 -149h-434v710h180v-561h264zM385 -123q0 -71 -115 -169l-82 52q80 76 54 118q-4 7 -12 15.5t-14 13.5l-5 5q33 51 86 51q33 0 58 -19q30 -24 30 -67z" />
    <glyph glyph-name="uni013C" unicode="&#x13c;" horiz-adv-x="284" 
d="M227 0h-170v768l170 15v-783zM222 -118q0 -75 -110 -165l-77 45q76 76 52 121q-4 8 -10.5 15.5t-10.5 11.5l-5 4q31 51 80 51q32 0 55 -21q26 -23 26 -62z" />
    <glyph glyph-name="uni013D" unicode="&#x13d;" horiz-adv-x="736" 
d="M559 149l-10 -149h-434v710h180v-561h264zM691 652q0 -116 -164 -257l-83 54q128 131 75 207q-7 10 -16.5 19.5l-14.5 14.5l-6 4q33 75 106 75q38 0 65 -23q38 -31 38 -94z" />
    <glyph glyph-name="uni013E" unicode="&#x13e;" horiz-adv-x="513" 
d="M227 0h-170v768l170 15v-783zM503 651q0 -107 -150 -238l-87 58q49 56 67.5 96.5t15 57.5t-16.5 34q-8 10 -17 18t-14 11l-5 2q10 40 38 60.5t59 20.5q32 0 60 -18q50 -32 50 -102z" />
    <glyph glyph-name="Ldot" unicode="&#x13f;" horiz-adv-x="702" 
d="M559 149l-10 -149h-434v710h180v-561h264zM642 387q0 -42 -27 -69t-72 -27q-43 0 -70 28t-27 72q0 42 27 69t72 27q43 0 70 -28t27 -72z" />
    <glyph glyph-name="ldot" unicode="&#x140;" horiz-adv-x="482" 
d="M227 0h-170v768l170 15v-783zM477 317q0 -42 -27 -69t-72 -27q-43 0 -70 28t-27 72q0 42 27 69t72 27q43 0 70 -28t27 -72z" />
    <glyph glyph-name="Lslash" unicode="&#x141;" horiz-adv-x="585" 
d="M544 149l-10 -149h-434v253l-63 -35l-48 106l111 63v323h180v-221l117 66l49 -106l-166 -94v-206h264z" />
    <glyph glyph-name="lslash" unicode="&#x142;" horiz-adv-x="386" 
d="M270 0h-170v221l-51 -32l-65 118l116 74v387l170 15v-294l71 46l65 -118l-136 -87v-330z" />
    <glyph glyph-name="uni0143" unicode="&#x143;" horiz-adv-x="837" 
d="M757 710v-710h-202l-307 450q3 -32 3 -104v-346h-171v710h199l309 -448q-2 42 -2 75v373h171zM585 843l-272 -78l-26 107l276 98z" />
    <glyph glyph-name="uni0144" unicode="&#x144;" horiz-adv-x="605" 
d="M550 0h-170v256q0 43 -4 66q-9 55 -62 55q-43 0 -87 -32v-345h-170v503l152 13l5 -73q60 77 164 77q119 0 157 -107q15 -42 15 -151v-262zM464 680l-258 -115l-41 102l260 136z" />
    <glyph glyph-name="uni0145" unicode="&#x145;" horiz-adv-x="837" 
d="M757 710v-710h-202l-307 450q3 -32 3 -104v-346h-171v710h199l309 -448q-2 42 -2 75v373h171zM521 -123q0 -71 -115 -169l-82 52q80 76 54 118q-4 7 -12 15.5t-14 13.5l-5 5q33 51 86 51q33 0 58 -19q30 -24 30 -67z" />
    <glyph glyph-name="uni0146" unicode="&#x146;" horiz-adv-x="605" 
d="M550 0h-170v256q0 43 -4 66q-9 55 -62 55q-43 0 -87 -32v-345h-170v503l152 13l5 -73q60 77 164 77q119 0 157 -107q15 -42 15 -151v-262zM383 -118q0 -75 -110 -165l-77 45q76 76 52 121q-4 8 -10.5 15.5t-11.5 11.5l-4 4q31 51 80 51q32 0 55 -21q26 -23 26 -62z" />
    <glyph glyph-name="uni0147" unicode="&#x147;" horiz-adv-x="837" 
d="M757 710v-710h-202l-307 450q3 -32 3 -104v-346h-171v710h199l309 -448q-2 42 -2 75v373h171zM607 903l-191 -151l-197 140l81 92l120 -91l113 90z" />
    <glyph glyph-name="uni0148" unicode="&#x148;" horiz-adv-x="605" 
d="M550 0h-170v256q0 43 -4 66q-9 55 -62 55q-43 0 -87 -32v-345h-170v503l152 13l5 -73q60 77 164 77q119 0 157 -107q15 -42 15 -151v-262zM114 717l89 84l106 -91l105 91l75 -78l-191 -162z" />
    <glyph glyph-name="Eng" unicode="&#x14a;" horiz-adv-x="837" 
d="M757 710v-713q0 -160 -68 -217q-60 -50 -167 -50q-74 0 -142 27l-3 148q73 -29 136 -29q39 0 54 14q14 13 14 33q0 40 -92 175l-240 350q2 -42 2 -102v-346h-171v710h199l308 -447q-1 21 -1 74v373h171z" />
    <glyph glyph-name="eng" unicode="&#x14b;" horiz-adv-x="605" 
d="M232 -214l-2 124q51 -16 95 -16q26 0 39 13q16 16 16 66v283q0 43 -4 66q-9 55 -62 55q-43 0 -87 -32v-345h-170v503l152 13l5 -73q60 77 164 77q119 0 157 -107q15 -42 15 -151v-206q0 -100 -11 -151t-44 -85q-52 -54 -149 -54q-60 0 -114 20z" />
    <glyph glyph-name="uni014C" unicode="&#x14c;" horiz-adv-x="835" 
d="M795 371q0 -105 -46.5 -193t-126.5 -136q-87 -52 -210 -52q-136 0 -233 72q-139 103 -139 300q0 108 49 187t133 124q88 47 202 47q187 0 289 -117q82 -95 82 -232zM610 360q0 89 -50 147q-54 64 -149 64q-56 0 -97 -23q-89 -51 -89 -177q0 -118 71 -186q50 -47 119 -47
h4q68 0 114 34q37 28 57 78t20 110zM559 786h-284v118h284v-118z" />
    <glyph glyph-name="uni014D" unicode="&#x14d;" horiz-adv-x="613" 
d="M575 267q0 -72 -23.5 -127.5t-63 -87t-86.5 -47t-100 -15.5q-43 0 -86.5 13.5t-84.5 41.5t-67 81t-26 123q0 134 80.5 202.5t196.5 68.5q115 0 187.5 -64t72.5 -189zM402 247q0 72 -27.5 107.5t-71.5 35.5q-14 0 -27.5 -4.5t-29.5 -16.5t-25.5 -40.5t-9.5 -70.5
q0 -70 29 -104t68 -34h4q39 0 64.5 30.5t25.5 96.5zM446 610h-280v116h280v-116z" />
    <glyph glyph-name="uni014E" unicode="&#x14e;" horiz-adv-x="835" 
d="M795 371q0 -105 -46.5 -193t-126.5 -136q-87 -52 -210 -52q-136 0 -233 72q-139 103 -139 300q0 108 49 187t133 124q88 47 202 47q187 0 289 -117q82 -95 82 -232zM610 360q0 89 -50 147q-54 64 -149 64q-56 0 -97 -23q-89 -51 -89 -177q0 -118 71 -186q50 -47 119 -47
h4q68 0 114 34q37 28 57 78t20 110zM485 966l116 -10q-8 -89 -60.5 -137t-129.5 -48q-97 0 -147 64q-38 49 -38 119l131 12l4 -26q12 -56 58 -56q55 0 66 82z" />
    <glyph glyph-name="uni014F" unicode="&#x14f;" horiz-adv-x="613" 
d="M575 267q0 -72 -23.5 -127.5t-63 -87t-86.5 -47t-100 -15.5q-43 0 -86.5 13.5t-84.5 41.5t-67 81t-26 123q0 134 80.5 202.5t196.5 68.5q115 0 187.5 -64t72.5 -189zM402 247q0 72 -27.5 107.5t-71.5 35.5q-14 0 -27.5 -4.5t-29.5 -16.5t-25.5 -40.5t-9.5 -70.5
q0 -70 29 -104t68 -34h4q39 0 64.5 30.5t25.5 96.5zM382 790l115 -8q-6 -96 -58.5 -146.5t-130.5 -50.5q-97 0 -142 68q-34 52 -36 127l122 11q3 -24 4 -29q6 -32 23.5 -46.5t36.5 -14.5q58 0 66 89z" />
    <glyph glyph-name="uni0150" unicode="&#x150;" horiz-adv-x="835" 
d="M795 371q0 -105 -46.5 -193t-126.5 -136q-87 -52 -210 -52q-136 0 -233 72q-139 103 -139 300q0 108 49 187t133 124q88 47 202 47q187 0 289 -117q82 -95 82 -232zM610 360q0 89 -50 147q-54 64 -149 64q-56 0 -97 -23q-89 -51 -89 -177q0 -118 71 -186q50 -47 119 -47
h4q68 0 114 34q37 28 57 78t20 110zM718 917l-188 -181l-75 84l184 199zM477 929l-169 -194l-77 77l163 209z" />
    <glyph glyph-name="uni0151" unicode="&#x151;" horiz-adv-x="613" 
d="M575 267q0 -72 -23.5 -127.5t-63 -87t-86.5 -47t-100 -15.5q-43 0 -86.5 13.5t-84.5 41.5t-67 81t-26 123q0 134 80.5 202.5t196.5 68.5q115 0 187.5 -64t72.5 -189zM402 247q0 72 -27.5 107.5t-71.5 35.5q-14 0 -27.5 -4.5t-29.5 -16.5t-25.5 -40.5t-9.5 -70.5
q0 -70 29 -104t68 -34h4q39 0 64.5 30.5t25.5 96.5zM616 746l-188 -181l-73 81l184 199zM379 758l-169 -194l-75 74l163 209z" />
    <glyph glyph-name="OE" unicode="&#x152;" horiz-adv-x="1029" 
d="M964 149l-10 -149h-434q-60 -10 -110 -10q-140 0 -236 71q-134 100 -134 301q0 110 45 189.5t127 123.5q84 45 184 45q76 0 124 -10h415v-148h-235v-133h222v-144h-222v-136h264zM520 155v404q-52 13 -117 13q-56 0 -96 -22q-82 -47 -82 -179q0 -124 66 -187
q49 -46 125 -46h3q56 0 101 17z" />
    <glyph glyph-name="oe" unicode="&#x153;" horiz-adv-x="915" 
d="M865 145l-5 -120q-82 -35 -179 -35q-133 0 -203 61q-72 -61 -184 -61q-43 0 -86.5 13.5t-84.5 41.5t-67 81t-26 123q0 134 80.5 202.5t196.5 68.5q109 0 179 -58q67 58 170 58q115 0 170 -82.5t28 -221.5h-291q7 -96 144 -96q73 0 158 25zM394 247q0 72 -27.5 107.5
t-71.5 35.5q-14 0 -27.5 -4.5t-29.5 -16.5t-25.5 -40.5t-9.5 -70.5q0 -70 29 -104t68 -34h4q39 0 64.5 30.5t25.5 96.5zM703 319q3 40 -14.5 63t-52.5 23q-31 0 -52 -22t-21 -67z" />
    <glyph glyph-name="uni0154" unicode="&#x154;" horiz-adv-x="760" 
d="M748 116l-24 -126q-83 -5 -128 4t-93 46t-112 121l-58 75h-73v-236h-180v710h190q176 0 263 -65q83 -62 83 -172q0 -123 -104 -176l65 -76q52 -61 82.5 -79t88.5 -26zM431 459q0 58 -49 89q-33 21 -107 21h-15v-205q45 -2 65 -2q36 0 57 10q49 24 49 87zM461 843
l-272 -78l-26 107l276 98z" />
    <glyph glyph-name="uni0155" unicode="&#x155;" horiz-adv-x="423" 
d="M400 512l-9 -147q-25 4 -50 4q-69 0 -114 -48v-321h-170v503l152 13l5 -89q20 38 46 59.5t47 26.5t49 5q24 0 44 -6zM377 680l-258 -115l-41 102l260 136z" />
    <glyph glyph-name="uni0156" unicode="&#x156;" horiz-adv-x="760" 
d="M748 116l-24 -126q-83 -5 -128 4t-93 46t-112 121l-58 75h-73v-236h-180v710h190q176 0 263 -65q83 -62 83 -172q0 -123 -104 -176l65 -76q52 -61 82.5 -79t88.5 -26zM431 459q0 58 -49 89q-33 21 -107 21h-15v-205q45 -2 65 -2q36 0 57 10q49 24 49 87zM442 -123
q0 -71 -115 -169l-82 52q80 76 54 118q-4 7 -12 15.5t-13 13.5l-6 5q33 51 86 51q33 0 58 -19q30 -24 30 -67z" />
    <glyph glyph-name="uni0157" unicode="&#x157;" horiz-adv-x="423" 
d="M400 512l-9 -147q-25 4 -50 4q-69 0 -114 -48v-321h-170v503l152 13l5 -89q20 38 46 59.5t47 26.5t49 5q24 0 44 -6zM240 -118q0 -75 -110 -165l-77 45q76 76 52 121q-4 8 -10.5 15.5t-10.5 11.5l-5 4q31 51 80 51q32 0 55 -21q26 -23 26 -62z" />
    <glyph glyph-name="uni0158" unicode="&#x158;" horiz-adv-x="760" 
d="M748 116l-24 -126q-83 -5 -128 4t-93 46t-112 121l-58 75h-73v-236h-180v710h190q176 0 263 -65q83 -62 83 -172q0 -123 -104 -176l65 -76q52 -61 82.5 -79t88.5 -26zM431 459q0 58 -49 89q-33 21 -107 21h-15v-205q45 -2 65 -2q36 0 57 10q49 24 49 87zM483 903
l-191 -151l-197 140l81 92l120 -91l113 90z" />
    <glyph glyph-name="uni0159" unicode="&#x159;" horiz-adv-x="423" 
d="M400 512l-9 -147q-25 4 -50 4q-69 0 -114 -48v-321h-170v503l152 13l5 -89q20 38 46 59.5t47 26.5t49 5q24 0 44 -6zM27 717l89 84l106 -91l105 91l75 -78l-191 -162z" />
    <glyph glyph-name="uni015A" unicode="&#x15a;" horiz-adv-x="588" 
d="M543 213q0 -39 -14 -75.5t-45 -71t-89.5 -55.5t-137.5 -21q-111 0 -202 37l-3 148q127 -39 198 -39q93 0 93 57q0 13 -3.5 22.5t-20 23.5t-46.5 28l-43 19q-101 44 -139.5 95.5t-37.5 117.5q1 90 71 155.5t203 65.5q104 0 182 -27l-14 -139q-85 24 -151 24
q-52 0 -75.5 -18t-23.5 -45q0 -20 17 -37.5t73 -42.5l43 -19q96 -43 130.5 -91t34.5 -112zM484 843l-272 -78l-26 107l276 98z" />
    <glyph glyph-name="uni015B" unicode="&#x15b;" horiz-adv-x="465" 
d="M425 163q0 -67 -55.5 -119.5t-167.5 -52.5q-84 0 -151 28l-2 124q78 -26 139 -26q63 0 63 32q0 12 -10.5 21t-44.5 22l-35 13q-116 43 -116 147q0 66 56.5 117t157.5 51q85 0 142 -23l-11 -119q-67 18 -120 18q-29 0 -43.5 -9t-14.5 -22q0 -12 12 -21t48 -22l35 -13
q118 -44 118 -146zM404 680l-258 -115l-41 102l260 136z" />
    <glyph glyph-name="uni015C" unicode="&#x15c;" horiz-adv-x="588" 
d="M543 213q0 -39 -14 -75.5t-45 -71t-89.5 -55.5t-137.5 -21q-111 0 -202 37l-3 148q127 -39 198 -39q93 0 93 57q0 13 -3.5 22.5t-20 23.5t-46.5 28l-43 19q-101 44 -139.5 95.5t-37.5 117.5q1 90 71 155.5t203 65.5q104 0 182 -27l-14 -139q-85 24 -151 24
q-52 0 -75.5 -18t-23.5 -45q0 -20 17 -37.5t73 -42.5l43 -19q96 -43 130.5 -91t34.5 -112zM514 852l-81 -92l-121 91l-112 -90l-74 80l191 151z" />
    <glyph glyph-name="uni015D" unicode="&#x15d;" horiz-adv-x="465" 
d="M425 163q0 -67 -55.5 -119.5t-167.5 -52.5q-84 0 -151 28l-2 124q78 -26 139 -26q63 0 63 32q0 12 -10.5 21t-44.5 22l-35 13q-116 43 -116 147q0 66 56.5 117t157.5 51q85 0 142 -23l-11 -119q-67 18 -120 18q-29 0 -43.5 -9t-14.5 -22q0 -12 12 -21t48 -22l35 -13
q118 -44 118 -146zM437 655l-89 -84l-107 90l-104 -90l-75 78l191 162z" />
    <glyph glyph-name="uni015E" unicode="&#x15e;" horiz-adv-x="588" 
d="M543 213q0 -39 -14 -75.5t-45 -71t-89.5 -55.5t-137.5 -21q-111 0 -202 37l-3 148q127 -39 198 -39q93 0 93 57q0 13 -3.5 22.5t-20 23.5t-46.5 28l-43 19q-101 44 -139.5 95.5t-37.5 117.5q1 90 71 155.5t203 65.5q104 0 182 -27l-14 -139q-85 24 -151 24
q-52 0 -75.5 -18t-23.5 -45q0 -20 17 -37.5t73 -42.5l43 -19q96 -43 130.5 -91t34.5 -112zM404 -153q0 -53 -36.5 -87.5t-99.5 -34.5q-44 0 -73 13l-1 95q34 -11 59 -11q39 0 39 27q0 8 -7 16t-31 16.5t-62 10.5l19 74q102 2 147.5 -35.5t45.5 -83.5z" />
    <glyph glyph-name="uni015F" unicode="&#x15f;" horiz-adv-x="465" 
d="M425 163q0 -67 -55.5 -119.5t-167.5 -52.5q-84 0 -151 28l-2 124q78 -26 139 -26q63 0 63 32q0 12 -10.5 21t-44.5 22l-35 13q-116 43 -116 147q0 66 56.5 117t157.5 51q85 0 142 -23l-11 -119q-67 18 -120 18q-29 0 -43.5 -9t-14.5 -22q0 -12 12 -21t48 -22l35 -13
q118 -44 118 -146zM351 -156q0 -45 -35.5 -77t-92.5 -32q-52 0 -88 18v81q35 -12 66 -12q38 0 38 28q0 38 -91 44l16 68q100 1 143.5 -35t43.5 -83z" />
    <glyph glyph-name="Scaron" unicode="&#x160;" horiz-adv-x="588" 
d="M543 213q0 -39 -14 -75.5t-45 -71t-89.5 -55.5t-137.5 -21q-111 0 -202 37l-3 148q127 -39 198 -39q93 0 93 57q0 13 -3.5 22.5t-20 23.5t-46.5 28l-43 19q-101 44 -139.5 95.5t-37.5 117.5q1 90 71 155.5t203 65.5q104 0 182 -27l-14 -139q-85 24 -151 24
q-52 0 -75.5 -18t-23.5 -45q0 -20 17 -37.5t73 -42.5l43 -19q96 -43 130.5 -91t34.5 -112zM506 903l-191 -151l-197 140l81 92l120 -91l113 90z" />
    <glyph glyph-name="scaron" unicode="&#x161;" horiz-adv-x="465" 
d="M425 163q0 -67 -55.5 -119.5t-167.5 -52.5q-84 0 -151 28l-2 124q78 -26 139 -26q63 0 63 32q0 12 -10.5 21t-44.5 22l-35 13q-116 43 -116 147q0 66 56.5 117t157.5 51q85 0 142 -23l-11 -119q-67 18 -120 18q-29 0 -43.5 -9t-14.5 -22q0 -12 12 -21t48 -22l35 -13
q118 -44 118 -146zM54 717l89 84l106 -91l105 91l75 -78l-191 -162z" />
    <glyph glyph-name="uni0162" unicode="&#x162;" horiz-adv-x="639" 
d="M609 710l-10 -149h-194v-561h-180v561h-190v149h574zM404 -123q0 -71 -115 -169l-82 52q80 76 54 118q-4 7 -12 15.5t-13 13.5l-6 5q33 51 86 51q33 0 58 -19q30 -24 30 -67z" />
    <glyph glyph-name="uni0163" unicode="&#x163;" horiz-adv-x="412" 
d="M383 142l-2 -123q-61 -27 -123 -27q-38 0 -67.5 8t-55.5 27.5t-40 58t-14 94.5v190h-71v116l84 12l15 118l142 2v-120h119l-6 -128h-113v-171q0 -38 15 -53.5t46 -15.5q30 0 71 12zM277 -118q0 -75 -110 -165l-77 45q76 76 52 121q-4 8 -10.5 15.5t-11.5 11.5l-4 4
q31 51 80 51q32 0 55 -21q26 -23 26 -62z" />
    <glyph glyph-name="uni0164" unicode="&#x164;" horiz-adv-x="639" 
d="M609 710l-10 -149h-194v-561h-180v561h-190v149h574zM511 903l-191 -151l-197 140l81 92l120 -91l113 90z" />
    <glyph glyph-name="uni0165" unicode="&#x165;" horiz-adv-x="648" 
d="M383 142l-2 -123q-61 -27 -123 -27q-38 0 -67.5 8t-55.5 27.5t-40 58t-14 94.5v190h-71v116l84 12l15 118l142 2v-120h119l-6 -128h-113v-171q0 -38 15 -53.5t46 -15.5q30 0 71 12zM638 651q0 -107 -150 -238l-87 58q49 56 67.5 96.5t15 57.5t-16.5 34q-8 10 -17 18
t-14 11l-5 2q10 40 38 60.5t59 20.5q32 0 60 -18q50 -32 50 -102z" />
    <glyph glyph-name="Tbar" unicode="&#x166;" horiz-adv-x="639" 
d="M609 710l-10 -149h-194v-200h155v-120h-155v-241h-180v241h-155v120h155v200h-190v149h574z" />
    <glyph glyph-name="tbar" unicode="&#x167;" horiz-adv-x="412" 
d="M383 142l-2 -123q-61 -27 -123 -27q-38 0 -67.5 8t-55.5 27.5t-40 58t-14 94.5v27h-71v100h71v63h-71v116l84 12l15 118l142 2v-120h119l-6 -128h-113v-63h101v-100h-101v-8q0 -38 15 -53.5t46 -15.5q30 0 71 12z" />
    <glyph glyph-name="uni0168" unicode="&#x168;" horiz-adv-x="800" 
d="M722 710v-359q0 -102 -21 -169t-71 -114q-86 -79 -233 -79q-181 0 -261 105q-33 43 -45.5 102t-12.5 149v365h180v-376q0 -104 38 -148q38 -43 118 -43q58 0 91 30q45 42 45 151v386h172zM600 937q-13 -50 -30 -82.5t-37 -47t-36 -19t-37 -4.5q-29 0 -72 16l-8 3
q-26 10 -43 10q-10 0 -17.5 -2.5t-18 -16t-19.5 -37.5l-91 23q13 50 30 82.5t37 47t36 19t37 4.5q29 0 72 -16l8 -3q26 -10 43 -10q10 0 17.5 2.5t18 16t19.5 37.5z" />
    <glyph glyph-name="uni0169" unicode="&#x169;" horiz-adv-x="605" 
d="M548 8l-152 -13l-5 73q-60 -77 -164 -77q-119 0 -157 107q-15 42 -15 151v252l170 15v-261q0 -43 4 -66q9 -55 62 -55q43 0 87 32v335l170 15v-508zM505 768q-13 -50 -30 -82.5t-37 -47t-36 -19t-37 -4.5q-29 0 -72 16l-8 3q-26 10 -43 10q-10 0 -17.5 -2.5t-18 -16
t-19.5 -37.5l-91 23q13 50 30 82.5t37 47t36 19t37 4.5q29 0 72 -16l8 -3q26 -10 43 -10q10 0 17.5 2.5t18 16t19.5 37.5z" />
    <glyph glyph-name="uni016A" unicode="&#x16a;" horiz-adv-x="800" 
d="M722 710v-359q0 -102 -21 -169t-71 -114q-86 -79 -233 -79q-181 0 -261 105q-33 43 -45.5 102t-12.5 149v365h180v-376q0 -104 38 -148q38 -43 118 -43q58 0 91 30q45 42 45 151v386h172zM542 786h-284v118h284v-118z" />
    <glyph glyph-name="uni016B" unicode="&#x16b;" horiz-adv-x="605" 
d="M548 8l-152 -13l-5 73q-60 -77 -164 -77q-119 0 -157 107q-15 42 -15 151v252l170 15v-261q0 -43 4 -66q9 -55 62 -55q43 0 87 32v335l170 15v-508zM443 610h-280v116h280v-116z" />
    <glyph glyph-name="uni016C" unicode="&#x16c;" horiz-adv-x="800" 
d="M722 710v-359q0 -102 -21 -169t-71 -114q-86 -79 -233 -79q-181 0 -261 105q-33 43 -45.5 102t-12.5 149v365h180v-376q0 -104 38 -148q38 -43 118 -43q58 0 91 30q45 42 45 151v386h172zM468 966l116 -10q-8 -89 -60.5 -137t-129.5 -48q-97 0 -147 64q-38 49 -38 119
l131 12l4 -26q12 -56 58 -56q55 0 66 82z" />
    <glyph glyph-name="uni016D" unicode="&#x16d;" horiz-adv-x="605" 
d="M548 8l-152 -13l-5 73q-60 -77 -164 -77q-119 0 -157 107q-15 42 -15 151v252l170 15v-261q0 -43 4 -66q9 -55 62 -55q43 0 87 32v335l170 15v-508zM379 790l115 -8q-6 -96 -58.5 -146.5t-130.5 -50.5q-97 0 -142 68q-34 52 -36 127l122 11q3 -24 4 -29q6 -32 23.5 -46.5
t36.5 -14.5q58 0 66 89z" />
    <glyph glyph-name="Uring" unicode="&#x16e;" horiz-adv-x="800" 
d="M722 710v-359q0 -102 -21 -169t-71 -114q-86 -79 -233 -79q-181 0 -261 105q-33 43 -45.5 102t-12.5 149v365h180v-376q0 -104 38 -148q38 -43 118 -43q58 0 91 30q45 42 45 151v386h172zM563 865q0 -62 -48 -99.5t-118 -37.5q-74 0 -117 34.5t-43 96.5t48 99.5t118 37.5
q74 0 117 -34.5t43 -96.5zM452 860q0 60 -54 60q-22 0 -36 -15t-14 -41q0 -60 54 -60q22 0 36 15t14 41z" />
    <glyph glyph-name="uring" unicode="&#x16f;" horiz-adv-x="605" 
d="M548 8l-152 -13l-5 73q-60 -77 -164 -77q-119 0 -157 107q-15 42 -15 151v252l170 15v-261q0 -43 4 -66q9 -55 62 -55q43 0 87 32v335l170 15v-508zM463 698q0 -63 -47 -104t-116 -41q-72 0 -114.5 38t-42.5 101t47 104t116 41q72 0 114.5 -38t42.5 -101zM352 693
q0 66 -51 66q-19 0 -33 -15.5t-14 -46.5q0 -66 51 -66q19 0 33 15.5t14 46.5z" />
    <glyph glyph-name="uni0170" unicode="&#x170;" horiz-adv-x="800" 
d="M722 710v-359q0 -102 -21 -169t-71 -114q-86 -79 -233 -79q-181 0 -261 105q-33 43 -45.5 102t-12.5 149v365h180v-376q0 -104 38 -148q38 -43 118 -43q58 0 91 30q45 42 45 151v386h172zM701 917l-188 -181l-75 84l184 199zM460 929l-169 -194l-77 77l163 209z" />
    <glyph glyph-name="uni0171" unicode="&#x171;" horiz-adv-x="605" 
d="M548 8l-152 -13l-5 73q-60 -77 -164 -77q-119 0 -157 107q-15 42 -15 151v252l170 15v-261q0 -43 4 -66q9 -55 62 -55q43 0 87 32v335l170 15v-508zM595 746l-188 -181l-73 81l184 199zM358 758l-169 -194l-75 74l163 209z" />
    <glyph glyph-name="uni0172" unicode="&#x172;" horiz-adv-x="800" 
d="M722 710v-361q0 -103 -20.5 -169.5t-71.5 -112.5q-31 -28 -75 -55.5t-62 -40.5q-53 -40 -53 -75q0 -14 11.5 -27t35.5 -13q22 0 59 12v-93q-48 -26 -105 -26q-62 0 -97 33.5t-35 77.5q0 69 78 130q-75 -1 -141.5 24t-108.5 79q-59 77 -59 250v367h180v-378q0 -98 38 -144
q41 -47 120 -47q58 0 90 29q44 41 44 147v393h172z" />
    <glyph glyph-name="uni0173" unicode="&#x173;" horiz-adv-x="605" 
d="M548 6q-106 -60 -106 -109q0 -15 11.5 -28t35.5 -13q22 0 59 12v-93q-48 -26 -105 -26q-62 0 -97 34t-35 78q0 78 85 132l-5 75q-60 -77 -164 -77q-119 0 -157 107q-15 42 -15 151v252l170 15v-261q0 -43 4 -66q9 -55 62 -55q43 0 87 32v335l170 15v-510z" />
    <glyph glyph-name="uni0174" unicode="&#x174;" horiz-adv-x="1137" 
d="M1098 710l-208 -707l-218 -6l-106 316l-102 -310l-218 -6l-221 713h192l158 -536l114 359l-59 177h185l168 -523l140 523h175zM747 852l-81 -92l-121 91l-112 -90l-74 80l191 151z" />
    <glyph glyph-name="uni0175" unicode="&#x175;" horiz-adv-x="895" 
d="M880 510l-156 -507l-205 -6l-75 291l-88 -285l-205 -6l-141 513h177l62 -266q12 -54 18 -91q12 48 26 91l78 266h164l68 -266q5 -22 9.5 -42.5t7 -32.5t2.5 -13q15 61 23 87l74 267h161zM650 655l-89 -84l-107 90l-104 -90l-75 78l191 162z" />
    <glyph glyph-name="uni0176" unicode="&#x176;" horiz-adv-x="745" 
d="M457 0h-180v277l-267 433h211l159 -271l164 271h191l-278 -432v-278zM560 852l-81 -92l-121 91l-112 -90l-74 80l191 151z" />
    <glyph glyph-name="uni0177" unicode="&#x177;" horiz-adv-x="599" 
d="M564 510q-18 -192 -73 -360q-66 -197 -181 -293q-89 -74 -235 -116l-61 136q131 42 187 97q-48 110 -97 244t-74 213l-25 79h191q63 -239 118 -391q20 42 37 101q33 114 47 290h166zM435 610h-280v116h280v-116z" />
    <glyph glyph-name="Ydieresis" unicode="&#x178;" horiz-adv-x="745" 
d="M457 0h-180v277l-267 433h211l159 -271l164 271h191l-278 -432v-278zM339 867q0 -41 -22.5 -63t-59.5 -22q-36 0 -57.5 24t-21.5 61t21.5 59.5t60.5 22.5q38 0 58.5 -22.5t20.5 -59.5zM548 867q0 -41 -22 -63t-60 -22q-36 0 -57.5 24t-21.5 61t21.5 59.5t60.5 22.5
q38 0 58.5 -22.5t20.5 -59.5z" />
    <glyph glyph-name="uni0179" unicode="&#x179;" horiz-adv-x="648" 
d="M598 146l-10 -146h-540v112l290 449h-271v149h504v-112l-293 -452h320zM491 843l-272 -78l-26 107l276 98z" />
    <glyph glyph-name="uni017A" unicode="&#x17a;" horiz-adv-x="490" 
d="M450 127l-14 -127h-401v113l195 272h-176v125h384v-114l-192 -269h204zM436 680l-258 -115l-41 102l260 136z" />
    <glyph glyph-name="uni017B" unicode="&#x17b;" horiz-adv-x="648" 
d="M598 146l-10 -146h-540v112l290 449h-271v149h504v-112l-293 -452h320zM424 858q0 -40 -27 -64t-72 -24q-48 0 -73.5 24t-25.5 64t27 64t72 24q46 0 72.5 -24.5t26.5 -63.5z" />
    <glyph glyph-name="uni017C" unicode="&#x17c;" horiz-adv-x="490" 
d="M450 127l-14 -127h-401v113l195 272h-176v125h384v-114l-192 -269h204zM354 683q0 -41 -27.5 -67t-71.5 -26q-47 0 -73 26.5t-26 66.5t27.5 66.5t71.5 26.5q46 0 72.5 -26.5t26.5 -66.5z" />
    <glyph glyph-name="Zcaron" unicode="&#x17d;" horiz-adv-x="648" 
d="M598 146l-10 -146h-540v112l290 449h-271v149h504v-112l-293 -452h320zM513 903l-191 -151l-197 140l81 92l120 -91l113 90z" />
    <glyph glyph-name="zcaron" unicode="&#x17e;" horiz-adv-x="490" 
d="M450 127l-14 -127h-401v113l195 272h-176v125h384v-114l-192 -269h204zM66 717l89 84l106 -91l105 91l75 -78l-191 -162z" />
    <glyph glyph-name="longs" unicode="&#x17f;" horiz-adv-x="349" 
d="M447 775l-13 -127q-41 8 -78 8q-77 0 -91 -58q-6 -28 -6 -80v-518h-170v370h-79v118l79 10v20q0 82 18 132q48 139 237 139q61 0 103 -14z" />
    <glyph glyph-name="uni018F" unicode="&#x18f;" horiz-adv-x="743" 
d="M702 355q0 -169 -92.5 -267t-245.5 -98q-144 0 -222.5 78.5t-78.5 223.5q0 58 8 109h441q-10 170 -210 170q-112 0 -233 -45l5 137q134 57 247 57q101 0 176.5 -29t119 -81t64.5 -115.5t21 -139.5zM511 271l-265 -3q-1 -11 -1 -25q0 -53 33.5 -84t93.5 -31
q54 0 94.5 36.5t44.5 106.5z" />
    <glyph glyph-name="florin" unicode="&#x192;" horiz-adv-x="580" 
d="M565 709l-14 -126q-38 8 -79 8q-40 0 -62 -17.5t-28 -40.5t-8 -64l-2 -35h151v-105h-156l-11 -242q-6 -129 -69.5 -201t-169.5 -72q-61 0 -104 13l-4 128q41 -10 83 -10q84 0 89 120l11 264h-122v105h127l1 23q8 123 76.5 194t188.5 71q54 0 102 -13z" />
    <glyph glyph-name="uni019F" unicode="&#x19f;" horiz-adv-x="835" 
d="M795 371q0 -105 -46.5 -193t-126.5 -136q-87 -52 -210 -52q-136 0 -233 72q-139 103 -139 300q0 108 49 187t133 124q88 47 202 47q187 0 289 -117q82 -95 82 -232zM605 414q-10 56 -43 94q-54 64 -151 64q-57 0 -98 -23q-74 -43 -86 -135h378zM606 306h-376
q17 -78 64 -122q50 -47 121 -47h4q69 0 115 34q58 44 72 135z" />
    <glyph glyph-name="uni01CF" unicode="&#x1cf;" horiz-adv-x="340" 
d="M260 0h-180v710h180v-710zM359 903l-191 -151l-197 140l81 92l120 -91l113 90z" />
    <glyph glyph-name="uni01D0" unicode="&#x1d0;" horiz-adv-x="284" 
d="M227 0h-170v485l170 15v-500zM-47 717l89 84l106 -91l105 91l75 -78l-191 -162z" />
    <glyph glyph-name="uni01E6" unicode="&#x1e6;" horiz-adv-x="765" 
d="M690 23q-136 -33 -246 -33q-138 0 -231 51q-81 44 -127 127t-46 190q0 188 137 288q100 74 268 74q113 0 215 -32l-16 -146q-108 29 -199 29q-103 0 -158 -47q-62 -54 -62 -156q0 -103 60 -166.5t169 -63.5q18 0 55 5v198h180v-228zM596 903l-191 -151l-197 140l81 92
l120 -91l113 90z" />
    <glyph glyph-name="uni01E7" unicode="&#x1e7;" horiz-adv-x="564" 
d="M554 494l-5 -106h-77q16 -25 16 -61q0 -88 -62 -144t-177 -56l-22 1q-3 -8 -3 -16q0 -38 96 -41l52 -2q105 -4 146 -43q31 -29 31 -83q0 -30 -18 -65t-54 -71t-103 -59.5t-153 -23.5q-119 0 -175.5 45t-56.5 98q0 39 27.5 71t89.5 44q-28 27 -28 63q0 64 68 99
q-115 48 -115 181q0 92 65.5 145t165.5 53q78 0 131 -29h161zM334 326q0 43 -20.5 69t-50.5 26q-32 0 -54 -25t-22 -72q0 -43 18 -68t46 -25q36 0 59.5 27.5t23.5 67.5zM395 -106q0 8 -5 13q-11 11 -68 13l-41 2q-82 4 -122 22q-25 -18 -25 -46q0 -25 28 -45.5t91 -20.5
q44 0 78 11.5t49 25.5t15 25zM67 717l89 84l106 -91l105 91l75 -78l-191 -162z" />
    <glyph glyph-name="uni01FA" unicode="&#x1fa;" horiz-adv-x="773" 
d="M743 0h-201l-45 133h-248l-41 -133h-178l233 675q-56 33 -56 102q0 63 49 101t119 38q73 0 117.5 -35.5t44.5 -97.5q0 -58 -46 -96zM534 987l-279 -50l-15 110l285 68zM451 268l-55 164l-29 87q-4 -21 -24 -87l-52 -164h160zM426 778q0 29 -15 45.5t-41 16.5
q-22 0 -37 -16t-15 -42q0 -56 56 -56q23 0 37.5 13.5t14.5 38.5z" />
    <glyph glyph-name="uni01FB" unicode="&#x1fb;" horiz-adv-x="561" 
d="M546 95l-6 -98q-45 -7 -84 -7q-26 0 -42.5 2t-39 15.5t-35.5 39.5q-65 -58 -153 -58q-69 0 -112.5 38.5t-43.5 107.5q0 34 13 62.5t43 55t89 42t142 16.5v5q0 28 -6 41q-15 34 -70 34q-78 0 -164 -37l-12 115q31 19 85 34q-50 35 -50 102q0 60 47 99t114 39
q72 0 113.5 -36.5t41.5 -95.5q0 -64 -53 -104q54 -17 86 -59q33 -46 33 -153v-131q0 -19 1 -26t6 -19.5t19 -17.5t38 -6zM418 838l-277 -80l-25 101l282 102zM317 129v80q-136 5 -136 -56q0 -20 15 -33t47 -13q33 0 74 22zM307 606q0 30 -14 45t-35 15q-20 0 -34.5 -14
t-14.5 -42q0 -30 14 -45t35 -15q20 0 34.5 14t14.5 42z" />
    <glyph glyph-name="uni01FC" unicode="&#x1fc;" horiz-adv-x="999" 
d="M934 149l-10 -149h-434v133h-214l-68 -133h-198l390 710h505v-148h-235v-133h222v-144h-222v-136h264zM490 268v294q-14 -37 -41 -90l-104 -204h145zM752 843l-272 -78l-26 107l276 98z" />
    <glyph glyph-name="uni01FD" unicode="&#x1fd;" horiz-adv-x="833" 
d="M783 145l-5 -120q-82 -35 -179 -35q-141 0 -211 68q-95 -69 -202 -69q-69 0 -112.5 38.5t-43.5 107.5q0 34 13 62.5t43 55t89 42t142 16.5v5q0 28 -6 41q-15 34 -70 34q-78 0 -164 -37l-12 115q38 23 94 36.5t104 13.5q61 0 97 -10.5t60 -37.5q59 49 154 49
q115 0 170 -82.5t28 -221.5h-291q7 -96 144 -96q73 0 158 25zM334 141q-12 29 -17 68q-136 5 -136 -56q0 -20 15 -33t47 -13q45 0 91 34zM621 319q3 40 -14.5 63t-52.5 23q-31 0 -52 -22t-21 -67zM599 680l-258 -115l-41 102l260 136z" />
    <glyph glyph-name="uni01FE" unicode="&#x1fe;" horiz-adv-x="835" 
d="M795 371q1 -104 -45.5 -192t-127.5 -137q-87 -52 -210 -52q-80 0 -145 24l-67 -108l-102 60l67 106q-125 103 -125 290q0 108 49 187t133 124q88 47 202 47q77 0 137 -20l71 115l101 -60l-67 -107q126 -96 129 -277zM476 563q-30 10 -65 10q-55 0 -98 -24
q-88 -50 -88 -178q0 -82 37 -146zM610 360q0 82 -40 138l-220 -349q32 -13 65 -13h4q68 0 114 34q37 28 57 79t20 111zM591 843l-272 -78l-26 107l276 98z" />
    <glyph glyph-name="uni01FF" unicode="&#x1ff;" horiz-adv-x="613" 
d="M575 267q0 -72 -23.5 -127.5t-63 -87t-86.5 -47t-100 -15.5q-60 0 -120 25l-71 -96l-74 52l70 94q-69 69 -69 184q0 134 80.5 202.5t196.5 68.5q66 0 115 -20l81 109l74 -52l-78 -105q68 -68 68 -185zM345 383q-17 9 -42 9q-14 0 -27.5 -4.5t-30 -17t-26.5 -41.5t-10 -71
q0 -26 5 -51zM404 247q0 31 -7 61l-132 -178q19 -12 43 -12h4q39 0 65.5 31.5t26.5 97.5zM474 680l-258 -115l-41 102l260 136z" />
    <glyph glyph-name="uni0218" unicode="&#x218;" horiz-adv-x="588" 
d="M543 213q0 -39 -14 -75.5t-45 -71t-89.5 -55.5t-137.5 -21q-111 0 -202 37l-3 148q127 -39 198 -39q93 0 93 57q0 13 -3.5 22.5t-20 23.5t-46.5 28l-43 19q-101 44 -139.5 95.5t-37.5 117.5q1 90 71 155.5t203 65.5q104 0 182 -27l-14 -139q-85 24 -151 24
q-52 0 -75.5 -18t-23.5 -45q0 -20 17 -37.5t73 -42.5l43 -19q96 -43 130.5 -91t34.5 -112zM391 -123q0 -71 -115 -169l-82 52q80 76 54 118q-4 7 -12 15.5t-14 13.5l-5 5q33 51 86 51q33 0 58 -19q30 -24 30 -67z" />
    <glyph glyph-name="uni0219" unicode="&#x219;" horiz-adv-x="465" 
d="M425 163q0 -67 -55.5 -119.5t-167.5 -52.5q-84 0 -151 28l-2 124q78 -26 139 -26q63 0 63 32q0 12 -10.5 21t-44.5 22l-35 13q-116 43 -116 147q0 66 56.5 117t157.5 51q85 0 142 -23l-11 -119q-67 18 -120 18q-29 0 -43.5 -9t-14.5 -22q0 -12 12 -21t48 -22l35 -13
q118 -44 118 -146zM316 -118q0 -75 -110 -165l-77 45q76 76 52 121q-4 8 -10.5 15.5t-10.5 11.5l-5 4q31 51 80 51q32 0 55 -21q26 -23 26 -62z" />
    <glyph glyph-name="uni021A" unicode="&#x21a;" horiz-adv-x="639" 
d="M609 710l-10 -149h-194v-561h-180v561h-190v149h574zM417 -153q0 -53 -36.5 -87.5t-99.5 -34.5q-44 0 -73 13l-1 95q34 -11 59 -11q39 0 39 27q0 8 -7 16t-31 16.5t-62 10.5l19 74q102 2 147.5 -35.5t45.5 -83.5z" />
    <glyph glyph-name="uni021B" unicode="&#x21b;" horiz-adv-x="412" 
d="M383 142l-2 -123q-61 -27 -123 -27q-38 0 -67.5 8t-55.5 27.5t-40 58t-14 94.5v190h-71v116l84 12l15 118l142 2v-120h119l-6 -128h-113v-171q0 -38 15 -53.5t46 -15.5q30 0 71 12zM312 -156q0 -45 -35.5 -77t-92.5 -32q-52 0 -88 18v81q35 -12 66 -12q38 0 38 28
q0 38 -91 44l16 68q100 1 143.5 -35t43.5 -83z" />
    <glyph glyph-name="uni0232" unicode="&#x232;" horiz-adv-x="745" 
d="M457 0h-180v277l-267 433h211l159 -271l164 271h191l-278 -432v-278zM505 786h-284v118h284v-118z" />
    <glyph glyph-name="uni0233" unicode="&#x233;" horiz-adv-x="599" 
d="M564 510q-18 -192 -73 -360q-66 -197 -181 -293q-89 -74 -235 -116l-61 136q131 42 187 97q-48 110 -97 244t-74 213l-25 79h191q63 -239 118 -391q20 42 37 101q33 114 47 290h166zM435 610h-280v116h280v-116z" />
    <glyph glyph-name="dotlessj" unicode="&#x237;" horiz-adv-x="284" 
d="M227 500v-425q0 -113 -41.5 -188t-144.5 -145l-93 102q68 61 88.5 109.5t20.5 140.5v391z" />
    <glyph glyph-name="uni0259" unicode="&#x259;" horiz-adv-x="557" 
d="M50 364l5 120q82 35 179 35q78 0 135 -21.5t89 -60t46.5 -84.5t14.5 -101q0 -117 -71 -190t-189 -73q-115 0 -170 82.5t-28 221.5h291q-8 96 -144 96q-73 0 -158 -25zM212 190q-3 -40 14.5 -63t52.5 -23q31 0 52 22t21 67z" />
    <glyph glyph-name="uni0275" unicode="&#x275;" horiz-adv-x="613" 
d="M575 267q0 -72 -23.5 -127.5t-63 -87t-86.5 -47t-100 -15.5q-43 0 -86.5 13.5t-84.5 41.5t-67 81t-26 123q0 134 80.5 202.5t196.5 68.5q115 0 187.5 -64t72.5 -189zM401 300q-9 48 -35.5 70.5t-62.5 22.5q-12 0 -24 -3t-27 -11.5t-26 -28.5t-16 -50h191zM403 207h-191
q10 -46 37 -68t59 -22h4q33 0 58 21.5t33 68.5z" />
    <glyph glyph-name="circumflex" unicode="&#x2c6;" horiz-adv-x="475" 
d="M425 655l-89 -84l-107 90l-104 -90l-75 78l191 162z" />
    <glyph glyph-name="caron" unicode="&#x2c7;" horiz-adv-x="475" 
d="M50 727l89 84l106 -91l105 91l75 -78l-191 -162z" />
    <glyph glyph-name="breve" unicode="&#x2d8;" horiz-adv-x="467" 
d="M302 790l115 -8q-6 -96 -58.5 -146.5t-130.5 -50.5q-97 0 -142 68q-34 52 -36 127l122 11q3 -24 4 -29q6 -32 23.5 -46.5t36.5 -14.5q58 0 66 89z" />
    <glyph glyph-name="dotaccent" unicode="&#x2d9;" horiz-adv-x="298" 
d="M248 683q0 -41 -27.5 -67t-71.5 -26q-47 0 -73 26.5t-26 66.5t27.5 66.5t71.5 26.5q46 0 72.5 -26.5t26.5 -66.5z" />
    <glyph glyph-name="ring" unicode="&#x2da;" horiz-adv-x="420" 
d="M370 698q0 -63 -47 -104t-116 -41q-72 0 -114.5 38t-42.5 101t47 104t116 41q72 0 114.5 -38t42.5 -101zM259 693q0 66 -51 66q-19 0 -33 -15.5t-14 -46.5q0 -66 51 -66q19 0 33 15.5t14 46.5z" />
    <glyph glyph-name="ogonek" unicode="&#x2db;" horiz-adv-x="337" 
d="M147 0h129q-95 -57 -95 -103q0 -15 11.5 -28t35.5 -13q22 0 59 12v-93q-48 -26 -105 -26q-62 0 -97 34t-35 78q0 83 97 139z" />
    <glyph glyph-name="tilde" unicode="&#x2dc;" horiz-adv-x="509" 
d="M459 768q-13 -50 -30 -82.5t-37 -47t-36 -19t-37 -4.5q-29 0 -72 16l-8 3q-26 10 -43 10q-10 0 -17.5 -2.5t-18 -16t-19.5 -37.5l-91 23q13 50 30 82.5t37 47t36 19t37 4.5q29 0 72 -16l8 -3q26 -10 43 -10q10 0 17.5 2.5t18 16t19.5 37.5z" />
    <glyph glyph-name="hungarumlaut" unicode="&#x2dd;" horiz-adv-x="581" 
d="M531 746l-188 -181l-73 81l184 199zM294 758l-169 -194l-75 74l163 209z" />
    <glyph glyph-name="uni0394" unicode="&#x394;" horiz-adv-x="726" 
d="M706 0h-686l271 710h148zM462 149l-116 314l-115 -314h231z" />
    <glyph glyph-name="uni03A9" unicode="&#x3a9;" horiz-adv-x="917" 
d="M842 0h-348v123q86 60 121 120.5t35 138.5q0 86 -55.5 137.5t-139.5 51.5q-79 0 -136 -53.5t-57 -131.5q0 -80 31.5 -140.5t109.5 -122.5v-123h-328v136h135q-70 55 -102 114t-32 136q0 142 111 238t268 96q174 0 278 -93t104 -239q0 -161 -145 -252h150v-136z" />
    <glyph glyph-name="uni03BC" unicode="&#x3bc;" horiz-adv-x="605" 
d="M548 8l-152 -13l-5 73q-60 -77 -164 -77q-6 0 -12 1q10 -37 10 -96v-146h-170v751l170 15v-261q0 -43 4 -66q9 -55 62 -55q43 0 87 32v335l170 15v-508z" />
    <glyph glyph-name="uni1E80" unicode="&#x1e80;" horiz-adv-x="1137" 
d="M1098 710l-208 -707l-218 -6l-106 316l-102 -310l-218 -6l-221 713h192l158 -536l114 359l-59 177h185l168 -523l140 523h175zM690 872l-26 -107l-272 78l22 127z" />
    <glyph glyph-name="uni1E81" unicode="&#x1e81;" horiz-adv-x="895" 
d="M880 510l-156 -507l-205 -6l-75 291l-88 -285l-205 -6l-141 513h177l62 -266q12 -54 18 -91q12 48 26 91l78 266h164l68 -266q5 -22 9.5 -42.5t7 -32.5t2.5 -13q15 61 23 87l74 267h161zM600 667l-41 -102l-258 115l39 123z" />
    <glyph glyph-name="uni1E82" unicode="&#x1e82;" horiz-adv-x="1137" 
d="M1098 710l-208 -707l-218 -6l-106 316l-102 -310l-218 -6l-221 713h192l158 -536l114 359l-59 177h185l168 -523l140 523h175zM717 843l-272 -78l-26 107l276 98z" />
    <glyph glyph-name="uni1E83" unicode="&#x1e83;" horiz-adv-x="895" 
d="M880 510l-156 -507l-205 -6l-75 291l-88 -285l-205 -6l-141 513h177l62 -266q12 -54 18 -91q12 48 26 91l78 266h164l68 -266q5 -22 9.5 -42.5t7 -32.5t2.5 -13q15 61 23 87l74 267h161zM617 680l-258 -115l-41 102l260 136z" />
    <glyph glyph-name="uni1E84" unicode="&#x1e84;" horiz-adv-x="1137" 
d="M1098 710l-208 -707l-218 -6l-106 316l-102 -310l-218 -6l-221 713h192l158 -536l114 359l-59 177h185l168 -523l140 523h175zM526 867q0 -41 -22 -63t-60 -22q-36 0 -57.5 24t-21.5 61t21.5 59.5t60.5 22.5q38 0 58.5 -22.5t20.5 -59.5zM735 867q0 -41 -22.5 -63
t-59.5 -22q-36 0 -57.5 24t-21.5 61t21.5 59.5t60.5 22.5q38 0 58.5 -22.5t20.5 -59.5z" />
    <glyph glyph-name="uni1E85" unicode="&#x1e85;" horiz-adv-x="895" 
d="M880 510l-156 -507l-205 -6l-75 291l-88 -285l-205 -6l-141 513h177l62 -266q12 -54 18 -91q12 48 26 91l78 266h164l68 -266q5 -22 9.5 -42.5t7 -32.5t2.5 -13q15 61 23 87l74 267h161zM641 685q0 -41 -22.5 -63t-59.5 -22q-36 0 -57.5 24t-21.5 61t21.5 59.5t60.5 22.5
q38 0 58.5 -22.5t20.5 -59.5zM432 685q0 -41 -22 -63t-60 -22q-36 0 -57.5 24t-21.5 61t21.5 59.5t60.5 22.5q38 0 58.5 -22.5t20.5 -59.5z" />
    <glyph glyph-name="uni1EBC" unicode="&#x1ebc;" horiz-adv-x="589" 
d="M524 149l-10 -149h-434v710h415v-148h-235v-133h222v-144h-222v-136h264zM494 937q-13 -50 -30 -82.5t-37 -47t-36 -19t-37 -4.5q-29 0 -72 16l-8 3q-26 10 -43 10q-10 0 -17.5 -2.5t-18 -16t-19.5 -37.5l-91 23q13 50 30 82.5t37 47t36 19t37 4.5q29 0 72 -16l8 -3
q26 -10 43 -10q10 0 17.5 2.5t18 16t19.5 37.5z" />
    <glyph glyph-name="uni1EBD" unicode="&#x1ebd;" horiz-adv-x="557" 
d="M507 145l-5 -120q-82 -35 -179 -35q-78 0 -135 21.5t-89 60t-46.5 84.5t-14.5 101q0 117 71 190t189 73q115 0 170 -82.5t28 -221.5h-291q7 -96 144 -96q73 0 158 25zM345 319q3 40 -14.5 63t-52.5 23q-31 0 -52 -22t-21 -67zM486 768q-13 -50 -30 -82.5t-37 -47t-36 -19
t-37 -4.5q-29 0 -72 16l-8 3q-26 10 -43 10q-10 0 -17.5 -2.5t-18 -16t-19.5 -37.5l-91 23q13 50 30 82.5t37 47t36 19t37 4.5q29 0 72 -16l8 -3q26 -10 43 -10q10 0 17.5 2.5t18 16t19.5 37.5z" />
    <glyph glyph-name="uni1EF2" unicode="&#x1ef2;" horiz-adv-x="745" 
d="M457 0h-180v277l-267 433h211l159 -271l164 271h191l-278 -432v-278zM503 872l-26 -107l-272 78l22 127z" />
    <glyph glyph-name="uni1EF3" unicode="&#x1ef3;" horiz-adv-x="599" 
d="M564 510q-18 -192 -73 -360q-66 -197 -181 -293q-89 -74 -235 -116l-61 136q131 42 187 97q-48 110 -97 244t-74 213l-25 79h191q63 -239 118 -391q20 42 37 101q33 114 47 290h166zM419 667l-41 -102l-258 115l39 123z" />
    <glyph glyph-name="uni1EF8" unicode="&#x1ef8;" horiz-adv-x="745" 
d="M457 0h-180v277l-267 433h211l159 -271l164 271h191l-278 -432v-278zM563 937q-13 -50 -30 -82.5t-37 -47t-36 -19t-37 -4.5q-29 0 -72 16l-8 3q-26 10 -43 10q-10 0 -17.5 -2.5t-18 -16t-19.5 -37.5l-91 23q13 50 30 82.5t37 47t36 19t37 4.5q29 0 72 -16l8 -3
q26 -10 43 -10q10 0 17.5 2.5t18 16t19.5 37.5z" />
    <glyph glyph-name="uni1EF9" unicode="&#x1ef9;" horiz-adv-x="599" 
d="M564 510q-18 -192 -73 -360q-66 -197 -181 -293q-89 -74 -235 -116l-61 136q131 42 187 97q-48 110 -97 244t-74 213l-25 79h191q63 -239 118 -391q20 42 37 101q33 114 47 290h166zM497 768q-13 -50 -30 -82.5t-37 -47t-36 -19t-37 -4.5q-29 0 -72 16l-8 3
q-26 10 -43 10q-10 0 -17.5 -2.5t-18 -16t-19.5 -37.5l-91 23q13 50 30 82.5t37 47t36 19t37 4.5q29 0 72 -16l8 -3q26 -10 43 -10q10 0 17.5 2.5t18 16t19.5 37.5z" />
    <glyph glyph-name="endash" unicode="&#x2013;" horiz-adv-x="500" 
d="M20 201v137h460v-137h-460z" />
    <glyph glyph-name="emdash" unicode="&#x2014;" horiz-adv-x="1000" 
d="M20 201v137h960v-137h-960z" />
    <glyph glyph-name="quoteleft" unicode="&#x2018;" horiz-adv-x="287" 
d="M30 563q0 116 164 257l83 -54q-128 -131 -75 -207q7 -10 16.5 -19.5t15.5 -13.5l5 -5q-33 -75 -106 -75q-38 0 -65 23q-38 31 -38 94z" />
    <glyph glyph-name="quoteright" unicode="&#x2019;" horiz-adv-x="287" 
d="M257 652q0 -116 -164 -257l-83 54q128 131 75 207q-7 10 -16.5 19.5l-14.5 14.5l-6 4q33 75 106 75q38 0 65 -23q38 -31 38 -94z" />
    <glyph glyph-name="quotesinglbase" unicode="&#x201a;" horiz-adv-x="287" 
d="M257 80q0 -116 -164 -257l-83 54q128 131 75 207q-7 10 -16.5 19.5l-14.5 14.5l-6 4q33 75 106 75q38 0 65 -23q38 -31 38 -94z" />
    <glyph glyph-name="quotedblleft" unicode="&#x201c;" horiz-adv-x="517" 
d="M290 575q0 110 138 239l79 -52q-37 -42 -55 -76.5t-16.5 -60.5t5 -37.5t13.5 -28.5q6 -11 14 -22.5t13 -16.5l5 -6q-41 -56 -96 -56q-39 0 -65 25q-35 33 -35 92zM30 575q0 105 145 248l82 -53q-39 -45 -58.5 -81.5t-19 -62.5t4 -38.5t12.5 -28.5q6 -11 14 -22.5
t13 -16.5l5 -6q-41 -56 -96 -56q-41 0 -68 26q-34 32 -34 91z" />
    <glyph glyph-name="quotedblright" unicode="&#x201d;" horiz-adv-x="517" 
d="M227 653q0 -110 -138 -239l-79 52q37 42 55 76.5t16.5 60.5t-5 37.5t-13.5 28.5q-6 11 -14 22.5t-13 16.5l-5 6q41 56 96 56q39 0 65 -25q35 -33 35 -92zM487 653q0 -105 -145 -248l-82 53q39 45 58.5 81.5t19 62.5t-4 38.5t-12.5 28.5q-6 11 -14 22.5t-13 16.5l-5 6
q41 56 96 56q41 0 68 -26q34 -32 34 -91z" />
    <glyph glyph-name="quotedblbase" unicode="&#x201e;" horiz-adv-x="517" 
d="M227 80q0 -110 -138 -239l-79 52q37 42 55 76.5t16.5 60.5t-5 37.5t-13.5 28.5q-6 11 -14 22.5t-13 17.5l-5 5q41 56 96 56q39 0 65 -25q35 -33 35 -92zM487 80q0 -105 -145 -248l-82 53q39 45 58.5 81.5t19 62.5t-4 38.5t-12.5 28.5q-6 11 -14 22.5t-13 17.5l-5 5
q41 56 96 56q41 0 68 -26q34 -32 34 -91z" />
    <glyph glyph-name="dagger" unicode="&#x2020;" horiz-adv-x="642" 
d="M602 346l-70 3q-33 1 -71.5 5t-60.5 7l-22 3q20 -104 20 -180q0 -39 -11 -434h-132q-11 395 -11 434q0 76 20 180q-79 -12 -154 -15l-70 -3v145l70 -3q33 -1 71.5 -5t60.5 -7l22 -3q-13 79 -15 145l-3 99h150l-3 -99q-1 -29 -4.5 -65.5t-6.5 -58.5l-4 -21q79 12 154 15
l70 3v-145z" />
    <glyph glyph-name="daggerdbl" unicode="&#x2021;" horiz-adv-x="642" 
d="M602 -27l-70 3q-33 1 -71.5 5t-60.5 7l-22 3q13 -79 15 -145l3 -99h-150l3 99q1 29 4.5 65.5t6.5 58.5l4 21q-79 -12 -154 -15l-70 -3v145l70 -3q33 -1 71.5 -5t60.5 -7l22 -3q-18 86 -18 142t18 142q-79 -12 -154 -15l-70 -3v145l70 -3q33 -1 71.5 -5t60.5 -7l22 -3
q-13 79 -15 145l-3 99h150l-3 -99q-1 -29 -4.5 -65.5t-6.5 -58.5l-4 -21q79 12 154 15l70 3v-145l-70 3q-33 1 -71.5 5t-60.5 7l-22 3q18 -86 18 -142t-18 -142q79 12 154 15l70 3v-145z" />
    <glyph glyph-name="bullet" unicode="&#x2022;" horiz-adv-x="302" 
d="M272 347q0 -52 -35.5 -86.5t-87.5 -34.5q-51 0 -85 36t-34 87q0 50 34 85t87 35q54 0 87.5 -34.5t33.5 -87.5z" />
    <glyph glyph-name="ellipsis" unicode="&#x2026;" horiz-adv-x="756" 
d="M230 86q0 -42 -25.5 -69t-70.5 -27q-43 0 -68.5 27.5t-25.5 72.5q0 42 25.5 69t70.5 27q43 0 68.5 -27.5t25.5 -72.5zM473 86q0 -42 -25.5 -69t-70.5 -27q-43 0 -68.5 27.5t-25.5 72.5q0 42 25.5 69t70.5 27q43 0 68.5 -27.5t25.5 -72.5zM716 86q0 -42 -25.5 -69
t-70.5 -27q-43 0 -68.5 27.5t-25.5 72.5q0 42 25.5 69t70.5 27q43 0 68.5 -27.5t25.5 -72.5z" />
    <glyph glyph-name="perthousand" unicode="&#x2030;" horiz-adv-x="1293" 
d="M383 540q0 -91 -52 -140.5t-127 -49.5q-74 0 -124 50.5t-50 130.5q0 91 52 140t127 49q74 0 124 -50t50 -130zM266 531q0 38 -17.5 62.5t-44.5 24.5q-25 0 -41 -19t-16 -59q0 -39 17.5 -63.5t44.5 -24.5q25 0 41 19.5t16 59.5zM671 706l-338 -727l-102 43l338 724z
M867 180q0 -91 -52 -140.5t-127 -49.5q-74 0 -124 50.5t-50 130.5q0 91 52 140t127 49q74 0 124 -50t50 -130zM750 171q0 38 -17.5 62.5t-44.5 24.5q-25 0 -41 -19t-16 -59q0 -39 17.5 -63.5t44.5 -24.5q25 0 41 19.5t16 59.5zM1263 180q0 -91 -52 -140.5t-127 -49.5
q-74 0 -124 50.5t-50 130.5q0 91 52 140.5t127 49.5q74 0 124 -50.5t50 -130.5zM1146 171q0 39 -17.5 63.5t-44.5 24.5q-25 0 -41 -19.5t-16 -59.5q0 -39 17.5 -63.5t44.5 -24.5q25 0 41 19.5t16 59.5z" />
    <glyph glyph-name="guilsinglleft" unicode="&#x2039;" horiz-adv-x="350" 
d="M10 262l204 253l107 -88l-131 -160l140 -180l-118 -87z" />
    <glyph glyph-name="guilsinglright" unicode="&#x203a;" horiz-adv-x="350" 
d="M340 253l-204 -253l-107 88l131 160l-140 180l118 87z" />
    <glyph glyph-name="fraction" unicode="&#x2044;" horiz-adv-x="392" 
d="M405 731l-356 -774l-61 29l356 774z" />
    <glyph glyph-name="fraction" unicode="&#x2215;" horiz-adv-x="392" 
d="M405 731l-356 -774l-61 29l356 774z" />
    <glyph glyph-name="zero.sup" unicode="&#x2070;" horiz-adv-x="390" 
d="M370 620q0 -113 -49.5 -169.5t-129.5 -56.5q-81 0 -126 54.5t-45 167.5t49 169.5t129 56.5q81 0 126.5 -54.5t45.5 -167.5zM255 616q0 131 -59 131q-30 0 -45.5 -27t-15.5 -100q0 -131 59 -131q30 0 45.5 27t15.5 100z" />
    <glyph glyph-name="four.sup" unicode="&#x2074;" horiz-adv-x="390" 
d="M375 577l-7 -94h-43v-83h-113v83h-192v82l187 271h118v-259h50zM213 695l-80 -118h79v89z" />
    <glyph glyph-name="five.sup" unicode="&#x2075;" horiz-adv-x="390" 
d="M345 846l-12 -103l-162 -6l-8 -52q99 -10 140.5 -51.5t41.5 -93.5q0 -59 -45.5 -102.5t-125.5 -43.5q-65 0 -126 30v96q69 -30 109 -30q31 0 47 13.5t16 32.5q0 68 -176 70l39 227z" />
    <glyph glyph-name="six.sup" unicode="&#x2076;" horiz-adv-x="390" 
d="M363 542q0 -62 -44.5 -105t-111.5 -43q-77 0 -129.5 52t-52.5 155q0 111 64 175.5t175 64.5q31 0 81 -5v-93q-35 4 -67 4q-109 0 -128 -78q31 12 60 12q64 0 108.5 -38.5t44.5 -100.5zM245 534q0 23 -17.5 37t-43.5 14q-24 0 -42 -6q1 -49 19.5 -69.5t40.5 -20.5
q43 0 43 45z" />
    <glyph glyph-name="seven.sup" unicode="&#x2077;" horiz-adv-x="390" 
d="M349 836v-97l-195 -351l-102 41l167 301h-184l5 106h309z" />
    <glyph glyph-name="eight.sup" unicode="&#x2078;" horiz-adv-x="390" 
d="M370 527q0 -51 -45.5 -92t-132.5 -41q-74 0 -121 35t-47 86q0 62 67 101q-61 41 -61 100q0 53 45 89.5t127 36.5q73 0 114.5 -32t41.5 -80q0 -57 -66 -96q78 -41 78 -107zM248 722q0 16 -14 26.5t-37 10.5q-22 0 -34.5 -10t-12.5 -24q0 -13 12.5 -25t46.5 -28
q39 23 39 50zM248 516q0 15 -16.5 29t-58.5 32q-38 -21 -38 -51q0 -20 16.5 -34t43.5 -14q25 0 39 11t14 27z" />
    <glyph glyph-name="nine.sup" unicode="&#x2079;" horiz-adv-x="390" 
d="M364 635q0 -111 -64.5 -175.5t-174.5 -64.5q-32 0 -82 5v93q36 -4 68 -4q48 0 83 19t45 59q-31 -12 -60 -12q-64 0 -108.5 38.5t-44.5 100.5t44 105t111 43q78 0 130.5 -52t52.5 -155zM247 657q-1 49 -19.5 69.5t-40.5 20.5q-44 0 -44 -45q0 -23 18 -37t44 -14q24 0 42 6
z" />
    <glyph glyph-name="parenleft.sup" unicode="&#x207d;" horiz-adv-x="318" 
d="M292 337l-74 -39q-85 42 -133.5 125.5t-48.5 185.5t48.5 185.5t133.5 125.5l74 -39q-154 -94 -154 -272t154 -272z" />
    <glyph glyph-name="parenright.sup" unicode="&#x207e;" horiz-adv-x="318" 
d="M292 609q0 -102 -48.5 -185.5t-133.5 -125.5l-74 39q154 94 154 272t-154 272l74 39q85 -42 133.5 -125.5t48.5 -185.5z" />
    <glyph glyph-name="zero.inf" unicode="&#x2080;" horiz-adv-x="390" 
d="M370 80q0 -113 -49.5 -169.5t-129.5 -56.5q-81 0 -126 54.5t-45 167.5t49 169.5t129 56.5q81 0 126.5 -54.5t45.5 -167.5zM255 76q0 131 -59 131q-30 0 -45.5 -27t-15.5 -100q0 -131 59 -131q30 0 45.5 27t15.5 100z" />
    <glyph glyph-name="one.inf" unicode="&#x2081;" horiz-adv-x="307" 
d="M237 -140h-114v340l-91 -7l-7 94l111 13h101v-440z" />
    <glyph glyph-name="two.inf" unicode="&#x2082;" horiz-adv-x="390" 
d="M355 -42l-9 -98h-302v83l79 77q56 55 73.5 83.5t17.5 49.5q0 24 -20 38.5t-50 14.5q-44 0 -96 -21l-8 90q60 27 127 27q78 0 123 -42.5t45 -98.5q0 -86 -106 -178l-29 -25h155z" />
    <glyph glyph-name="three.inf" unicode="&#x2083;" horiz-adv-x="390" 
d="M347 -12q0 -53 -47 -93.5t-134 -40.5q-69 0 -123 30v95q67 -33 118 -33q66 0 66 39q0 44 -102 52v80q95 11 95 55q0 16 -15 27.5t-45 11.5q-45 0 -99 -25l-9 89q62 27 128 27q76 0 115.5 -34.5t39.5 -83.5q0 -63 -65 -96q77 -30 77 -100z" />
    <glyph glyph-name="four.inf" unicode="&#x2084;" horiz-adv-x="390" 
d="M375 37l-7 -94h-43v-83h-113v83h-192v82l187 271h118v-259h50zM213 155l-80 -118h79v89z" />
    <glyph glyph-name="five.inf" unicode="&#x2085;" horiz-adv-x="390" 
d="M345 306l-12 -103l-162 -6l-8 -52q99 -10 140.5 -51.5t41.5 -93.5q0 -59 -45.5 -102.5t-125.5 -43.5q-65 0 -126 30v96q69 -30 109 -30q31 0 47 13.5t16 32.5q0 68 -176 70l39 227z" />
    <glyph glyph-name="six.inf" unicode="&#x2086;" horiz-adv-x="390" 
d="M363 11q0 -62 -44.5 -105t-111.5 -43q-77 0 -129.5 52t-52.5 155q0 111 64 175.5t175 64.5q31 0 81 -5v-93q-35 4 -67 4q-109 0 -128 -78q31 12 60 12q64 0 108.5 -38.5t44.5 -100.5zM245 3q0 23 -17.5 37t-43.5 14q-24 0 -42 -6q1 -49 19.5 -69.5t40.5 -20.5q43 0 43 45
z" />
    <glyph glyph-name="seven.inf" unicode="&#x2087;" horiz-adv-x="390" 
d="M349 295v-97l-195 -351l-102 41l167 301h-184l5 106h309z" />
    <glyph glyph-name="eight.inf" unicode="&#x2088;" horiz-adv-x="390" 
d="M370 -13q0 -51 -45.5 -92t-132.5 -41q-74 0 -121 35t-47 86q0 62 67 101q-61 41 -61 100q0 53 45 89.5t127 36.5q73 0 114.5 -32t41.5 -80q0 -57 -66 -96q78 -41 78 -107zM248 182q0 16 -14 26.5t-37 10.5q-22 0 -34.5 -10t-12.5 -24q0 -13 12.5 -25t46.5 -28
q39 23 39 50zM248 -24q0 15 -16.5 29t-58.5 32q-38 -21 -38 -51q0 -20 16.5 -34t43.5 -14q25 0 39 11t14 27z" />
    <glyph glyph-name="nine.inf" unicode="&#x2089;" horiz-adv-x="390" 
d="M364 95q0 -111 -64.5 -175.5t-174.5 -64.5q-32 0 -82 5v93q36 -4 68 -4q48 0 83 19t45 59q-31 -12 -60 -12q-64 0 -108.5 38.5t-44.5 100.5t44 105t111 43q78 0 130.5 -52t52.5 -155zM247 117q-1 49 -19.5 69.5t-40.5 20.5q-44 0 -44 -45q0 -23 18 -37t44 -14q24 0 42 6z
" />
    <glyph glyph-name="parenleft.inf" unicode="&#x208d;" horiz-adv-x="318" 
d="M292 -203l-74 -39q-85 42 -133.5 125.5t-48.5 185.5t48.5 185.5t133.5 125.5l74 -39q-154 -94 -154 -272t154 -272z" />
    <glyph glyph-name="parenright.inf" unicode="&#x208e;" horiz-adv-x="318" 
d="M292 69q0 -102 -48.5 -185.5t-133.5 -125.5l-74 39q154 94 154 272t-154 272l74 39q85 -42 133.5 -125.5t48.5 -185.5z" />
    <glyph glyph-name="uni20A1" unicode="&#x20a1;" horiz-adv-x="580" 
d="M570 178l-11 -141q-44 -21 -91 -30l-3 -141l-65 2l3 132q-21 -3 -78 1l-3 -135l-65 2l3 143q-115 26 -177.5 112t-62.5 231q0 151 68.5 236.5t189.5 111.5l3 120l65 -2l-3 -108q45 4 78 1l3 109l65 -2l-3 -113q43 -7 72 -17l-14 -142q-36 11 -62 15l-10 -416q47 10 98 31
zM274 545q-70 -45 -70 -182q0 -126 61 -180zM417 571q-20 3 -77 -3l-11 -419q32 -8 78 -8z" />
    <glyph glyph-name="uni20A3" unicode="&#x20a3;" horiz-adv-x="580" 
d="M530 570h-235v-147h222v-140h-222v-100h167v-77h-167v-106h-180v106h-89v77h89v527h415v-140z" />
    <glyph glyph-name="uni20A4" unicode="&#x20a4;" horiz-adv-x="580" 
d="M546 137l-14 -137h-382q-54 0 -105 -8l-5 115q52 32 72 60.5t18 67.5h-100v65h92q-15 63 -18 83h-74v65h65q-4 93 38 155.5t108.5 88.5t153.5 26q68 0 134 -21l-17 -127q-70 14 -118 14q-52 0 -87.5 -32t-32.5 -104h192v-65h-183q1 -5 8 -36t10 -47h165v-65h-161
q-3 -65 -54 -106q41 8 102 8h193z" />
    <glyph glyph-name="uni20A9" unicode="&#x20a9;" horiz-adv-x="1208" 
d="M1198 318h-177l-104 -315l-196 -6l-115 315l-111 -309l-206 -6l-107 321h-172v65h151l-28 83h-123v65h102l-59 179h192l57 -179h225l-65 179h181l62 -179h216l55 179h174l-59 -179h107v-65h-128l-28 -83h156v-65zM512 466h-190l27 -83h135zM462 318h-93l45 -141zM902 466
h-174l29 -83h119zM856 318h-76l41 -116z" />
    <glyph glyph-name="Euro" unicode="&#x20ac;" horiz-adv-x="580" 
d="M478 250h-211q10 -62 52 -93.5t97 -31.5q57 0 143 32l-8 -134q-75 -33 -164 -33q-121 0 -204 65.5t-99 194.5h-69v65h65q-2 13 -2 40l2 43h-65v65h71q20 132 108.5 194.5t208.5 62.5q81 0 147 -23l-14 -133q-75 21 -128 21q-55 0 -95 -29.5t-48 -92.5h213v-65h-222
q-1 -14 -1 -41l2 -42h221v-65z" />
    <glyph glyph-name="uni20B4" unicode="&#x20b4;" horiz-adv-x="580" 
d="M569 245h-277q-22 -25 -22 -50t22 -45t74 -20q55 0 166 39l-5 -141q-103 -38 -203 -38q-58 0 -103.5 12t-72.5 30.5t-44.5 43t-24 46.5t-6.5 45q0 42 19 78h-81v65h123q25 30 87 83h-210v65h278q36 31 36 66q0 56 -90 56q-60 0 -154 -32l-13 136q102 36 212 36
q65 0 113.5 -16t73.5 -42.5t36.5 -54.5t11.5 -57q0 -54 -26 -92h80v-65h-124q-30 -33 -88 -83h212v-65z" />
    <glyph glyph-name="uni2113" unicode="&#x2113;" horiz-adv-x="547" 
d="M500 558q0 -88 -61.5 -161.5t-161.5 -101.5v-104q0 -37 20.5 -55t52.5 -18q51 0 118 24l-1 -121q-88 -31 -150 -31q-186 0 -186 190v87q-40 -11 -81 -14v111q50 7 81 17v120q0 115 57 167t143 52q73 0 121 -40.5t48 -121.5zM368 549q0 61 -46 61q-45 0 -45 -75v-119
q45 17 68 54t23 79z" />
    <glyph glyph-name="uni2116" unicode="&#x2116;" horiz-adv-x="1332" 
d="M737 710v-710h-202l-286 446q2 -42 2 -100v-346h-171v710h199l288 -444q-1 21 -1 71v373h171zM1267 518q0 -112 -64 -166.5t-155 -54.5q-34 0 -68.5 10.5t-68 33t-54 65t-20.5 98.5q0 107 64.5 161.5t157.5 54.5t150.5 -50.5t57.5 -151.5zM851 117v115h402v-115h-402z
M1126 502q0 59 -21.5 84.5t-54.5 25.5q-72 0 -72 -101q0 -56 22 -81t53 -25h3q70 0 70 97z" />
    <glyph glyph-name="uni2117" unicode="&#x2117;" horiz-adv-x="875" 
d="M835 355q0 -115 -57 -202.5t-148.5 -131t-200.5 -43.5q-166 0 -277.5 100.5t-111.5 274.5q0 115 58 201.5t150 129.5t200 43q166 0 276.5 -99t110.5 -273zM729 347q0 137 -77.5 214.5t-220.5 77.5q-125 0 -204 -74.5t-79 -205.5q0 -138 77.5 -214.5t220.5 -76.5
q126 0 204.5 74t78.5 205zM643 406q0 -67 -44 -108.5t-113 -41.5q-12 0 -34 2v90h6q55 0 55 55q0 28 -23.5 43.5t-64.5 15.5h-11v-317h-129v413h149q37 0 71 -7t66.5 -23t52 -47.5t19.5 -74.5z" />
    <glyph glyph-name="trademark" unicode="&#x2122;" horiz-adv-x="1079" 
d="M402 710l-5 -114h-118v-333h-128v333h-121v114h372zM1029 263h-121l-10 254l-103 -254h-117l-97 253l-8 -253h-116l15 447h164l108 -288l116 288h154z" />
    <glyph glyph-name="uni212E" unicode="&#x212e;" horiz-adv-x="824" 
d="M783 339h-565q2 -129 57 -208t159 -79q64 0 124 28t101 80h102q-131 -174 -335 -174q-176 0 -281 105t-105 255q0 177 107.5 276.5t272.5 99.5q168 0 266.5 -95t96.5 -288zM602 402q-1 135 -54 195t-130 60q-74 0 -128 -46q-69 -59 -72 -209h384z" />
    <glyph glyph-name="uni2153" unicode="&#x2153;" horiz-adv-x="840" 
d="M235 300h-114v340l-91 -7l-7 94l111 13h101v-440zM811 128q0 -53 -47 -93.5t-134 -40.5q-69 0 -123 30v95q67 -33 118 -33q66 0 66 39q0 44 -102 52v80q95 11 95 55q0 16 -15 27.5t-45 11.5q-45 0 -99 -25l-9 89q62 27 128 27q76 0 115.5 -34.5t39.5 -83.5q0 -63 -65 -96
q77 -30 77 -100zM591 731l-356 -774l-61 29l356 774z" />
    <glyph glyph-name="uni2154" unicode="&#x2154;" horiz-adv-x="840" 
d="M335 398l-9 -98h-302v83l79 77q56 55 73.5 83.5t17.5 49.5q0 24 -20 38.5t-50 14.5q-44 0 -96 -21l-8 90q60 27 127 27q78 0 123 -42.5t45 -98.5q0 -86 -106 -178l-29 -25h155zM825 128q0 -53 -47 -93.5t-134 -40.5q-69 0 -123 30v95q67 -33 118 -33q66 0 66 39
q0 44 -102 52v80q95 11 95 55q0 16 -15 27.5t-45 11.5q-45 0 -99 -25l-9 89q62 27 128 27q76 0 115.5 -34.5t39.5 -83.5q0 -63 -65 -96q77 -30 77 -100zM638 731l-356 -774l-61 29l356 774z" />
    <glyph glyph-name="uni215B" unicode="&#x215b;" horiz-adv-x="840" 
d="M235 300h-114v340l-91 -7l-7 94l111 13h101v-440zM831 127q0 -51 -45.5 -92t-132.5 -41q-74 0 -121 35t-47 86q0 62 67 101q-61 41 -61 100q0 53 45 89.5t127 36.5q73 0 114.5 -32t41.5 -80q0 -57 -66 -96q78 -41 78 -107zM709 322q0 16 -14 26.5t-37 10.5
q-22 0 -34.5 -10t-12.5 -24q0 -13 12.5 -25t46.5 -28q39 23 39 50zM709 116q0 15 -16.5 29t-58.5 32q-38 -21 -38 -51q0 -20 16.5 -34t43.5 -14q25 0 39 11t14 27zM579 731l-356 -774l-61 29l356 774z" />
    <glyph glyph-name="uni215C" unicode="&#x215c;" horiz-adv-x="840" 
d="M319 428q0 -53 -47 -93.5t-134 -40.5q-69 0 -123 30v95q67 -33 118 -33q66 0 66 39q0 44 -102 52v80q95 11 95 55q0 16 -15 27.5t-45 11.5q-45 0 -99 -25l-9 89q62 27 128 27q76 0 115.5 -34.5t39.5 -83.5q0 -63 -65 -96q77 -30 77 -100zM825 127q0 -51 -45.5 -92
t-132.5 -41q-74 0 -121 35t-47 86q0 62 67 101q-61 41 -61 100q0 53 45 89.5t127 36.5q73 0 114.5 -32t41.5 -80q0 -57 -66 -96q78 -41 78 -107zM703 322q0 16 -14 26.5t-37 10.5q-22 0 -34.5 -10t-12.5 -24q0 -13 12.5 -25t46.5 -28q39 23 39 50zM703 116q0 15 -16.5 29
t-58.5 32q-38 -21 -38 -51q0 -20 16.5 -34t43.5 -14q25 0 39 11t14 27zM603 731l-356 -774l-61 29l356 774z" />
    <glyph glyph-name="uni215D" unicode="&#x215d;" horiz-adv-x="840" 
d="M321 746l-12 -103l-162 -6l-8 -52q99 -10 140.5 -51.5t41.5 -93.5q0 -59 -45.5 -102.5t-125.5 -43.5q-65 0 -126 30v96q69 -30 109 -30q31 0 47 13.5t16 32.5q0 68 -176 70l39 227zM825 127q0 -51 -45.5 -92t-132.5 -41q-74 0 -121 35t-47 86q0 62 67 101q-61 41 -61 100
q0 53 45 89.5t127 36.5q73 0 114.5 -32t41.5 -80q0 -57 -66 -96q78 -41 78 -107zM703 322q0 16 -14 26.5t-37 10.5q-22 0 -34.5 -10t-12.5 -24q0 -13 12.5 -25t46.5 -28q39 23 39 50zM703 116q0 15 -16.5 29t-58.5 32q-38 -21 -38 -51q0 -20 16.5 -34t43.5 -14q25 0 39 11
t14 27zM604 731l-356 -774l-61 29l356 774z" />
    <glyph glyph-name="uni215E" unicode="&#x215e;" horiz-adv-x="840" 
d="M343 736v-97l-195 -351l-102 41l167 301h-184l5 106h309zM820 127q0 -51 -45.5 -92t-132.5 -41q-74 0 -121 35t-47 86q0 62 67 101q-61 41 -61 100q0 53 45 89.5t127 36.5q73 0 114.5 -32t41.5 -80q0 -57 -66 -96q78 -41 78 -107zM698 322q0 16 -14 26.5t-37 10.5
q-22 0 -34.5 -10t-12.5 -24q0 -13 12.5 -25t46.5 -28q39 23 39 50zM698 116q0 15 -16.5 29t-58.5 32q-38 -21 -38 -51q0 -20 16.5 -34t43.5 -14q25 0 39 11t14 27zM563 731l-356 -774l-61 29l356 774z" />
    <glyph glyph-name="uni2190" unicode="&#x2190;" horiz-adv-x="1083" 
d="M364 616l114 -87l-119 -143q-34 -41 -66 -72q68 4 128 4l612 -1v-155h-612q-64 0 -128 5q33 -33 66 -73l119 -143l-114 -87l-314 378z" />
    <glyph glyph-name="uni2191" unicode="&#x2191;" horiz-adv-x="852" 
d="M802 419l-87 -114l-143 119q-41 34 -72 66q4 -68 4 -128v-612h-156v612q0 60 4 128q-31 -32 -72 -66l-143 -119l-87 114l376 314z" />
    <glyph glyph-name="uni2192" unicode="&#x2192;" horiz-adv-x="1083" 
d="M719 -136l-114 87l119 143q34 41 66 72q-68 -4 -128 -4l-612 1v155h612q64 0 128 -5q-33 33 -66 73l-119 143l114 87l314 -378z" />
    <glyph glyph-name="uni2193" unicode="&#x2193;" horiz-adv-x="852" 
d="M50 64l87 114l143 -119q41 -34 72 -66q-4 68 -4 128v612h156v-612q0 -60 -4 -128q31 32 72 66l143 119l87 -114l-376 -314z" />
    <glyph glyph-name="uni2196" unicode="&#x2196;" horiz-adv-x="893" 
d="M582 633l19 -142l-185 -17q-57 -5 -98 -4q60 -53 93 -88l432 -433l-109 -110l-433 433q-48 49 -87 94q0 -43 -5 -98l-17 -185l-142 19l45 489z" />
    <glyph glyph-name="uni2197" unicode="&#x2197;" horiz-adv-x="893" 
d="M843 102l-142 -19l-17 185q-5 55 -5 98q-39 -45 -87 -94l-433 -433l-109 110l432 433q33 35 93 88q-41 -1 -98 4l-185 17l19 142l487 -42z" />
    <glyph glyph-name="uni2198" unicode="&#x2198;" horiz-adv-x="893" 
d="M311 -156l-19 142l184 17q57 5 98 4q-63 58 -92 88l-432 433l109 110l433 -433q48 -49 87 -94q0 43 5 98l17 185l142 -19l-46 -489z" />
    <glyph glyph-name="uni2199" unicode="&#x2199;" horiz-adv-x="894" 
d="M50 371l142 19l17 -184q5 -57 4 -98q58 63 88 92l433 432l110 -109l-433 -433q-49 -49 -94 -87q43 0 98 -5l185 -17l-19 -142l-489 46z" />
    <glyph glyph-name="partialdiff" unicode="&#x2202;" horiz-adv-x="643" 
d="M589 386q0 -108 -25 -187.5t-69.5 -124t-98 -65.5t-118.5 -21q-98 0 -164 62t-66 158q0 62 32 115.5t86 83.5q72 41 179 41q20 0 52 -2q-10 75 -43 112q-36 39 -99 39q-73 0 -173 -59l-32 127q112 68 235 68q130 0 203 -70q99 -97 101 -277zM400 326q-21 3 -38 3
q-60 0 -92 -25q-38 -29 -38 -95q0 -43 20 -68.5t51 -25.5q34 0 57 30q35 45 40 181z" />
    <glyph glyph-name="product" unicode="&#x220f;" horiz-adv-x="771" 
d="M691 -170h-181v728h-250v-728h-180v880h611v-880z" />
    <glyph glyph-name="summation" unicode="&#x2211;" horiz-adv-x="686" 
d="M620 -170h-592v138l324 286l-301 322v134h553v-146h-294l222 -238v-132l-251 -218h339v-146z" />
    <glyph glyph-name="minus" unicode="&#x2212;" horiz-adv-x="580" 
d="M529 227h-479v118h479v-118z" />
    <glyph glyph-name="radical" unicode="&#x221a;" horiz-adv-x="698" 
d="M693 770l-187 -893l-186 -54l-173 382l-93 -37l-43 103l236 106l152 -357l150 750h144z" />
    <glyph glyph-name="infinity" unicode="&#x221e;" horiz-adv-x="703" 
d="M674 318q0 -71 -43.5 -120.5t-114.5 -49.5q-82 0 -148 66l-21 21l-32 -29q-67 -61 -134 -61q-65 0 -108 44.5t-43 116.5q0 71 43.5 120.5t114.5 49.5q82 0 148 -66l21 -21l32 29q67 61 134 61q65 0 108 -44.5t43 -116.5zM266 310l-17 16q-31 28 -53 28q-19 0 -31.5 -12.5
t-12.5 -30.5q0 -21 11 -32.5t29 -11.5q25 0 56 27zM552 313q0 21 -11 32.5t-29 11.5q-25 0 -56 -27l-18 -16l17 -16q31 -28 53 -28q19 0 31.5 12.5t12.5 30.5z" />
    <glyph glyph-name="integral" unicode="&#x222b;" horiz-adv-x="537" 
d="M472 708l-12 -119q-28 7 -58 7q-33 0 -56 -26.5t-20 -97.5l18 -383q3 -61 -8.5 -108.5t-32 -77t-50 -49t-60 -27t-63.5 -7.5q-55 0 -100 12l12 119q28 -7 58 -7q33 0 56 26.5t20 97.5l-18 383q-3 61 8.5 108.5t32 77t50 49t60 27t63.5 7.5q55 0 100 -12z" />
    <glyph glyph-name="approxequal" unicode="&#x2248;" horiz-adv-x="580" 
d="M533 412q-79 -110 -155 -110q-39 0 -99 34q-42 24 -72 24q-32 0 -86 -54l-75 73q79 110 155 110q39 0 99 -34q42 -24 72 -24q32 0 86 54zM533 182q-79 -110 -155 -110q-39 0 -99 34q-42 24 -72 24q-32 0 -86 -54l-75 73q79 110 155 110q39 0 99 -34q42 -24 72 -24
q32 0 86 54z" />
    <glyph glyph-name="notequal" unicode="&#x2260;" horiz-adv-x="580" 
d="M529 96h-255l-74 -164l-107 47l53 117h-95v120h148l54 120h-202v117h254l74 164l107 -47l-53 -117h96v-117h-148l-54 -120h202v-120z" />
    <glyph glyph-name="lessequal" unicode="&#x2264;" horiz-adv-x="580" 
d="M540 85l-500 209v92l500 209v-127l-308 -127l308 -124v-132zM540 -47h-500v118h500v-118z" />
    <glyph glyph-name="greaterequal" unicode="&#x2265;" horiz-adv-x="580" 
d="M540 294l-500 -209v127l309 126l-309 125v132l500 -209v-92zM540 -47h-500v118h500v-118z" />
    <glyph glyph-name="uni22C5" unicode="&#x22c5;" horiz-adv-x="276" 
d="M236 317q0 -42 -27 -69t-72 -27q-43 0 -70 28t-27 72q0 42 27 69t72 27q43 0 70 -28t27 -72z" />
    <glyph glyph-name="uni2460" unicode="&#x2460;" 
d="M737 355q0 139 -90.5 232t-227.5 93t-227.5 -93t-90.5 -232t90.5 -232t227.5 -93t227.5 93t90.5 232zM808 355q0 -164 -112 -274.5t-277 -110.5t-277 110.5t-112 274.5t112 274.5t277 110.5t277 -110.5t112 -274.5zM375 140h114v440h-101l-111 -13l7 -94l91 7v-340z" />
    <glyph glyph-name="uni2461" unicode="&#x2461;" 
d="M737 355q0 139 -90.5 232t-227.5 93t-227.5 -93t-90.5 -232t90.5 -232t227.5 -93t227.5 93t90.5 232zM808 355q0 -164 -112 -274.5t-277 -110.5t-277 110.5t-112 274.5t112 274.5t277 110.5t277 -110.5t112 -274.5zM580 140l9 98h-155l29 25q106 92 106 178
q0 56 -45 98.5t-123 42.5q-67 0 -127 -27l8 -90q52 21 96 21q30 0 50 -14.5t20 -38.5q0 -21 -17.5 -49.5t-73.5 -83.5l-79 -77v-83h302z" />
    <glyph glyph-name="uni2462" unicode="&#x2462;" 
d="M737 355q0 139 -90.5 232t-227.5 93t-227.5 -93t-90.5 -232t90.5 -232t227.5 -93t227.5 93t90.5 232zM808 355q0 -164 -112 -274.5t-277 -110.5t-277 110.5t-112 274.5t112 274.5t277 110.5t277 -110.5t112 -274.5zM581 266q0 70 -77 100q65 33 65 96q0 49 -39.5 83.5
t-115.5 34.5q-66 0 -128 -27l9 -89q54 25 99 25q30 0 45 -11.5t15 -27.5q0 -44 -95 -55v-80q102 -8 102 -52q0 -39 -66 -39q-51 0 -118 33v-95q54 -30 123 -30q87 0 134 40.5t47 93.5z" />
    <glyph glyph-name="uni2463" unicode="&#x2463;" 
d="M737 355q0 139 -90.5 232t-227.5 93t-227.5 -93t-90.5 -232t90.5 -232t227.5 -93t227.5 93t90.5 232zM808 355q0 -164 -112 -274.5t-277 -110.5t-277 110.5t-112 274.5t112 274.5t277 110.5t277 -110.5t112 -274.5zM334 318l80 118q-1 -1 -1 -29v-89h-79zM569 224l7 94
h-50v259h-118l-187 -271v-82h192v-83h113v83h43z" />
    <glyph glyph-name="uni2464" unicode="&#x2464;" 
d="M737 355q0 139 -90.5 232t-227.5 93t-227.5 -93t-90.5 -232t90.5 -232t227.5 -93t227.5 93t90.5 232zM808 355q0 -164 -112 -274.5t-277 -110.5t-277 110.5t-112 274.5t112 274.5t277 110.5t277 -110.5t112 -274.5zM560 477l12 103l-262 -13l-39 -227q176 -2 176 -70
q0 -19 -16 -32.5t-47 -13.5q-40 0 -109 30v-96q61 -30 126 -30q80 0 125.5 43.5t45.5 102.5q0 52 -41.5 93.5t-140.5 51.5l8 52z" />
    <glyph glyph-name="uni2465" unicode="&#x2465;" 
d="M737 355q0 139 -90.5 232t-227.5 93t-227.5 -93t-90.5 -232t90.5 -232t227.5 -93t227.5 93t90.5 232zM808 355q0 -164 -112 -274.5t-277 -110.5t-277 110.5t-112 274.5t112 274.5t277 110.5t277 -110.5t112 -274.5zM448 274q0 -45 -43 -45q-22 0 -40.5 20.5t-19.5 69.5
q18 6 42 6q26 0 43.5 -14t17.5 -37zM566 282q0 62 -44.5 100.5t-108.5 38.5q-29 0 -60 -12q19 78 128 78q32 0 67 -4v93q-50 5 -81 5q-111 0 -175 -64.5t-64 -175.5q0 -103 52.5 -155t129.5 -52q67 0 111.5 43t44.5 105z" />
    <glyph glyph-name="uni2466" unicode="&#x2466;" 
d="M737 355q0 139 -90.5 232t-227.5 93t-227.5 -93t-90.5 -232t90.5 -232t227.5 -93t227.5 93t90.5 232zM808 355q0 -164 -112 -274.5t-277 -110.5t-277 110.5t-112 274.5t112 274.5t277 110.5t277 -110.5t112 -274.5zM576 482v97h-309l-5 -106h184l-167 -301l102 -41z" />
    <glyph glyph-name="uni2467" unicode="&#x2467;" 
d="M737 355q0 139 -90.5 232t-227.5 93t-227.5 -93t-90.5 -232t90.5 -232t227.5 -93t227.5 93t90.5 232zM808 355q0 -164 -112 -274.5t-277 -110.5t-277 110.5t-112 274.5t112 274.5t277 110.5t277 -110.5t112 -274.5zM469 253q0 -16 -14 -27t-39 -11q-27 0 -43.5 14
t-16.5 34q0 30 38 51q42 -18 58.5 -32t16.5 -29zM469 459q0 -27 -39 -50q-34 16 -46.5 28t-12.5 25q0 14 12.5 24t34.5 10q23 0 37 -10.5t14 -26.5zM591 264q0 66 -78 107q66 39 66 96q0 48 -41.5 80t-114.5 32q-82 0 -127 -36.5t-45 -89.5q0 -59 61 -100q-67 -39 -67 -101
q0 -51 47 -86t121 -35q87 0 132.5 41t45.5 92z" />
    <glyph glyph-name="uni2468" unicode="&#x2468;" 
d="M737 355q0 139 -90.5 232t-227.5 93t-227.5 -93t-90.5 -232t90.5 -232t227.5 -93t227.5 93t90.5 232zM808 355q0 -164 -112 -274.5t-277 -110.5t-277 110.5t-112 274.5t112 274.5t277 110.5t277 -110.5t112 -274.5zM485 397q-18 -6 -42 -6q-26 0 -44 14t-18 37
q0 45 44 45q22 0 40.5 -20.5t19.5 -69.5zM602 375q0 103 -52.5 155t-130.5 52q-67 0 -111 -43t-44 -105t44.5 -100.5t108.5 -38.5q29 0 60 12q-10 -40 -45 -59t-83 -19q-32 0 -68 4v-93q50 -5 82 -5q110 0 174.5 64.5t64.5 175.5z" />
    <glyph glyph-name="uni24EA" unicode="&#x24ea;" 
d="M737 355q0 139 -90.5 232t-227.5 93t-227.5 -93t-90.5 -232t90.5 -232t227.5 -93t227.5 93t90.5 232zM808 355q0 -164 -112 -274.5t-277 -110.5t-277 110.5t-112 274.5t112 274.5t277 110.5t277 -110.5t112 -274.5zM477 357q0 -73 -15.5 -100t-45.5 -27q-59 0 -59 131
q0 73 15.5 100t45.5 27q59 0 59 -131zM592 361q0 113 -45.5 167.5t-126.5 54.5q-80 0 -129 -56.5t-49 -169.5t45 -167.5t126 -54.5q80 0 129.5 56.5t49.5 169.5z" />
    <glyph glyph-name="uni24FF" unicode="&#x24ff;" 
d="M793 355q0 -158 -108.5 -266.5t-265.5 -108.5t-265.5 108.5t-108.5 266.5t108.5 266.5t265.5 108.5t265.5 -108.5t108.5 -266.5zM477 357q0 -73 -15.5 -100t-45.5 -27q-59 0 -59 131q0 73 15.5 100t45.5 27q59 0 59 -131zM592 361q0 113 -45.5 167.5t-126.5 54.5
q-80 0 -129 -56.5t-49 -169.5t45 -167.5t126 -54.5q80 0 129.5 56.5t49.5 169.5z" />
    <glyph glyph-name="lozenge" unicode="&#x25ca;" horiz-adv-x="617" 
d="M597 352l-240 -352h-114l-223 357l239 353h115zM425 346l-119 193l-116 -176l122 -192z" />
    <glyph glyph-name="uni25CB" unicode="&#x25cb;" 
d="M737 355q0 139 -90.5 232t-227.5 93t-227.5 -93t-90.5 -232t90.5 -232t227.5 -93t227.5 93t90.5 232zM808 355q0 -164 -112 -274.5t-277 -110.5t-277 110.5t-112 274.5t112 274.5t277 110.5t277 -110.5t112 -274.5z" />
    <glyph glyph-name="uni25CF" unicode="&#x25cf;" horiz-adv-x="808" 
d="M778 355q0 -158 -108.5 -266.5t-265.5 -108.5t-265.5 108.5t-108.5 266.5t108.5 266.5t265.5 108.5t265.5 -108.5t108.5 -266.5z" />
    <glyph glyph-name="uni2610" unicode="&#x2610;" horiz-adv-x="810" 
d="M774 0h-738v710h738v-710zM708 62v586h-606v-586h606z" />
    <glyph glyph-name="uni2611" unicode="&#x2611;" horiz-adv-x="810" 
d="M774 0h-738v710h738v-710zM708 62v586h-606v-586h606zM595 241l-72 -76l-118 116l-118 -116l-72 76l115 114l-115 114l72 76l118 -117l118 117l72 -76l-116 -114z" />
    <glyph glyph-name="uni2713" unicode="&#x2713;" horiz-adv-x="810" 
d="M595 241l-72 -76l-118 116l-118 -116l-72 76l115 114l-115 114l72 76l118 -117l118 117l72 -76l-116 -114z" />
    <glyph glyph-name="uni2776" unicode="&#x2776;" 
d="M793 355q0 -158 -108.5 -266.5t-265.5 -108.5t-265.5 108.5t-108.5 266.5t108.5 266.5t265.5 108.5t265.5 -108.5t108.5 -266.5zM375 140h114v440h-101l-111 -13l7 -94l91 7v-340z" />
    <glyph glyph-name="uni2777" unicode="&#x2777;" 
d="M793 355q0 -158 -108.5 -266.5t-265.5 -108.5t-265.5 108.5t-108.5 266.5t108.5 266.5t265.5 108.5t265.5 -108.5t108.5 -266.5zM580 140l9 98h-155l29 25q106 92 106 178q0 56 -45 98.5t-123 42.5q-67 0 -127 -27l8 -90q52 21 96 21q30 0 50 -14.5t20 -38.5
q0 -21 -17.5 -49.5t-73.5 -83.5l-79 -77v-83h302z" />
    <glyph glyph-name="uni2778" unicode="&#x2778;" 
d="M793 355q0 -158 -108.5 -266.5t-265.5 -108.5t-265.5 108.5t-108.5 266.5t108.5 266.5t265.5 108.5t265.5 -108.5t108.5 -266.5zM581 266q0 70 -77 100q65 33 65 96q0 49 -39.5 83.5t-115.5 34.5q-66 0 -128 -27l9 -89q54 25 99 25q30 0 45 -11.5t15 -27.5q0 -44 -95 -55
v-80q102 -8 102 -52q0 -39 -66 -39q-51 0 -118 33v-95q54 -30 123 -30q87 0 134 40.5t47 93.5z" />
    <glyph glyph-name="uni2779" unicode="&#x2779;" 
d="M793 355q0 -158 -108.5 -266.5t-265.5 -108.5t-265.5 108.5t-108.5 266.5t108.5 266.5t265.5 108.5t265.5 -108.5t108.5 -266.5zM334 318l80 118q-1 -1 -1 -29v-89h-79zM569 224l7 94h-50v259h-118l-187 -271v-82h192v-83h113v83h43z" />
    <glyph glyph-name="uni277A" unicode="&#x277a;" 
d="M793 355q0 -158 -108.5 -266.5t-265.5 -108.5t-265.5 108.5t-108.5 266.5t108.5 266.5t265.5 108.5t265.5 -108.5t108.5 -266.5zM560 477l12 103l-262 -13l-39 -227q176 -2 176 -70q0 -19 -16 -32.5t-47 -13.5q-40 0 -109 30v-96q61 -30 126 -30q80 0 125.5 43.5
t45.5 102.5q0 52 -41.5 93.5t-140.5 51.5l8 52z" />
    <glyph glyph-name="uni277B" unicode="&#x277b;" 
d="M793 355q0 -158 -108.5 -266.5t-265.5 -108.5t-265.5 108.5t-108.5 266.5t108.5 266.5t265.5 108.5t265.5 -108.5t108.5 -266.5zM448 274q0 -45 -43 -45q-22 0 -40.5 20.5t-19.5 69.5q18 6 42 6q26 0 43.5 -14t17.5 -37zM566 282q0 62 -44.5 100.5t-108.5 38.5
q-29 0 -60 -12q19 78 128 78q32 0 67 -4v93q-50 5 -81 5q-111 0 -175 -64.5t-64 -175.5q0 -103 52.5 -155t129.5 -52q67 0 111.5 43t44.5 105z" />
    <glyph glyph-name="uni277C" unicode="&#x277c;" 
d="M793 355q0 -158 -108.5 -266.5t-265.5 -108.5t-265.5 108.5t-108.5 266.5t108.5 266.5t265.5 108.5t265.5 -108.5t108.5 -266.5zM576 482v97h-309l-5 -106h184l-167 -301l102 -41z" />
    <glyph glyph-name="uni277D" unicode="&#x277d;" 
d="M793 355q0 -158 -108.5 -266.5t-265.5 -108.5t-265.5 108.5t-108.5 266.5t108.5 266.5t265.5 108.5t265.5 -108.5t108.5 -266.5zM469 253q0 -16 -14 -27t-39 -11q-27 0 -43.5 14t-16.5 34q0 30 38 51q42 -18 58.5 -32t16.5 -29zM469 459q0 -27 -39 -50q-34 16 -46.5 28
t-12.5 25q0 14 12.5 24t34.5 10q23 0 37 -10.5t14 -26.5zM591 264q0 66 -78 107q66 39 66 96q0 48 -41.5 80t-114.5 32q-82 0 -127 -36.5t-45 -89.5q0 -59 61 -100q-67 -39 -67 -101q0 -51 47 -86t121 -35q87 0 132.5 41t45.5 92z" />
    <glyph glyph-name="uni277E" unicode="&#x277e;" 
d="M793 355q0 -158 -108.5 -266.5t-265.5 -108.5t-265.5 108.5t-108.5 266.5t108.5 266.5t265.5 108.5t265.5 -108.5t108.5 -266.5zM485 397q-18 -6 -42 -6q-26 0 -44 14t-18 37q0 45 44 45q22 0 40.5 -20.5t19.5 -69.5zM602 375q0 103 -52.5 155t-130.5 52q-67 0 -111 -43
t-44 -105t44.5 -100.5t108.5 -38.5q29 0 60 12q-10 -40 -45 -59t-83 -19q-32 0 -68 4v-93q50 -5 82 -5q110 0 174.5 64.5t64.5 175.5z" />
    <glyph glyph-name="fi" unicode="&#xfb01;" horiz-adv-x="668" 
d="M526 769l-14 -128q-72 15 -137 15q-69 0 -97 -37q-19 -26 -19 -101v-20h116l-6 -128h-110v-370h-170v370h-79v118l79 10v20q0 113 41 172q70 99 242 99q88 0 154 -20zM611 0h-170v485l170 15v-500z" />
    <glyph glyph-name="fl" unicode="&#xfb02;" horiz-adv-x="668" 
d="M611 0h-170v650q-32 6 -66 6q-69 0 -97 -37q-19 -26 -19 -101v-20h116l-6 -128h-110v-370h-170v370h-79v118l79 10v20q0 113 41 172q70 99 242 99q61 0 124 -15l115 9v-783z" />
    <glyph glyph-name="uniFF8F" unicode="&#xff8f;" horiz-adv-x="1000" 
d="M40 -210v920h920v-920h-920zM306 604q0 26 -24 26q-23 0 -23 -26q0 -25 23 -25q24 0 24 25zM299 604q0 -19 -17 -19q-16 0 -16 19q0 20 16 20q17 0 17 -20zM244 619h7q-4 11 -16 11q-16 0 -16 -16v-28h-8v-6h29v6h-14v28q0 10 9 10q7 0 9 -5zM193 580h7v49h-7v-33
q0 -11 -13 -11t-13 14v30h-7v-30q0 -20 20 -20q8 0 13 5v-4zM175 646q0 5 -5 5t-5 -5t5 -5t5 5zM149 599q0 13 -14 18q11 4 11 15q0 18 -24 18h-21v-70h22q26 0 26 19zM138 632q0 -13 -15 -13h-15v25h14q16 0 16 -12zM141 599q0 -13 -18 -13h-15v27h16q17 0 17 -14zM397 615
q0 35 -38 35h-20v-70h20q38 0 38 35zM390 615q0 -29 -31 -29h-13v58h13q31 0 31 -29zM558 596q0 13 -15 13h-9q-9 0 -9 5q0 10 12 10q9 0 13 -7h7q-4 13 -20 13q-19 0 -19 -16q0 -11 15 -11h9q9 0 9 -7q0 -11 -13 -11q-10 0 -13 7h-7q4 -13 20 -13q20 0 20 17zM603 590h-7
q-1 -5 -8 -5q-10 0 -10 11v25h18v6h-18v11h-7v-42q0 -17 17 -17q12 0 15 11zM681 559v91h-41q-23 0 -23 -20t23 -20h9v7h-9q-16 0 -16 13q0 14 16 14h16v-85h7v85h11v-85h7zM195 646q0 5 -5 5t-5 -5t5 -5t5 5zM443 580h7v49h-7v-33q0 -11 -13 -11t-13 14v30h-7v-30
q0 -20 20 -20q8 0 13 5v-4zM472 629h-7v-49h7v33q0 11 13 11t13 -14v-30h7v30q0 20 -20 20q-8 0 -13 -5v4z" />
    <glyph glyph-name="ampersand.alt.1" horiz-adv-x="896" 
d="M856 296h-136q8 -37 8 -69q0 -110 -80 -168.5t-233 -58.5h-335v710h415v-148h-235v-122h596v-144zM562 232q0 25 -6 64h-296v-147h133q96 0 132.5 15t36.5 68z" />
    <glyph glyph-name="ampersand.alt.2" horiz-adv-x="982" 
d="M956 284q0 -226 -141 -364t-372 -138q-107 0 -189.5 34.5t-131.5 94.5t-73.5 134.5t-24.5 159.5q0 193 101 282q63 56 167 56q69 0 105 -34t36 -82q0 -30 -21.5 -60.5t-64.5 -50.5q52 18 140 29l22 91l97 7l-2 -84l86 11l-3 -85l-86 -11l-4 -106q-1 -26 4.5 -37t25.5 -11
q17 0 55 11l-3 -86q-55 -23 -106 -23t-77 28t-22 99l5 111l-110 -13q-105 -12 -190 -31v-2q2 -133 78.5 -221t217.5 -88q142 0 229 95.5t87 260.5q0 107 -32.5 186t-87.5 122t-117 63t-132 20q-117 0 -224 -43v122q112 42 246 42q76 0 148.5 -17.5t139 -56t116 -94
t79 -138.5t29.5 -183zM299 397q0 19 -10.5 31.5t-30.5 12.5q-29 0 -51 -31t-28 -99q62 8 91 34t29 52z" />
    <glyph glyph-name="ampersand.alt.3" horiz-adv-x="806" 
d="M770 407q0 -172 -115 -294t-314 -123q-142 -1 -226 73.5t-84 213.5q0 101 62 176q68 83 193 83q80 0 126 -38.5t46 -92.5q0 -32 -11 -58.5t-38 -51.5t-81.5 -42t-133.5 -22q11 -56 55.5 -86.5t106.5 -30.5q118 0 183 82t65 199q0 125 -72 194t-183 69q-72 0 -139 -22v116
q76 28 162 28q176 0 287 -102.5t111 -270.5zM301 397q0 14 -9 23.5t-26 9.5q-29 0 -52.5 -26.5t-25.5 -78.5q59 6 86 26.5t27 45.5z" />
    <glyph glyph-name="ampersand.alt.4" horiz-adv-x="806" 
d="M770 407q0 -172 -115 -294t-314 -123q-142 -1 -226 73.5t-84 213.5q0 101 62 176q68 83 193 83q74 0 118 -31.5t44 -78.5q0 -21 -9.5 -40t-23.5 -27q24 11 113 32l-9 -100q-117 -18 -251 -44l-74 -15q11 -56 55 -87t107 -31q118 0 183 82t65 199q0 125 -72 194t-183 69
q-72 0 -139 -22v116q76 28 162 28q176 0 287 -102.5t111 -270.5zM301 397q0 14 -9 23.5t-26 9.5q-29 0 -52.5 -26.5t-25.5 -78.5q59 6 86 26.5t27 45.5z" />
    <glyph glyph-name="ampersand.alt.5" horiz-adv-x="884" 
d="M858 445l-8 -118q-84 -6 -88 -6q-28 -144 -138 -237t-283 -94q-142 -1 -226 73.5t-84 213.5q0 101 62 176q68 83 193 83q73 0 117.5 -31.5t44.5 -77.5q0 -45 -31 -67q48 25 187 50q-5 118 -76.5 183t-178.5 65q-72 0 -139 -22v116q76 28 162 28q168 0 277.5 -94.5
t119.5 -250.5zM356 114q93 0 153.5 52t82.5 136q-146 -19 -324 -55l-74 -15q11 -56 55 -87t107 -31zM301 397q0 14 -9 23.5t-26 9.5q-29 0 -52.5 -26.5t-25.5 -78.5q59 6 86 26.5t27 45.5z" />
    <glyph glyph-name="ampersand.alt.6" horiz-adv-x="738" 
d="M703 67l-126 -88q-51 25 -102 57q-81 -46 -178 -46q-111 0 -176.5 51t-65.5 122q0 90 93 135q-55 52 -55 106q0 64 54 105t138 41t130.5 -39.5t46.5 -94.5q0 -91 -103 -132q43 -32 111 -79q34 43 34 115q0 35 -7 76h137q14 -36 14 -80q0 -108 -59 -184q26 -17 114 -65z
M333 406q0 15 -13.5 27t-35.5 12t-36 -11t-14 -27q0 -22 44 -56q55 26 55 55zM360 122q-60 43 -133 103q-24 -19 -24 -47t26 -49.5t70 -21.5q33 0 61 15z" />
    <glyph glyph-name="ampersand.alt.7" horiz-adv-x="776" 
d="M731 214h-108q4 -17 4 -37q0 -85 -64.5 -131t-178.5 -46h-309v540h358v-118h-186v-90h484v-118zM473 180q0 14 -3 34h-223v-94h125q52 0 76.5 14t24.5 46z" />
    <glyph glyph-name="uni24EA.lc" 
d="M737 255q0 139 -90.5 232t-227.5 93t-227.5 -93t-90.5 -232t90.5 -232t227.5 -93t227.5 93t90.5 232zM808 255q0 -164 -112 -274.5t-277 -110.5t-277 110.5t-112 274.5t112 274.5t277 110.5t277 -110.5t112 -274.5zM477 257q0 -73 -15.5 -100t-45.5 -27q-59 0 -59 131
q0 73 15.5 100t45.5 27q59 0 59 -131zM592 261q0 113 -45.5 167.5t-126.5 54.5q-80 0 -129 -56.5t-49 -169.5t45 -167.5t126 -54.5q80 0 129.5 56.5t49.5 169.5z" />
    <glyph glyph-name="uni2460.lc" 
d="M737 255q0 139 -90.5 232t-227.5 93t-227.5 -93t-90.5 -232t90.5 -232t227.5 -93t227.5 93t90.5 232zM808 255q0 -164 -112 -274.5t-277 -110.5t-277 110.5t-112 274.5t112 274.5t277 110.5t277 -110.5t112 -274.5zM375 40h114v440h-101l-111 -13l7 -94l91 7v-340z" />
    <glyph glyph-name="uni2461.lc" 
d="M737 255q0 139 -90.5 232t-227.5 93t-227.5 -93t-90.5 -232t90.5 -232t227.5 -93t227.5 93t90.5 232zM808 255q0 -164 -112 -274.5t-277 -110.5t-277 110.5t-112 274.5t112 274.5t277 110.5t277 -110.5t112 -274.5zM580 40l9 98h-155l29 25q106 92 106 178q0 56 -45 98.5
t-123 42.5q-67 0 -127 -27l8 -90q52 21 96 21q30 0 50 -14.5t20 -38.5q0 -21 -17.5 -49.5t-73.5 -83.5l-79 -77v-83h302z" />
    <glyph glyph-name="uni2462.lc" 
d="M737 255q0 139 -90.5 232t-227.5 93t-227.5 -93t-90.5 -232t90.5 -232t227.5 -93t227.5 93t90.5 232zM808 255q0 -164 -112 -274.5t-277 -110.5t-277 110.5t-112 274.5t112 274.5t277 110.5t277 -110.5t112 -274.5zM581 166q0 70 -77 100q65 33 65 96q0 49 -39.5 83.5
t-115.5 34.5q-66 0 -128 -27l9 -89q54 25 99 25q30 0 45 -11.5t15 -27.5q0 -44 -95 -55v-80q102 -8 102 -52q0 -39 -66 -39q-51 0 -118 33v-95q54 -30 123 -30q87 0 134 40.5t47 93.5z" />
    <glyph glyph-name="uni2463.lc" 
d="M737 255q0 139 -90.5 232t-227.5 93t-227.5 -93t-90.5 -232t90.5 -232t227.5 -93t227.5 93t90.5 232zM808 255q0 -164 -112 -274.5t-277 -110.5t-277 110.5t-112 274.5t112 274.5t277 110.5t277 -110.5t112 -274.5zM334 218l80 118q-1 -1 -1 -29v-89h-79zM569 124l7 94
h-50v259h-118l-187 -271v-82h192v-83h113v83h43z" />
    <glyph glyph-name="uni2464.lc" 
d="M737 255q0 139 -90.5 232t-227.5 93t-227.5 -93t-90.5 -232t90.5 -232t227.5 -93t227.5 93t90.5 232zM808 255q0 -164 -112 -274.5t-277 -110.5t-277 110.5t-112 274.5t112 274.5t277 110.5t277 -110.5t112 -274.5zM560 377l12 103l-262 -13l-39 -227q176 -2 176 -70
q0 -19 -16 -32.5t-47 -13.5q-40 0 -109 30v-96q61 -30 126 -30q80 0 125.5 43.5t45.5 102.5q0 52 -41.5 93.5t-140.5 51.5l8 52z" />
    <glyph glyph-name="uni2465.lc" 
d="M737 255q0 139 -90.5 232t-227.5 93t-227.5 -93t-90.5 -232t90.5 -232t227.5 -93t227.5 93t90.5 232zM808 255q0 -164 -112 -274.5t-277 -110.5t-277 110.5t-112 274.5t112 274.5t277 110.5t277 -110.5t112 -274.5zM448 174q0 -45 -43 -45q-22 0 -40.5 20.5t-19.5 69.5
q18 6 42 6q26 0 43.5 -14t17.5 -37zM566 182q0 62 -44.5 100.5t-108.5 38.5q-29 0 -60 -12q19 78 128 78q32 0 67 -4v93q-50 5 -81 5q-111 0 -175 -64.5t-64 -175.5q0 -103 52.5 -155t129.5 -52q67 0 111.5 43t44.5 105z" />
    <glyph glyph-name="uni2466.lc" 
d="M737 255q0 139 -90.5 232t-227.5 93t-227.5 -93t-90.5 -232t90.5 -232t227.5 -93t227.5 93t90.5 232zM808 255q0 -164 -112 -274.5t-277 -110.5t-277 110.5t-112 274.5t112 274.5t277 110.5t277 -110.5t112 -274.5zM576 382v97h-309l-5 -106h184l-167 -301l102 -41z" />
    <glyph glyph-name="uni2467.lc" 
d="M737 255q0 139 -90.5 232t-227.5 93t-227.5 -93t-90.5 -232t90.5 -232t227.5 -93t227.5 93t90.5 232zM808 255q0 -164 -112 -274.5t-277 -110.5t-277 110.5t-112 274.5t112 274.5t277 110.5t277 -110.5t112 -274.5zM469 153q0 -16 -14 -27t-39 -11q-27 0 -43.5 14
t-16.5 34q0 30 38 51q42 -18 58.5 -32t16.5 -29zM469 359q0 -27 -39 -50q-34 16 -46.5 28t-12.5 25q0 14 12.5 24t34.5 10q23 0 37 -10.5t14 -26.5zM591 164q0 66 -78 107q66 39 66 96q0 48 -41.5 80t-114.5 32q-82 0 -127 -36.5t-45 -89.5q0 -59 61 -100q-67 -39 -67 -101
q0 -51 47 -86t121 -35q87 0 132.5 41t45.5 92z" />
    <glyph glyph-name="uni2468.lc" 
d="M737 255q0 139 -90.5 232t-227.5 93t-227.5 -93t-90.5 -232t90.5 -232t227.5 -93t227.5 93t90.5 232zM808 255q0 -164 -112 -274.5t-277 -110.5t-277 110.5t-112 274.5t112 274.5t277 110.5t277 -110.5t112 -274.5zM485 297q-18 -6 -42 -6q-26 0 -44 14t-18 37
q0 45 44 45q22 0 40.5 -20.5t19.5 -69.5zM602 275q0 103 -52.5 155t-130.5 52q-67 0 -111 -43t-44 -105t44.5 -100.5t108.5 -38.5q29 0 60 12q-10 -40 -45 -59t-83 -19q-32 0 -68 4v-93q50 -5 82 -5q110 0 174.5 64.5t64.5 175.5z" />
    <glyph glyph-name="uni24FF.lc" 
d="M793 255q0 -158 -108.5 -266.5t-265.5 -108.5t-265.5 108.5t-108.5 266.5t108.5 266.5t265.5 108.5t265.5 -108.5t108.5 -266.5zM477 257q0 -73 -15.5 -100t-45.5 -27q-59 0 -59 131q0 73 15.5 100t45.5 27q59 0 59 -131zM592 261q0 113 -45.5 167.5t-126.5 54.5
q-80 0 -129 -56.5t-49 -169.5t45 -167.5t126 -54.5q80 0 129.5 56.5t49.5 169.5z" />
    <glyph glyph-name="uni2776.lc" 
d="M793 255q0 -158 -108.5 -266.5t-265.5 -108.5t-265.5 108.5t-108.5 266.5t108.5 266.5t265.5 108.5t265.5 -108.5t108.5 -266.5zM375 40h114v440h-101l-111 -13l7 -94l91 7v-340z" />
    <glyph glyph-name="uni2777.lc" 
d="M793 255q0 -158 -108.5 -266.5t-265.5 -108.5t-265.5 108.5t-108.5 266.5t108.5 266.5t265.5 108.5t265.5 -108.5t108.5 -266.5zM580 40l9 98h-155l29 25q106 92 106 178q0 56 -45 98.5t-123 42.5q-67 0 -127 -27l8 -90q52 21 96 21q30 0 50 -14.5t20 -38.5
q0 -21 -17.5 -49.5t-73.5 -83.5l-79 -77v-83h302z" />
    <glyph glyph-name="uni2778.lc" 
d="M793 255q0 -158 -108.5 -266.5t-265.5 -108.5t-265.5 108.5t-108.5 266.5t108.5 266.5t265.5 108.5t265.5 -108.5t108.5 -266.5zM581 166q0 70 -77 100q65 33 65 96q0 49 -39.5 83.5t-115.5 34.5q-66 0 -128 -27l9 -89q54 25 99 25q30 0 45 -11.5t15 -27.5q0 -44 -95 -55
v-80q102 -8 102 -52q0 -39 -66 -39q-51 0 -118 33v-95q54 -30 123 -30q87 0 134 40.5t47 93.5z" />
    <glyph glyph-name="uni2779.lc" 
d="M793 255q0 -158 -108.5 -266.5t-265.5 -108.5t-265.5 108.5t-108.5 266.5t108.5 266.5t265.5 108.5t265.5 -108.5t108.5 -266.5zM334 218l80 118q-1 -1 -1 -29v-89h-79zM569 124l7 94h-50v259h-118l-187 -271v-82h192v-83h113v83h43z" />
    <glyph glyph-name="uni277A.lc" 
d="M793 255q0 -158 -108.5 -266.5t-265.5 -108.5t-265.5 108.5t-108.5 266.5t108.5 266.5t265.5 108.5t265.5 -108.5t108.5 -266.5zM560 377l12 103l-262 -13l-39 -227q176 -2 176 -70q0 -19 -16 -32.5t-47 -13.5q-40 0 -109 30v-96q61 -30 126 -30q80 0 125.5 43.5
t45.5 102.5q0 52 -41.5 93.5t-140.5 51.5l8 52z" />
    <glyph glyph-name="uni277B.lc" 
d="M793 255q0 -158 -108.5 -266.5t-265.5 -108.5t-265.5 108.5t-108.5 266.5t108.5 266.5t265.5 108.5t265.5 -108.5t108.5 -266.5zM448 174q0 -45 -43 -45q-22 0 -40.5 20.5t-19.5 69.5q18 6 42 6q26 0 43.5 -14t17.5 -37zM566 182q0 62 -44.5 100.5t-108.5 38.5
q-29 0 -60 -12q19 78 128 78q32 0 67 -4v93q-50 5 -81 5q-111 0 -175 -64.5t-64 -175.5q0 -103 52.5 -155t129.5 -52q67 0 111.5 43t44.5 105z" />
    <glyph glyph-name="uni277C.lc" 
d="M793 255q0 -158 -108.5 -266.5t-265.5 -108.5t-265.5 108.5t-108.5 266.5t108.5 266.5t265.5 108.5t265.5 -108.5t108.5 -266.5zM576 382v97h-309l-5 -106h184l-167 -301l102 -41z" />
    <glyph glyph-name="uni277D.lc" 
d="M793 255q0 -158 -108.5 -266.5t-265.5 -108.5t-265.5 108.5t-108.5 266.5t108.5 266.5t265.5 108.5t265.5 -108.5t108.5 -266.5zM469 153q0 -16 -14 -27t-39 -11q-27 0 -43.5 14t-16.5 34q0 30 38 51q42 -18 58.5 -32t16.5 -29zM469 359q0 -27 -39 -50q-34 16 -46.5 28
t-12.5 25q0 14 12.5 24t34.5 10q23 0 37 -10.5t14 -26.5zM591 164q0 66 -78 107q66 39 66 96q0 48 -41.5 80t-114.5 32q-82 0 -127 -36.5t-45 -89.5q0 -59 61 -100q-67 -39 -67 -101q0 -51 47 -86t121 -35q87 0 132.5 41t45.5 92z" />
    <glyph glyph-name="uni277E.lc" 
d="M793 255q0 -158 -108.5 -266.5t-265.5 -108.5t-265.5 108.5t-108.5 266.5t108.5 266.5t265.5 108.5t265.5 -108.5t108.5 -266.5zM485 297q-18 -6 -42 -6q-26 0 -44 14t-18 37q0 45 44 45q22 0 40.5 -20.5t19.5 -69.5zM602 275q0 103 -52.5 155t-130.5 52q-67 0 -111 -43
t-44 -105t44.5 -100.5t108.5 -38.5q29 0 60 12q-10 -40 -45 -59t-83 -19q-32 0 -68 4v-93q50 -5 82 -5q110 0 174.5 64.5t64.5 175.5z" />
    <glyph glyph-name="uni2191.alt.1" horiz-adv-x="500" 
d="M450 404l-59 -69l-90 76v-257h-102v257l-90 -76l-59 69l200 165z" />
    <glyph glyph-name="uni2193.alt.1" horiz-adv-x="500" 
d="M50 304l59 69l90 -76v257h102v-257l90 76l59 -69l-200 -165z" />
    <glyph glyph-name="uni2190.alt.1" horiz-adv-x="515" 
d="M215 561l69 -59l-76 -90h257v-102h-257l76 -90l-69 -59l-165 200z" />
    <glyph glyph-name="uni2192.alt.1" horiz-adv-x="515" 
d="M300 161l-69 59l76 90h-257v102h257l-76 90l69 59l165 -200z" />
    <glyph glyph-name="uni2196.alt.1" horiz-adv-x="454" 
d="M332 533l7 -91l-117 -9l182 -182l-72 -72l-182 181l-10 -117l-90 7l24 258z" />
    <glyph glyph-name="uni2197.alt.1" horiz-adv-x="454" 
d="M404 250l-90 -7l-10 117l-182 -181l-72 72l182 182l-117 9l7 91l258 -25z" />
    <glyph glyph-name="uni2199.alt.1" horiz-adv-x="454" 
d="M50 461l91 7l9 -117l182 182l72 -72l-181 -182l117 -10l-7 -90l-258 24z" />
    <glyph glyph-name="uni2198.alt.1" horiz-adv-x="454" 
d="M121 179l-7 90l117 10l-181 182l72 72l182 -182l9 117l91 -7l-25 -258z" />
    <glyph glyph-name="uni2191.alt.2" 
d="M560 330l59 69l-200 165l-200 -165l59 -69l90 76v-257h102v257zM737 355q0 139 -90.5 232t-227.5 93t-227.5 -93t-90.5 -232t90.5 -232t227.5 -93t227.5 93t90.5 232zM808 355q0 -164 -112 -274.5t-277 -110.5t-277 110.5t-112 274.5t112 274.5t277 110.5t277 -110.5
t112 -274.5z" />
    <glyph glyph-name="uni2193.alt.2" 
d="M278 379l-59 -69l200 -165l200 165l-59 69l-90 -76v257h-102v-257zM737 355q0 139 -90.5 232t-227.5 93t-227.5 -93t-90.5 -232t90.5 -232t227.5 -93t227.5 93t90.5 232zM808 355q0 -164 -112 -274.5t-277 -110.5t-277 110.5t-112 274.5t112 274.5t277 110.5t277 -110.5
t112 -274.5z" />
    <glyph glyph-name="uni2190.alt.2" 
d="M439 496l-69 59l-165 -200l165 -200l69 59l-76 90h257v102h-257zM737 355q0 139 -90.5 232t-227.5 93t-227.5 -93t-90.5 -232t90.5 -232t227.5 -93t227.5 93t90.5 232zM808 355q0 -164 -112 -274.5t-277 -110.5t-277 110.5t-112 274.5t112 274.5t277 110.5t277 -110.5
t112 -274.5z" />
    <glyph glyph-name="uni2192.alt.2" 
d="M396 214l69 -59l165 200l-165 200l-69 -59l76 -90h-257v-102h257zM737 355q0 139 -90.5 232t-227.5 93t-227.5 -93t-90.5 -232t90.5 -232t227.5 -93t227.5 93t90.5 232zM808 355q0 -164 -112 -274.5t-277 -110.5t-277 110.5t-112 274.5t112 274.5t277 110.5t277 -110.5
t112 -274.5z" />
    <glyph glyph-name="uni2196.alt.2" 
d="M520 441l-7 91l-258 -25l-24 -258l90 -7l10 117l182 -181l72 72l-182 182zM737 355q0 139 -90.5 232t-227.5 93t-227.5 -93t-90.5 -232t90.5 -232t227.5 -93t227.5 93t90.5 232zM808 355q0 -164 -112 -274.5t-277 -110.5t-277 110.5t-112 274.5t112 274.5t277 110.5
t277 -110.5t112 -274.5z" />
    <glyph glyph-name="uni2197.alt.2" 
d="M495 242l90 7l-24 258l-258 25l-7 -91l117 -9l-182 -182l72 -72l182 181zM737 355q0 139 -90.5 232t-227.5 93t-227.5 -93t-90.5 -232t90.5 -232t227.5 -93t227.5 93t90.5 232zM808 355q0 -164 -112 -274.5t-277 -110.5t-277 110.5t-112 274.5t112 274.5t277 110.5
t277 -110.5t112 -274.5z" />
    <glyph glyph-name="uni2199.alt.2" 
d="M322 467l-91 -7l25 -258l258 -24l7 90l-117 10l181 182l-72 72l-182 -182zM737 355q0 139 -90.5 232t-227.5 93t-227.5 -93t-90.5 -232t90.5 -232t227.5 -93t227.5 93t90.5 232zM808 355q0 -164 -112 -274.5t-277 -110.5t-277 110.5t-112 274.5t112 274.5t277 110.5
t277 -110.5t112 -274.5z" />
    <glyph glyph-name="uni2198.alt.2" 
d="M295 268l7 -90l258 24l25 258l-91 7l-9 -117l-182 182l-72 -72l181 -182zM737 355q0 139 -90.5 232t-227.5 93t-227.5 -93t-90.5 -232t90.5 -232t227.5 -93t227.5 93t90.5 232zM808 355q0 -164 -112 -274.5t-277 -110.5t-277 110.5t-112 274.5t112 274.5t277 110.5
t277 -110.5t112 -274.5z" />
    <glyph glyph-name="uni2191.alt.3" 
d="M793 355q0 -158 -108.5 -266.5t-265.5 -108.5t-265.5 108.5t-108.5 266.5t108.5 266.5t265.5 108.5t265.5 -108.5t108.5 -266.5zM560 330l59 69l-200 165l-200 -165l59 -69l90 76v-257h102v257z" />
    <glyph glyph-name="uni2193.alt.3" 
d="M793 355q0 -158 -108.5 -266.5t-265.5 -108.5t-265.5 108.5t-108.5 266.5t108.5 266.5t265.5 108.5t265.5 -108.5t108.5 -266.5zM278 379l-59 -69l200 -165l200 165l-59 69l-90 -76v257h-102v-257z" />
    <glyph glyph-name="uni2190.alt.3" 
d="M793 355q0 -158 -108.5 -266.5t-265.5 -108.5t-265.5 108.5t-108.5 266.5t108.5 266.5t265.5 108.5t265.5 -108.5t108.5 -266.5zM439 496l-69 59l-165 -200l165 -200l69 59l-76 90h257v102h-257z" />
    <glyph glyph-name="uni2192.alt.3" 
d="M793 355q0 -158 -108.5 -266.5t-265.5 -108.5t-265.5 108.5t-108.5 266.5t108.5 266.5t265.5 108.5t265.5 -108.5t108.5 -266.5zM396 214l69 -59l165 200l-165 200l-69 -59l76 -90h-257v-102h257z" />
    <glyph glyph-name="uni2196.alt.3" 
d="M793 355q0 -158 -108.5 -266.5t-265.5 -108.5t-265.5 108.5t-108.5 266.5t108.5 266.5t265.5 108.5t265.5 -108.5t108.5 -266.5zM520 441l-7 91l-258 -25l-24 -258l90 -7l10 117l182 -181l72 72l-182 182z" />
    <glyph glyph-name="uni2197.alt.3" 
d="M793 355q0 -158 -108.5 -266.5t-265.5 -108.5t-265.5 108.5t-108.5 266.5t108.5 266.5t265.5 108.5t265.5 -108.5t108.5 -266.5zM495 242l90 7l-24 258l-258 25l-7 -91l117 -9l-182 -182l72 -72l182 181z" />
    <glyph glyph-name="uni2199.alt.3" 
d="M793 355q0 -158 -108.5 -266.5t-265.5 -108.5t-265.5 108.5t-108.5 266.5t108.5 266.5t265.5 108.5t265.5 -108.5t108.5 -266.5zM322 467l-91 -7l25 -258l258 -24l7 90l-117 10l181 182l-72 72l-182 -182z" />
    <glyph glyph-name="uni2198.alt.3" 
d="M793 355q0 -158 -108.5 -266.5t-265.5 -108.5t-265.5 108.5t-108.5 266.5t108.5 266.5t265.5 108.5t265.5 -108.5t108.5 -266.5zM295 268l7 -90l258 24l25 258l-91 7l-9 -117l-182 182l-72 -72l181 -182z" />
    <glyph glyph-name="uni2191.alt.4" 
d="M737 355q0 139 -90.5 232t-227.5 93t-227.5 -93t-90.5 -232t90.5 -232t227.5 -93t227.5 93t90.5 232zM808 355q0 -164 -112 -274.5t-277 -110.5t-277 110.5t-112 274.5t112 274.5t277 110.5t277 -110.5t112 -274.5zM291 227h256l-128 322z" />
    <glyph glyph-name="uni2193.alt.4" 
d="M737 355q0 139 -90.5 232t-227.5 93t-227.5 -93t-90.5 -232t90.5 -232t227.5 -93t227.5 93t90.5 232zM808 355q0 -164 -112 -274.5t-277 -110.5t-277 110.5t-112 274.5t112 274.5t277 110.5t277 -110.5t112 -274.5zM547 483h-256l128 -322z" />
    <glyph glyph-name="uni2190.alt.4" 
d="M737 355q0 139 -90.5 232t-227.5 93t-227.5 -93t-90.5 -232t90.5 -232t227.5 -93t227.5 93t90.5 232zM808 355q0 -164 -112 -274.5t-277 -110.5t-277 110.5t-112 274.5t112 274.5t277 110.5t277 -110.5t112 -274.5zM547 227v256l-322 -128z" />
    <glyph glyph-name="uni2192.alt.4" 
d="M737 355q0 139 -90.5 232t-227.5 93t-227.5 -93t-90.5 -232t90.5 -232t227.5 -93t227.5 93t90.5 232zM808 355q0 -164 -112 -274.5t-277 -110.5t-277 110.5t-112 274.5t112 274.5t277 110.5t277 -110.5t112 -274.5zM291 483v-256l322 128z" />
    <glyph glyph-name="uni2196.alt.4" 
d="M737 355q0 139 -90.5 232t-227.5 93t-227.5 -93t-90.5 -232t90.5 -232t227.5 -93t227.5 93t90.5 232zM808 355q0 -164 -112 -274.5t-277 -110.5t-277 110.5t-112 274.5t112 274.5t277 110.5t277 -110.5t112 -274.5zM419 174l181 181l-318 137z" />
    <glyph glyph-name="uni2197.alt.4" 
d="M737 355q0 139 -90.5 232t-227.5 93t-227.5 -93t-90.5 -232t90.5 -232t227.5 -93t227.5 93t90.5 232zM808 355q0 -164 -112 -274.5t-277 -110.5t-277 110.5t-112 274.5t112 274.5t277 110.5t277 -110.5t112 -274.5zM238 355l181 -181l137 318z" />
    <glyph glyph-name="uni2199.alt.4" 
d="M737 355q0 139 -90.5 232t-227.5 93t-227.5 -93t-90.5 -232t90.5 -232t227.5 -93t227.5 93t90.5 232zM808 355q0 -164 -112 -274.5t-277 -110.5t-277 110.5t-112 274.5t112 274.5t277 110.5t277 -110.5t112 -274.5zM600 355l-181 181l-137 -318z" />
    <glyph glyph-name="uni2198.alt.4" 
d="M737 355q0 139 -90.5 232t-227.5 93t-227.5 -93t-90.5 -232t90.5 -232t227.5 -93t227.5 93t90.5 232zM808 355q0 -164 -112 -274.5t-277 -110.5t-277 110.5t-112 274.5t112 274.5t277 110.5t277 -110.5t112 -274.5zM419 536l-181 -181l318 -137z" />
    <glyph glyph-name="uni2191.alt.5" 
d="M793 355q0 -158 -108.5 -266.5t-265.5 -108.5t-265.5 108.5t-108.5 266.5t108.5 266.5t265.5 108.5t265.5 -108.5t108.5 -266.5zM291 227h256l-128 322z" />
    <glyph glyph-name="uni2193.alt.5" 
d="M793 355q0 -158 -108.5 -266.5t-265.5 -108.5t-265.5 108.5t-108.5 266.5t108.5 266.5t265.5 108.5t265.5 -108.5t108.5 -266.5zM547 483h-256l128 -322z" />
    <glyph glyph-name="uni2190.alt.5" 
d="M793 355q0 -158 -108.5 -266.5t-265.5 -108.5t-265.5 108.5t-108.5 266.5t108.5 266.5t265.5 108.5t265.5 -108.5t108.5 -266.5zM547 227v256l-322 -128z" />
    <glyph glyph-name="uni2192.alt.5" 
d="M793 355q0 -158 -108.5 -266.5t-265.5 -108.5t-265.5 108.5t-108.5 266.5t108.5 266.5t265.5 108.5t265.5 -108.5t108.5 -266.5zM291 483v-256l322 128z" />
    <glyph glyph-name="uni2196.alt.5" 
d="M793 355q0 -158 -108.5 -266.5t-265.5 -108.5t-265.5 108.5t-108.5 266.5t108.5 266.5t265.5 108.5t265.5 -108.5t108.5 -266.5zM419 174l181 181l-318 137z" />
    <glyph glyph-name="uni2197.alt.5" 
d="M793 355q0 -158 -108.5 -266.5t-265.5 -108.5t-265.5 108.5t-108.5 266.5t108.5 266.5t265.5 108.5t265.5 -108.5t108.5 -266.5zM238 355l181 -181l137 318z" />
    <glyph glyph-name="uni2199.alt.5" 
d="M793 355q0 -158 -108.5 -266.5t-265.5 -108.5t-265.5 108.5t-108.5 266.5t108.5 266.5t265.5 108.5t265.5 -108.5t108.5 -266.5zM600 355l-181 181l-137 -318z" />
    <glyph glyph-name="uni2198.alt.5" 
d="M793 355q0 -158 -108.5 -266.5t-265.5 -108.5t-265.5 108.5t-108.5 266.5t108.5 266.5t265.5 108.5t265.5 -108.5t108.5 -266.5zM419 536l-181 -181l318 -137z" />
    <glyph glyph-name="uni2191.alt.6" horiz-adv-x="444" 
d="M394 162h-344l172 396z" />
    <glyph glyph-name="uni2193.alt.6" horiz-adv-x="444" 
d="M50 558h344l-172 -396z" />
    <glyph glyph-name="uni2190.alt.6" horiz-adv-x="496" 
d="M446 532v-344l-396 172z" />
    <glyph glyph-name="uni2192.alt.6" horiz-adv-x="496" 
d="M50 188v344l396 -172z" />
    <glyph glyph-name="uni2196.alt.6" horiz-adv-x="502" 
d="M452 392l-244 -244l-158 402z" />
    <glyph glyph-name="uni2197.alt.6" horiz-adv-x="502" 
d="M294 148l-244 244l402 158z" />
    <glyph glyph-name="uni2199.alt.6" horiz-adv-x="502" 
d="M208 576l244 -244l-402 -158z" />
    <glyph glyph-name="uni2198.alt.6" horiz-adv-x="502" 
d="M50 332l244 244l158 -402z" />
    <glyph glyph-name="uni2191.alt.1.lc" horiz-adv-x="500" 
d="M450 304l-59 -69l-90 76v-257h-102v257l-90 -76l-59 69l200 165z" />
    <glyph glyph-name="uni2193.alt.1.lc" horiz-adv-x="500" 
d="M50 204l59 69l90 -76v257h102v-257l90 76l59 -69l-200 -165z" />
    <glyph glyph-name="uni2190.alt.1.lc" horiz-adv-x="515" 
d="M215 461l69 -59l-76 -90h257v-102h-257l76 -90l-69 -59l-165 200z" />
    <glyph glyph-name="uni2192.alt.1.lc" horiz-adv-x="515" 
d="M300 61l-69 59l76 90h-257v102h257l-76 90l69 59l165 -200z" />
    <glyph glyph-name="uni2196.alt.1.lc" horiz-adv-x="454" 
d="M332 433l7 -91l-117 -9l182 -182l-72 -72l-182 181l-10 -117l-90 7l24 258z" />
    <glyph glyph-name="uni2197.alt.1.lc" horiz-adv-x="454" 
d="M404 150l-90 -7l-10 117l-182 -181l-72 72l182 182l-117 9l7 91l258 -25z" />
    <glyph glyph-name="uni2199.alt.1.lc" horiz-adv-x="454" 
d="M50 361l91 7l9 -117l182 182l72 -72l-181 -182l117 -10l-7 -90l-258 24z" />
    <glyph glyph-name="uni2198.alt.1.lc" horiz-adv-x="454" 
d="M121 79l-7 90l117 10l-181 182l72 72l182 -182l9 117l91 -7l-25 -258z" />
    <glyph glyph-name="uni2191.alt.2.lc" 
d="M560 230l59 69l-200 165l-200 -165l59 -69l90 76v-257h102v257zM737 255q0 139 -90.5 232t-227.5 93t-227.5 -93t-90.5 -232t90.5 -232t227.5 -93t227.5 93t90.5 232zM808 255q0 -164 -112 -274.5t-277 -110.5t-277 110.5t-112 274.5t112 274.5t277 110.5t277 -110.5
t112 -274.5z" />
    <glyph glyph-name="uni2193.alt.2.lc" 
d="M278 279l-59 -69l200 -165l200 165l-59 69l-90 -76v257h-102v-257zM737 255q0 139 -90.5 232t-227.5 93t-227.5 -93t-90.5 -232t90.5 -232t227.5 -93t227.5 93t90.5 232zM808 255q0 -164 -112 -274.5t-277 -110.5t-277 110.5t-112 274.5t112 274.5t277 110.5t277 -110.5
t112 -274.5z" />
    <glyph glyph-name="uni2190.alt.2.lc" 
d="M439 396l-69 59l-165 -200l165 -200l69 59l-76 90h257v102h-257zM737 255q0 139 -90.5 232t-227.5 93t-227.5 -93t-90.5 -232t90.5 -232t227.5 -93t227.5 93t90.5 232zM808 255q0 -164 -112 -274.5t-277 -110.5t-277 110.5t-112 274.5t112 274.5t277 110.5t277 -110.5
t112 -274.5z" />
    <glyph glyph-name="uni2192.alt.2.lc" 
d="M396 114l69 -59l165 200l-165 200l-69 -59l76 -90h-257v-102h257zM737 255q0 139 -90.5 232t-227.5 93t-227.5 -93t-90.5 -232t90.5 -232t227.5 -93t227.5 93t90.5 232zM808 255q0 -164 -112 -274.5t-277 -110.5t-277 110.5t-112 274.5t112 274.5t277 110.5t277 -110.5
t112 -274.5z" />
    <glyph glyph-name="uni2196.alt.2.lc" 
d="M520 341l-7 91l-258 -25l-24 -258l90 -7l10 117l182 -181l72 72l-182 182zM737 255q0 139 -90.5 232t-227.5 93t-227.5 -93t-90.5 -232t90.5 -232t227.5 -93t227.5 93t90.5 232zM808 255q0 -164 -112 -274.5t-277 -110.5t-277 110.5t-112 274.5t112 274.5t277 110.5
t277 -110.5t112 -274.5z" />
    <glyph glyph-name="uni2197.alt.2.lc" 
d="M495 142l90 7l-24 258l-258 25l-7 -91l117 -9l-182 -182l72 -72l182 181zM737 255q0 139 -90.5 232t-227.5 93t-227.5 -93t-90.5 -232t90.5 -232t227.5 -93t227.5 93t90.5 232zM808 255q0 -164 -112 -274.5t-277 -110.5t-277 110.5t-112 274.5t112 274.5t277 110.5
t277 -110.5t112 -274.5z" />
    <glyph glyph-name="uni2199.alt.2.lc" 
d="M322 367l-91 -7l25 -258l258 -24l7 90l-117 10l181 182l-72 72l-182 -182zM737 255q0 139 -90.5 232t-227.5 93t-227.5 -93t-90.5 -232t90.5 -232t227.5 -93t227.5 93t90.5 232zM808 255q0 -164 -112 -274.5t-277 -110.5t-277 110.5t-112 274.5t112 274.5t277 110.5
t277 -110.5t112 -274.5z" />
    <glyph glyph-name="uni2198.alt.2.lc" 
d="M295 168l7 -90l258 24l25 258l-91 7l-9 -117l-182 182l-72 -72l181 -182zM737 255q0 139 -90.5 232t-227.5 93t-227.5 -93t-90.5 -232t90.5 -232t227.5 -93t227.5 93t90.5 232zM808 255q0 -164 -112 -274.5t-277 -110.5t-277 110.5t-112 274.5t112 274.5t277 110.5
t277 -110.5t112 -274.5z" />
    <glyph glyph-name="uni2191.alt.3.lc" 
d="M793 255q0 -158 -108.5 -266.5t-265.5 -108.5t-265.5 108.5t-108.5 266.5t108.5 266.5t265.5 108.5t265.5 -108.5t108.5 -266.5zM560 230l59 69l-200 165l-200 -165l59 -69l90 76v-257h102v257z" />
    <glyph glyph-name="uni2193.alt.3.lc" 
d="M793 255q0 -158 -108.5 -266.5t-265.5 -108.5t-265.5 108.5t-108.5 266.5t108.5 266.5t265.5 108.5t265.5 -108.5t108.5 -266.5zM278 279l-59 -69l200 -165l200 165l-59 69l-90 -76v257h-102v-257z" />
    <glyph glyph-name="uni2190.alt.3.lc" 
d="M793 255q0 -158 -108.5 -266.5t-265.5 -108.5t-265.5 108.5t-108.5 266.5t108.5 266.5t265.5 108.5t265.5 -108.5t108.5 -266.5zM439 396l-69 59l-165 -200l165 -200l69 59l-76 90h257v102h-257z" />
    <glyph glyph-name="uni2192.alt.3.lc" 
d="M793 255q0 -158 -108.5 -266.5t-265.5 -108.5t-265.5 108.5t-108.5 266.5t108.5 266.5t265.5 108.5t265.5 -108.5t108.5 -266.5zM396 114l69 -59l165 200l-165 200l-69 -59l76 -90h-257v-102h257z" />
    <glyph glyph-name="uni2196.alt.3.lc" 
d="M793 255q0 -158 -108.5 -266.5t-265.5 -108.5t-265.5 108.5t-108.5 266.5t108.5 266.5t265.5 108.5t265.5 -108.5t108.5 -266.5zM520 341l-7 91l-258 -25l-24 -258l90 -7l10 117l182 -181l72 72l-182 182z" />
    <glyph glyph-name="uni2197.alt.3.lc" 
d="M793 255q0 -158 -108.5 -266.5t-265.5 -108.5t-265.5 108.5t-108.5 266.5t108.5 266.5t265.5 108.5t265.5 -108.5t108.5 -266.5zM495 142l90 7l-24 258l-258 25l-7 -91l117 -9l-182 -182l72 -72l182 181z" />
    <glyph glyph-name="uni2199.alt.3.lc" 
d="M793 255q0 -158 -108.5 -266.5t-265.5 -108.5t-265.5 108.5t-108.5 266.5t108.5 266.5t265.5 108.5t265.5 -108.5t108.5 -266.5zM322 367l-91 -7l25 -258l258 -24l7 90l-117 10l181 182l-72 72l-182 -182z" />
    <glyph glyph-name="uni2198.alt.3.lc" 
d="M793 255q0 -158 -108.5 -266.5t-265.5 -108.5t-265.5 108.5t-108.5 266.5t108.5 266.5t265.5 108.5t265.5 -108.5t108.5 -266.5zM295 168l7 -90l258 24l25 258l-91 7l-9 -117l-182 182l-72 -72l181 -182z" />
    <glyph glyph-name="uni2191.alt.4.lc" 
d="M737 255q0 139 -90.5 232t-227.5 93t-227.5 -93t-90.5 -232t90.5 -232t227.5 -93t227.5 93t90.5 232zM808 255q0 -164 -112 -274.5t-277 -110.5t-277 110.5t-112 274.5t112 274.5t277 110.5t277 -110.5t112 -274.5zM291 127h256l-128 322z" />
    <glyph glyph-name="uni2193.alt.4.lc" 
d="M737 255q0 139 -90.5 232t-227.5 93t-227.5 -93t-90.5 -232t90.5 -232t227.5 -93t227.5 93t90.5 232zM808 255q0 -164 -112 -274.5t-277 -110.5t-277 110.5t-112 274.5t112 274.5t277 110.5t277 -110.5t112 -274.5zM547 383h-256l128 -322z" />
    <glyph glyph-name="uni2190.alt.4.lc" 
d="M737 255q0 139 -90.5 232t-227.5 93t-227.5 -93t-90.5 -232t90.5 -232t227.5 -93t227.5 93t90.5 232zM808 255q0 -164 -112 -274.5t-277 -110.5t-277 110.5t-112 274.5t112 274.5t277 110.5t277 -110.5t112 -274.5zM547 127v256l-322 -128z" />
    <glyph glyph-name="uni2192.alt.4.lc" 
d="M737 255q0 139 -90.5 232t-227.5 93t-227.5 -93t-90.5 -232t90.5 -232t227.5 -93t227.5 93t90.5 232zM808 255q0 -164 -112 -274.5t-277 -110.5t-277 110.5t-112 274.5t112 274.5t277 110.5t277 -110.5t112 -274.5zM291 383v-256l322 128z" />
    <glyph glyph-name="uni2196.alt.4.lc" 
d="M737 255q0 139 -90.5 232t-227.5 93t-227.5 -93t-90.5 -232t90.5 -232t227.5 -93t227.5 93t90.5 232zM808 255q0 -164 -112 -274.5t-277 -110.5t-277 110.5t-112 274.5t112 274.5t277 110.5t277 -110.5t112 -274.5zM419 74l181 181l-318 137z" />
    <glyph glyph-name="uni2197.alt.4.lc" 
d="M737 255q0 139 -90.5 232t-227.5 93t-227.5 -93t-90.5 -232t90.5 -232t227.5 -93t227.5 93t90.5 232zM808 255q0 -164 -112 -274.5t-277 -110.5t-277 110.5t-112 274.5t112 274.5t277 110.5t277 -110.5t112 -274.5zM238 255l181 -181l137 318z" />
    <glyph glyph-name="uni2199.alt.4.lc" 
d="M737 255q0 139 -90.5 232t-227.5 93t-227.5 -93t-90.5 -232t90.5 -232t227.5 -93t227.5 93t90.5 232zM808 255q0 -164 -112 -274.5t-277 -110.5t-277 110.5t-112 274.5t112 274.5t277 110.5t277 -110.5t112 -274.5zM600 255l-181 181l-137 -318z" />
    <glyph glyph-name="uni2198.alt.4.lc" 
d="M737 255q0 139 -90.5 232t-227.5 93t-227.5 -93t-90.5 -232t90.5 -232t227.5 -93t227.5 93t90.5 232zM808 255q0 -164 -112 -274.5t-277 -110.5t-277 110.5t-112 274.5t112 274.5t277 110.5t277 -110.5t112 -274.5zM419 436l-181 -181l318 -137z" />
    <glyph glyph-name="uni2191.alt.5.lc" 
d="M793 255q0 -158 -108.5 -266.5t-265.5 -108.5t-265.5 108.5t-108.5 266.5t108.5 266.5t265.5 108.5t265.5 -108.5t108.5 -266.5zM291 127h256l-128 322z" />
    <glyph glyph-name="uni2193.alt.5.lc" 
d="M793 255q0 -158 -108.5 -266.5t-265.5 -108.5t-265.5 108.5t-108.5 266.5t108.5 266.5t265.5 108.5t265.5 -108.5t108.5 -266.5zM547 383h-256l128 -322z" />
    <glyph glyph-name="uni2190.alt.5.lc" 
d="M793 255q0 -158 -108.5 -266.5t-265.5 -108.5t-265.5 108.5t-108.5 266.5t108.5 266.5t265.5 108.5t265.5 -108.5t108.5 -266.5zM547 127v256l-322 -128z" />
    <glyph glyph-name="uni2192.alt.5.lc" 
d="M793 255q0 -158 -108.5 -266.5t-265.5 -108.5t-265.5 108.5t-108.5 266.5t108.5 266.5t265.5 108.5t265.5 -108.5t108.5 -266.5zM291 383v-256l322 128z" />
    <glyph glyph-name="uni2196.alt.5.lc" 
d="M793 255q0 -158 -108.5 -266.5t-265.5 -108.5t-265.5 108.5t-108.5 266.5t108.5 266.5t265.5 108.5t265.5 -108.5t108.5 -266.5zM419 74l181 181l-318 137z" />
    <glyph glyph-name="uni2197.alt.5.lc" 
d="M793 255q0 -158 -108.5 -266.5t-265.5 -108.5t-265.5 108.5t-108.5 266.5t108.5 266.5t265.5 108.5t265.5 -108.5t108.5 -266.5zM238 255l181 -181l137 318z" />
    <glyph glyph-name="uni2199.alt.5.lc" 
d="M793 255q0 -158 -108.5 -266.5t-265.5 -108.5t-265.5 108.5t-108.5 266.5t108.5 266.5t265.5 108.5t265.5 -108.5t108.5 -266.5zM600 255l-181 181l-137 -318z" />
    <glyph glyph-name="uni2198.alt.5.lc" 
d="M793 255q0 -158 -108.5 -266.5t-265.5 -108.5t-265.5 108.5t-108.5 266.5t108.5 266.5t265.5 108.5t265.5 -108.5t108.5 -266.5zM419 436l-181 -181l318 -137z" />
    <glyph glyph-name="uni2191.alt.6.lc" horiz-adv-x="444" 
d="M394 62h-344l172 396z" />
    <glyph glyph-name="uni2193.alt.6.lc" horiz-adv-x="444" 
d="M50 458h344l-172 -396z" />
    <glyph glyph-name="uni2190.alt.6.lc" horiz-adv-x="496" 
d="M446 432v-344l-396 172z" />
    <glyph glyph-name="uni2192.alt.6.lc" horiz-adv-x="496" 
d="M50 88v344l396 -172z" />
    <glyph glyph-name="uni2196.alt.6.lc" horiz-adv-x="502" 
d="M452 292l-244 -244l-158 402z" />
    <glyph glyph-name="uni2197.alt.6.lc" horiz-adv-x="502" 
d="M294 48l-244 244l402 158z" />
    <glyph glyph-name="uni2199.alt.6.lc" horiz-adv-x="502" 
d="M208 476l244 -244l-402 -158z" />
    <glyph glyph-name="uni2198.alt.6.lc" horiz-adv-x="502" 
d="M50 232l244 244l158 -402z" />
    <glyph glyph-name="germandbls.uc" horiz-adv-x="1159" 
d="M543 213q0 -39 -14 -75.5t-45 -71t-89.5 -55.5t-137.5 -21q-111 0 -202 37l-3 148q127 -39 198 -39q93 0 93 57q0 13 -3.5 22.5t-20 23.5t-46.5 28l-43 19q-101 44 -139.5 95.5t-37.5 117.5q1 90 71 155.5t203 65.5q104 0 182 -27l-14 -139q-85 24 -151 24
q-52 0 -75.5 -18t-23.5 -45q0 -20 17 -37.5t73 -42.5l43 -19q96 -43 130.5 -91t34.5 -112zM1114 213q0 -39 -14 -75.5t-45 -71t-89.5 -55.5t-137.5 -21q-111 0 -202 37l-3 148q127 -39 198 -39q93 0 93 57q0 13 -3.5 22.5t-20 23.5t-46.5 28l-43 19q-101 44 -139.5 95.5
t-37.5 117.5q1 90 71 155.5t203 65.5q104 0 182 -27l-14 -139q-85 24 -151 24q-52 0 -75.5 -18t-23.5 -45q0 -20 17 -37.5t73 -42.5l43 -19q96 -43 130.5 -91t34.5 -112z" />
    <glyph glyph-name="Q.alt.1" horiz-adv-x="833" 
d="M795 370q0 -109 -52 -202t-149 -141q127 -70 191 -99q129 -59 243 -71.5t250 13.5l-7 -128q-153 -44 -289.5 -34t-273.5 78q-38 19 -71.5 37.5t-71.5 43t-57 36.5t-67 45t-62 43q-120 9 -200 70q-139 103 -139 300q0 108 49 187t133 124q88 47 202 47q187 0 289 -117
q82 -95 82 -232zM610 359q0 89 -50 147q-54 64 -149 64q-56 0 -97 -23q-89 -51 -89 -177q0 -118 71 -186q50 -47 119 -47h4q68 0 114 34q37 28 57 78t20 110z" />
    <glyph glyph-name="Q.alt.2" horiz-adv-x="830" 
d="M795 371q0 -106 -50.5 -199.5t-141.5 -138.5q49 -30 72.5 -43.5t63 -32t85.5 -36.5q141 -53 267.5 -78t237 -21.5t191.5 17t180 40.5l-3 -134q-118 -40 -223.5 -60t-223 -21.5t-242.5 27t-258 88.5q-141 64 -357 212q-128 6 -214 71q-139 103 -139 300q0 108 49 187
t133 124q88 47 202 47q187 0 289 -117q82 -95 82 -232zM610 360q0 89 -50 147q-54 64 -149 64q-56 0 -97 -23q-89 -51 -89 -177q0 -118 71 -186q50 -47 119 -47h4q68 0 114 34q37 28 57 78t20 110z" />
    <glyph glyph-name="exclamdown.uc" horiz-adv-x="319" 
d="M68 1l1 110q2 198 22 348h137q20 -150 22 -348l1 -110h-183zM65 628q0 40 26 66.5t69 26.5q42 0 68 -27t26 -69q0 -40 -26 -66.5t-69 -26.5q-42 0 -68 27t-26 69z" />
    <glyph glyph-name="questiondown.uc" horiz-adv-x="431" 
d="M28 152q0 95 74 153l23 18q41 32 41 71q0 16 -5 41l137 36q42 -66 42 -114q0 -63 -71 -118l-23 -18q-35 -28 -35 -50q0 -20 18.5 -32t48.5 -12q48 0 94 14l17 -135q-77 -20 -154 -20q-101 0 -154 51.5t-53 114.5zM144 623q0 40 26 66.5t69 26.5q42 0 68 -27t26 -69
q0 -40 -26 -66.5t-69 -26.5q-42 0 -68 27t-26 69z" />
    <glyph glyph-name="guillemotleft.uc" horiz-adv-x="611" 
d="M10 332l204 253l107 -88l-131 -160l140 -180l-118 -87zM303 332l184 227l96 -79l-118 -144l126 -162l-106 -78z" />
    <glyph glyph-name="guillemotright.uc" horiz-adv-x="611" 
d="M601 323l-204 -253l-107 88l131 160l-140 180l118 87zM308 323l-184 -227l-96 79l118 144l-126 162l106 78z" />
    <glyph glyph-name="guilsinglleft.uc" horiz-adv-x="350" 
d="M10 332l204 253l107 -88l-131 -160l140 -180l-118 -87z" />
    <glyph glyph-name="guilsinglright.uc" horiz-adv-x="350" 
d="M340 323l-204 -253l-107 88l131 160l-140 180l118 87z" />
    <glyph glyph-name="hyphen.uc" horiz-adv-x="350" 
d="M320 288h-290v134h290v-134z" />
    <glyph glyph-name="endash.uc" horiz-adv-x="500" 
d="M20 281v137h460v-137h-460z" />
    <glyph glyph-name="emdash.uc" horiz-adv-x="1000" 
d="M20 281v137h960v-137h-960z" />
    <glyph glyph-name="parenleft.uc" horiz-adv-x="446" 
d="M441 -82l-102 -52q-133 62 -208.5 187t-75.5 277t75.5 277t208.5 187l102 -52q-235 -137 -235 -412t235 -412z" />
    <glyph glyph-name="parenright.uc" horiz-adv-x="446" 
d="M391 330q0 -152 -75.5 -277t-208.5 -187l-102 52q235 137 235 412t-235 412l102 52q133 -62 208.5 -187t75.5 -277z" />
    <glyph glyph-name="braceleft.uc" horiz-adv-x="373" 
d="M353 -19l-6 -111h-277v920h283l-6 -111h-131v-698h137z" />
    <glyph glyph-name="braceright.uc" horiz-adv-x="373" 
d="M303 -130h-283l6 111h131v698h-137l6 111h277v-920z" />
    <glyph glyph-name="bracketleft.uc" horiz-adv-x="481" 
d="M461 -29v-105q-160 -8 -227 40.5t-67 187.5v27q0 77 -26 108t-101 40l3 113q74 10 99 37t25 94v45q0 139 69.5 190.5t224.5 43.5v-105q-84 0 -115.5 -27t-31.5 -95v-29q0 -95 -24 -136t-91 -63q66 -17 90.5 -58t24.5 -138v-27q0 -81 30.5 -112.5t116.5 -30.5z" />
    <glyph glyph-name="bracketright.uc" horiz-adv-x="481" 
d="M20 687v105q160 8 227 -40.5t67 -187.5v-34q0 -77 26 -108t101 -40l-3 -113q-74 -10 -99 -37t-25 -94v-38q0 -139 -69.5 -190.5t-224.5 -43.5v105q84 0 115.5 27t31.5 95v22q0 95 24 136t91 63q-66 17 -90.5 58t-24.5 138v34q0 81 -30.5 112.5t-116.5 30.5z" />
    <glyph glyph-name="zero.prop" horiz-adv-x="609" 
d="M575 359q0 -185 -76 -277t-200 -92q-125 0 -195 88.5t-70 272.5q0 185 76 277t200 92q125 0 195 -88.5t70 -272.5zM404 351q0 115 -23.5 171t-74.5 56q-49 0 -75 -46.5t-26 -172.5q0 -115 23.5 -171t74.5 -56q49 0 75 46.5t26 172.5z" />
    <glyph glyph-name="one.prop" horiz-adv-x="488" 
d="M358 0h-170v567l-143 -11l-10 131l166 23h157v-710z" />
    <glyph glyph-name="two.prop" horiz-adv-x="578" 
d="M533 146l-12 -146h-471v132l124 119q92 88 120 138.5t28 90.5q0 44 -32.5 70.5t-82.5 26.5q-66 0 -144 -34l-11 134q89 43 192 43q119 0 189 -68.5t70 -157.5q0 -146 -169 -293l-63 -55h262z" />
    <glyph glyph-name="three.prop" horiz-adv-x="568" 
d="M518 205q0 -85 -72.5 -150t-206.5 -65q-108 0 -189 47v142q98 -52 181 -52q56 0 82.5 20.5t26.5 52.5q0 34 -37.5 61t-123.5 34v117q150 20 150 99q0 31 -25.5 52.5t-74.5 21.5q-69 0 -152 -40l-12 133q90 42 195 42q117 0 178.5 -55t61.5 -134q0 -43 -26 -87.5
t-89 -72.5q71 -24 102 -69.5t31 -96.5z" />
    <glyph glyph-name="four.prop" horiz-adv-x="641" 
d="M621 278l-12 -140h-109v-138h-170v138h-300v125l292 447h178v-432h121zM333 495l-138 -217h135v147z" />
    <glyph glyph-name="five.prop" horiz-adv-x="570" 
d="M523 726l-17 -154l-253 -10l-16 -97q82 -8 141 -32.5t89.5 -59.5t44 -71.5t13.5 -76.5q0 -95 -70.5 -165t-193.5 -70q-102 0 -194 48v143q104 -48 167 -48q52 0 78 25t26 60q0 16 -5 30t-23 32t-47 31t-83 22.5t-125 10.5l63 361z" />
    <glyph glyph-name="six.prop" horiz-adv-x="617" 
d="M572 228q0 -100 -68.5 -169t-171.5 -69q-57 0 -106 19.5t-89.5 59t-63.5 106t-23 152.5q0 181 99.5 286t271.5 105q73 0 123 -10v-135q-46 5 -101 5q-81 0 -138.5 -36t-70.5 -113q47 22 102 22q99 0 167.5 -62t68.5 -161zM397 215q0 42 -29.5 68t-72.5 26q-41 0 -71 -13
q-1 -90 30.5 -127.5t68.5 -37.5q36 0 55 22.5t19 61.5z" />
    <glyph glyph-name="seven.prop" horiz-adv-x="560" 
d="M520 710v-151l-303 -579l-151 65l266 505h-295l6 160h477z" />
    <glyph glyph-name="eight.prop" horiz-adv-x="608" 
d="M573 204q0 -38 -16 -74.5t-48 -68.5t-87 -51.5t-124 -19.5q-115 0 -187.5 56t-72.5 137q0 102 115 168q-105 68 -105 168q0 85 69.5 143t195.5 58q112 0 176 -50.5t64 -127.5q0 -44 -29 -86.5t-84 -73.5q133 -70 133 -178zM390 529q0 30 -23 49.5t-61 19.5t-59 -18.5
t-21 -45.5q0 -26 21.5 -48t76.5 -49q66 38 66 92zM391 185q0 29 -28 54.5t-96 56.5q-64 -38 -64 -95q0 -37 27.5 -62t72.5 -25q41 0 64.5 21t23.5 50z" />
    <glyph glyph-name="nine.prop" horiz-adv-x="617" 
d="M567 383q0 -181 -99.5 -286t-271.5 -105q-73 0 -123 10v135q46 -5 101 -5q81 0 138.5 36t70.5 113q-47 -22 -102 -22q-99 0 -167.5 62t-68.5 161q0 100 68.5 169t171.5 69q57 0 106 -19.5t89.5 -59t63.5 -106t23 -152.5zM393 414q1 90 -30.5 127.5t-68.5 37.5
q-36 0 -55 -22.5t-19 -61.5q0 -42 29.5 -68t72.5 -26q41 0 71 13z" />
    <glyph glyph-name="numbersign.prop" horiz-adv-x="614" 
d="M579 497l-15 -113h-75l-17 -151h75l-15 -113h-75l-14 -120h-122l14 120h-103l-14 -120h-122l14 120h-75l15 113h75l17 151h-75l15 113h74l15 120h122l-15 -120h103l15 120h122l-15 -120h76zM367 384h-103l-17 -151h103z" />
    <glyph glyph-name="cent.prop" horiz-adv-x="515" 
d="M470 154l-3 -135q-47 -22 -107 -27l-4 -109l-68 2l4 105q-48 2 -90 18t-76.5 47t-55 82.5t-20.5 117.5q0 74 24 129.5t64 85.5t83.5 44t90.5 14l4 108l68 -2l-4 -109q53 -7 83 -19l-16 -132q-47 13 -73 14l-9 -258q47 3 105 24zM307 388q-35 -4 -58.5 -32t-23.5 -84
q0 -110 72 -135z" />
    <glyph glyph-name="dollar.prop" horiz-adv-x="583" 
d="M538 219q0 -34 -12 -66.5t-38 -65t-75 -55t-114 -29.5l-5 -103l-70 3l4 100q-94 7 -167 36l-3 140q105 -33 177 -38l7 149q-106 45 -146.5 94t-39.5 113q1 80 57 139t174 73l6 104l70 -3l-6 -100q72 -1 151 -20l-13 -135q-83 20 -145 22l-8 -153q114 -45 155 -94.5
t41 -110.5zM280 572q-48 -13 -48 -60q0 -38 42 -58zM356 197q0 38 -46 64l-5 -119q51 7 51 55z" />
    <glyph glyph-name="Euro.prop" horiz-adv-x="604" 
d="M483 250h-211q10 -62 52 -93.5t97 -31.5q57 0 143 32l-8 -134q-75 -33 -164 -33q-121 0 -204 65.5t-99 194.5h-69v65h65q-2 13 -2 40l2 43h-65v65h71q20 132 108.5 194.5t208.5 62.5q81 0 147 -23l-14 -133q-75 21 -128 21q-55 0 -95 -29.5t-48 -92.5h213v-65h-222
q-1 -14 -1 -41l2 -42h221v-65z" />
    <glyph glyph-name="uni20A3.prop" horiz-adv-x="559" 
d="M529 570h-235v-147h222v-140h-222v-100h167v-77h-167v-106h-180v106h-89v77h89v527h415v-140z" />
    <glyph glyph-name="sterling.prop" horiz-adv-x="591" 
d="M556 137l-14 -137h-382q-54 0 -105 -8l-5 115q51 31 70.5 58.5t19.5 63.5q0 21 -10 77h-90v77h73q-8 43 -8 83q0 126 84 189t216 63q68 0 134 -21l-17 -127q-70 14 -118 14q-51 0 -85.5 -30t-34.5 -96q0 -28 9 -75h183v-77h-167q7 -35 7 -57q0 -77 -55 -120q41 8 102 8
h193z" />
    <glyph glyph-name="yen.prop" horiz-adv-x="745" 
d="M735 710l-236 -369h144v-65h-186v-83h186v-65h-186v-128h-180v128h-180v65h180v83h-180v65h141l-228 369h211l160 -272l163 272h191z" />
    <glyph glyph-name="uni20A4.prop" horiz-adv-x="591" 
d="M556 137l-14 -137h-382q-54 0 -105 -8l-5 115q52 32 72 60.5t18 67.5h-100v65h92q-15 63 -18 83h-74v65h65q-4 93 38 155.5t108.5 88.5t153.5 26q68 0 134 -21l-17 -127q-70 14 -118 14q-52 0 -87.5 -32t-32.5 -104h192v-65h-183q1 -5 8 -36t10 -47h165v-65h-161
q-3 -65 -54 -106q41 8 102 8h193z" />
    <glyph glyph-name="uni20A1.prop" horiz-adv-x="635" 
d="M595 178l-11 -141q-44 -21 -91 -30l-3 -141l-65 2l3 132q-21 -3 -78 1l-3 -135l-65 2l3 143q-115 26 -177.5 112t-62.5 231q0 151 68.5 236.5t189.5 111.5l3 120l65 -2l-3 -108q45 4 78 1l3 109l65 -2l-3 -113q43 -7 72 -17l-14 -142q-36 11 -62 15l-10 -416q47 10 98 31
zM299 545q-70 -45 -70 -182q0 -126 61 -180zM442 571q-20 3 -77 -3l-11 -419q32 -8 78 -8z" />
    <glyph glyph-name="florin.prop" horiz-adv-x="584" 
d="M564 709l-14 -126q-38 8 -79 8q-40 0 -62 -17.5t-28 -40.5t-8 -64l-2 -35h151v-105h-156l-11 -242q-6 -129 -69.5 -201t-169.5 -72q-61 0 -104 13l-4 128q41 -10 83 -10q84 0 89 120l11 264h-122v105h127l1 23q8 123 76.5 194t188.5 71q54 0 102 -13z" />
    <glyph glyph-name="uni20A9.prop" horiz-adv-x="1208" 
d="M1198 318h-177l-104 -315l-196 -6l-115 315l-111 -309l-206 -6l-107 321h-172v65h151l-28 83h-123v65h102l-59 179h192l57 -179h225l-65 179h181l62 -179h216l55 179h174l-59 -179h107v-65h-128l-28 -83h156v-65zM512 466h-190l27 -83h135zM462 318h-93l45 -141zM902 466
h-174l29 -83h119zM856 318h-76l41 -116z" />
    <glyph glyph-name="uni20B4.prop" horiz-adv-x="646" 
d="M593 245h-277q-22 -25 -22 -50t22 -45t74 -20q55 0 166 39l-5 -141q-103 -38 -203 -38q-58 0 -103.5 12t-72.5 30.5t-44.5 43t-24 46.5t-6.5 45q0 42 19 78h-81v65h123q25 30 87 83h-210v65h278q36 31 36 66q0 56 -90 56q-60 0 -154 -32l-13 136q102 36 212 36
q65 0 113.5 -16t73.5 -42.5t36.5 -54.5t11.5 -57q0 -54 -26 -92h80v-65h-124q-30 -33 -88 -83h212v-65z" />
    <glyph glyph-name="f.alt" horiz-adv-x="394" 
d="M388 783l-12 -129q-12 2 -29 2q-70 0 -83 -56q-5 -23 -5 -82v-20h116l-6 -128h-110v-370h-170v370h-79v118l79 10v20q0 87 17 135q23 68 81 102t139 34q38 0 62 -6z" />
    <glyph glyph-name="f_f.alt" horiz-adv-x="746" 
d="M742 783l-12 -129q-12 2 -29 2q-70 0 -83 -56q-5 -23 -5 -82v-20h116l-6 -128h-110v-370h-170v370h-184v-370h-170v370h-79v118l79 10v20q0 85 17 133q47 138 237 138q40 0 73 -10l-13 -128q-28 5 -53 5q-72 0 -86 -58q-5 -23 -5 -80v-20h184v20q0 87 17 135
q23 68 81 102t139 34q38 0 62 -6z" />
    <glyph glyph-name="longs_longs" horiz-adv-x="698" 
d="M416 779l-13 -128q-28 5 -53 5q-72 0 -86 -58q-5 -23 -5 -80v-518h-170v370h-79v118l79 10v20q0 85 17 133q47 138 237 138q40 0 73 -10zM796 775l-13 -127q-41 8 -78 8q-77 0 -91 -58q-6 -28 -6 -80v-518h-170v370h-79v118l79 10v20q0 82 18 132q48 139 237 139
q61 0 103 -14z" />
    <glyph glyph-name="longs.alt" horiz-adv-x="353" 
d="M388 783l-12 -129q-12 2 -29 2q-70 0 -83 -56q-5 -23 -5 -82v-518h-170v370h-79v118l79 10v20q0 87 17 135q23 68 81 102t139 34q38 0 62 -6z" />
    <glyph glyph-name="longs_longs.alt" horiz-adv-x="702" 
d="M416 779l-13 -128q-28 5 -53 5q-72 0 -86 -58q-5 -23 -5 -80v-518h-170v370h-79v118l79 10v20q0 85 17 133q47 138 237 138q40 0 73 -10zM737 783l-12 -129q-12 2 -29 2q-70 0 -83 -56q-5 -23 -5 -82v-518h-170v370h-79v118l79 10v20q0 87 17 135q23 68 81 102t139 34
q38 0 62 -6z" />
    <glyph glyph-name="c_h" horiz-adv-x="1093" 
d="M454 160l-3 -135q-74 -35 -156 -35q-50 0 -94.5 14.5t-81.5 44.5t-59 82t-22 120q0 74 23.5 129t63 84t82 42.5t89.5 13.5q81 0 133 -21l-14 -133q-53 16 -94 16q-108 0 -108 -114q0 -138 117 -138q53 0 124 30zM1038 0h-170v256q0 43 -4 66q-9 55 -62 55q-43 0 -87 -32
v-345h-170v768l170 15v-243q0 -58 -5 -88q56 68 156 68q119 0 157 -107q15 -42 15 -151v-262z" />
    <glyph glyph-name="c_k" horiz-adv-x="1099" 
d="M454 160l-3 -135q-74 -35 -156 -35q-50 0 -94.5 14.5t-81.5 44.5t-59 82t-22 120q0 74 23.5 129t63 84t82 42.5t89.5 13.5q81 0 133 -21l-14 -133q-53 16 -94 16q-108 0 -108 -114q0 -138 117 -138q53 0 124 30zM715 0h-170v768l170 15v-783zM1094 0h-205l-165 273
l162 237h193l-166 -229z" />
    <glyph glyph-name="c_t" horiz-adv-x="900" 
d="M871 142l-2 -123q-61 -27 -123 -27q-38 0 -67.5 8t-55.5 27.5t-40 58t-14 94.5v190h-71v116l85 12q6 21 6 46q0 49 -32 74q-29 22 -86 22q-56 0 -87.5 -23t-31.5 -55t25 -47q5 -3 13.5 -5.5t20 -5.5t18.5 -5l-14 -133q-53 16 -94 16q-108 0 -108 -114q0 -138 113 -138
q45 0 112 24l-3 -135q-60 -29 -145 -29q-48 0 -91.5 14.5t-80.5 44t-58.5 82t-21.5 120.5q0 125 61 188.5t151 76.5q-32 28 -32 80q0 69 67.5 119.5t204.5 50.5q138 0 201 -54q59 -49 59 -143q0 -18 -2 -35.5t-4 -26.5l-2 -9h116l-6 -128h-113v-171q0 -38 15 -53.5t46 -15.5
q30 0 71 12z" />
    <glyph glyph-name="s_p" horiz-adv-x="1079" 
d="M1041 276q0 -128 -75.5 -204t-219.5 -76q-27 0 -54 4v-250h-170v735q0 80 5 125q-48 9 -88 9q-92 0 -92 -78q0 -19 3 -30q27 -6 52 -14l-12 -119q-67 18 -120 18q-29 0 -43.5 -9t-14.5 -22q0 -12 12 -21t48 -22l35 -13q118 -44 118 -146q0 -67 -55.5 -119.5t-167.5 -52.5
q-84 0 -151 28l-2 124q78 -26 139 -26q63 0 63 32q0 12 -10.5 21t-44.5 22l-35 13q-116 43 -116 147q0 59 46.5 107.5t129.5 58.5q-9 24 -9 55q0 71 60 118t182 47q115 0 241 -16q-16 -87 -16 -232v-46q49 81 155 81q90 0 148.5 -66.5t58.5 -182.5zM868 252q0 65 -25.5 101
t-66.5 36q-44 0 -84 -31v-224q40 -10 71 -10q49 0 77 34t28 94z" />
    <glyph glyph-name="s_t" horiz-adv-x="877" 
d="M846 19q-62 -27 -123 -27q-38 0 -67.5 8t-55.5 27.5t-40 58t-14 94.5v190h-71v116l85 12q6 21 6 46q0 49 -32 74q-29 22 -86 22q-56 0 -87.5 -22.5t-31.5 -55.5q0 -35 24 -51q10 -7 49 -14l-12 -119q-67 18 -120 18q-29 0 -43.5 -9t-14.5 -22q0 -12 12 -21t48 -22l35 -13
q118 -44 118 -146q0 -67 -55.5 -119.5t-167.5 -52.5q-84 0 -151 28l-2 124q78 -26 139 -26q63 0 63 32q0 12 -10.5 21t-44.5 22l-35 13q-116 43 -116 147q0 59 47.5 108t132.5 58q-30 29 -30 78q0 69 67.5 119.5t204.5 50.5q138 0 201 -54q59 -49 59 -143q0 -18 -2 -35.5
t-4 -26.5l-2 -9h116l-6 -128h-113v-171q0 -38 15 -53.5t46 -15.5q30 0 71 12z" />
    <glyph glyph-name="t_t" horiz-adv-x="824" 
d="M795 142l-2 -123q-61 -27 -123 -27q-38 0 -67.5 8t-55.5 27.5t-40 58t-14 94.5v190h-242v-171q0 -38 15 -53.5t46 -15.5q30 0 71 12l-2 -123q-61 -27 -123 -27q-38 0 -67.5 8t-55.5 27.5t-40 58t-14 94.5v190h-71v116l84 12l15 118l142 2v-120h255l15 118l142 2v-120h119
l-6 -128h-113v-171q0 -38 15 -53.5t46 -15.5q30 0 71 12z" />
    <glyph glyph-name="zero.osf" horiz-adv-x="570" 
d="M561 273q0 -126 -81 -204.5t-206 -78.5q-114 0 -189.5 75.5t-75.5 201.5t81 204.5t206 78.5q114 0 189.5 -75.5t75.5 -201.5zM390 268q0 62 -28.5 102t-77.5 40q-48 0 -76 -36.5t-28 -101.5q0 -62 28.5 -102t77.5 -40q48 0 76 36.5t28 101.5z" />
    <glyph glyph-name="one.osf" horiz-adv-x="570" 
d="M499 0h-417v139l130 4v250l-142 -15l-10 131l171 31h151v-397l117 -4v-139z" />
    <glyph glyph-name="two.osf" horiz-adv-x="570" 
d="M512 140l-18 -140h-419v127q137 93 179.5 138t42.5 78q0 32 -25 51.5t-70 19.5q-53 0 -122 -26l-10 125q83 37 186 37q107 0 163 -55.5t56 -126.5q0 -23 -4 -41t-20 -49.5t-56 -67.5t-103 -74q19 4 66 4h154z" />
    <glyph glyph-name="three.osf" horiz-adv-x="570" 
d="M508 35q0 -85 -72.5 -150t-206.5 -65q-108 0 -189 47v142q98 -52 181 -52q56 0 82.5 20.5t26.5 52.5q0 34 -37.5 61t-123.5 34v117q150 20 150 99q0 31 -25.5 52.5t-74.5 21.5q-69 0 -152 -40l-12 133q90 42 195 42q117 0 178.5 -55t61.5 -134q0 -43 -26 -87.5t-89 -72.5
q71 -24 102 -69.5t31 -96.5z" />
    <glyph glyph-name="four.osf" horiz-adv-x="570" 
d="M556 138l-10 -138h-66v-180h-165v180h-295v130l244 410h216v-402h76zM315 138v151l3 87l-141 -240q17 2 58 2h80z" />
    <glyph glyph-name="five.osf" horiz-adv-x="570" 
d="M520 559l-17 -154l-260 -22l-16 -98q82 -8 141 -32t90 -57.5t44.5 -68t13.5 -72.5q0 -95 -70.5 -165t-193.5 -70q-102 0 -194 48v143q104 -48 167 -48q52 0 78 25t26 60q0 18 -10 34.5t-37 36t-88 32t-149 13.5l62 362z" />
    <glyph glyph-name="six.osf" horiz-adv-x="570" 
d="M547 228q0 -100 -68.5 -169t-171.5 -69q-57 0 -106 19.5t-89.5 59t-63.5 106t-23 152.5q0 181 99.5 286t271.5 105q73 0 123 -10v-135q-46 5 -101 5q-81 0 -138.5 -36t-70.5 -113q47 22 102 22q99 0 167.5 -62t68.5 -161zM372 215q0 42 -29.5 68t-72.5 26q-41 0 -71 -13
q-1 -90 30.5 -127.5t68.5 -37.5q36 0 55 22.5t19 61.5z" />
    <glyph glyph-name="seven.osf" horiz-adv-x="570" 
d="M528 540v-151l-303 -579l-151 65l266 505h-295l6 160h477z" />
    <glyph glyph-name="eight.osf" horiz-adv-x="574" 
d="M555 204q0 -38 -16 -74.5t-48 -68.5t-87 -51.5t-124 -19.5q-115 0 -187.5 56t-72.5 137q0 102 115 168q-105 68 -105 168q0 85 69.5 143t195.5 58q112 0 176 -50.5t64 -127.5q0 -44 -29 -86.5t-84 -73.5q133 -70 133 -178zM372 529q0 30 -23 49.5t-61 19.5t-59 -18.5
t-21 -45.5q0 -26 21.5 -48t76.5 -49q66 38 66 92zM373 185q0 29 -28 54.5t-96 56.5q-64 -38 -64 -95q0 -37 27.5 -62t72.5 -25q41 0 64.5 21t23.5 50z" />
    <glyph glyph-name="nine.osf" horiz-adv-x="570" 
d="M547 213q0 -181 -99.5 -286t-271.5 -105q-73 0 -123 10v135q46 -5 101 -5q81 0 138.5 36t70.5 113q-47 -22 -102 -22q-99 0 -167.5 62t-68.5 161q0 100 68.5 169t171.5 69q57 0 106 -19.5t89.5 -59t63.5 -106t23 -152.5zM373 244q1 90 -30.5 127.5t-68.5 37.5
q-36 0 -55 -22.5t-19 -61.5q0 -42 29.5 -68t72.5 -26q41 0 71 13z" />
    <glyph glyph-name="numbersign.osf" horiz-adv-x="570" 
d="M569 497l-15 -113h-75l-17 -151h75l-15 -113h-75l-14 -120h-122l14 120h-103l-14 -120h-122l14 120h-75l15 113h75l17 151h-75l15 113h74l15 120h122l-15 -120h103l15 120h122l-15 -120h76zM357 384h-103l-17 -151h103z" />
    <glyph glyph-name="cent.osf" horiz-adv-x="570" 
d="M451 174v-125q-47 -18 -89 -21l-4 -87l-54 2l4 84q-94 7 -151 61t-57 164q0 120 64.5 174.5t162.5 56.5l4 87l54 -2l-4 -87q26 -3 68 -15l-17 -118q-35 10 -56 13l-8 -212q34 2 83 25zM324 360q-68 -8 -68 -94q0 -92 60 -111z" />
    <glyph glyph-name="dollar.osf" horiz-adv-x="570" 
d="M488 167q0 -26 -11.5 -51.5t-34 -50t-63 -41t-92.5 -19.5l-4 -76l-57 2l4 74q-70 6 -136 31l-2 108q86 -27 145 -29l5 99q-86 29 -119 66.5t-33 88.5q0 64 48.5 110t141.5 49l4 78l57 -2l-4 -76q66 -2 126 -14l-11 -108q-76 16 -121 16l-5 -93q162 -51 162 -162zM275 421
q-17 -4 -26.5 -15t-9.5 -25q0 -23 32 -37zM334 151q0 29 -37 43l-4 -78q20 0 30.5 10t10.5 25z" />
    <glyph glyph-name="Euro.osf" horiz-adv-x="570" 
d="M510 128l-7 -109q-74 -29 -144 -29q-102 0 -172.5 49t-84.5 146h-57v56h55q-1 14 -1 27l1 29h-55v57h59q18 100 93 148t176 48q69 0 129 -20l-13 -107q-71 18 -112 18q-96 0 -111 -86h177v-57h-184q-1 -13 -1 -27l1 -29h184v-56h-175q9 -43 39.5 -64.5t75.5 -21.5
q43 0 127 28z" />
    <glyph glyph-name="uni20A3.osf" horiz-adv-x="570" 
d="M477 428h-191v-103h180v-112h-180v-68h136v-65h-136v-80h-163v80h-73v65h73v395h354v-112z" />
    <glyph glyph-name="sterling.osf" horiz-adv-x="570" 
d="M500 111l-12 -111h-321q-43 0 -94 -7l-5 93q42 23 58 43.5t16 46.5q0 15 -8 55h-74v65h60q-7 35 -7 59q0 97 71 145t183 48q60 0 119 -18l-15 -105q-58 12 -104 12q-39 0 -64.5 -21t-25.5 -67q0 -20 7 -53h150v-65h-135q4 -28 4 -40q0 -49 -37 -83q20 3 67 3h167z" />
    <glyph glyph-name="yen.osf" horiz-adv-x="570" 
d="M571 540l-171 -276h114v-58h-151v-56h151v-58h-151v-92h-164v92h-138v58h138v56h-138v58h105l-166 276h189l104 -193l106 193h172z" />
    <glyph glyph-name="uni20A4.osf" horiz-adv-x="570" 
d="M499 111l-12 -111h-321q-43 0 -94 -7l-5 93q41 23 57 42.5t17 46.5h-81v60h75q-2 9 -6.5 25t-6.5 25h-62v60h52q-2 53 17.5 93t55.5 63.5t81.5 35t99.5 11.5q60 0 119 -18l-15 -105q-58 12 -104 12q-40 0 -65.5 -21.5t-24.5 -70.5h158v-60h-150q1 -3 5.5 -21.5t6.5 -28.5
h138v-60h-133q-5 -38 -36 -67q20 3 67 3h167z" />
    <glyph glyph-name="uni20A1.osf" horiz-adv-x="570" 
d="M502 148l-5 -118q-31 -12 -73 -21l-2 -100l-57 2l1 90q-33 -2 -62 1l-2 -93l-57 2l2 99q-95 22 -148.5 85.5t-53.5 170.5q0 106 58.5 173.5t160.5 87.5l4 99l57 -2l-4 -91q33 2 60 -1l4 94l57 -2l-4 -100q27 -4 56 -13l-9 -119q-29 11 -53 15l-8 -281q30 4 78 22z
M262 404q-61 -30 -61 -128q0 -97 55 -136zM378 415q-36 4 -61 1l-7 -295q26 -8 60 -3z" />
    <glyph glyph-name="florin.osf" horiz-adv-x="570" 
d="M512 538l-13 -109q-39 8 -75 8q-47 0 -63 -23t-18 -69l-1 -25h133v-88h-139l-8 -195q-5 -106 -61.5 -164.5t-155.5 -58.5q-53 0 -97 12l-4 109q39 -9 79 -9q70 0 73 93l9 213h-107v88h112l1 16q6 101 68 157.5t171 56.5q48 0 96 -12z" />
    <glyph glyph-name="uni20A9.osf" horiz-adv-x="998" 
d="M988 230h-142l-81 -228l-171 -5l-91 235l-89 -230l-178 -5l-84 233h-142v60h121l-25 68h-96v60h75l-44 122h175l42 -122h164l-48 122h171l46 -122h167l40 122h159l-44 -122h75v-60h-96l-24 -68h120v-60zM414 358h-136l24 -68h86zM366 230h-43l20 -58zM739 358h-125
l26 -68h76zM698 230h-36l19 -53z" />
    </font>
</defs>
</svg>
